{"glyphs":{"0":{"ha":790,"x_min":78,"x_max":701,"o":"m 390 -14 q 246 27 306 -14 q 150 139 187 67 q 95 306 113 211 q 78 510 78 401 q 95 714 78 618 q 150 882 113 809 q 246 995 187 954 q 390 1037 306 1037 q 533 995 474 1037 q 629 882 592 954 q 683 714 666 809 q 701 510 701 618 q 683 306 701 401 q 629 139 666 211 q 533 27 592 67 q 390 -14 474 -14 m 390 90 q 497 138 455 90 q 560 280 539 186 q 581 510 581 374 q 560 740 581 647 q 497 882 539 834 q 390 931 455 931 q 282 882 325 931 q 219 740 240 834 q 198 510 198 647 q 219 280 198 373 q 282 138 240 186 q 390 90 325 90 z "},"1":{"ha":573,"x_min":88,"x_max":401,"o":"m 401 1028 l 401 0 l 283 0 l 283 899 q 248 879 277 892 q 177 855 219 867 q 88 839 135 844 l 88 946 q 176 967 135 953 q 247 998 217 981 q 285 1028 276 1014 l 401 1028 z "},"2":{"ha":790,"x_min":84,"x_max":685,"o":"m 88 0 l 88 102 q 120 174 93 133 q 187 259 147 215 q 270 347 226 303 q 353 427 315 390 q 449 523 402 473 q 527 628 496 572 q 558 744 558 683 q 516 883 558 835 q 389 931 474 931 q 280 903 321 931 q 221 823 239 874 q 203 703 203 772 l 84 703 q 117 877 84 802 q 219 995 151 953 q 390 1037 287 1037 q 549 1000 485 1037 q 645 897 613 963 q 678 744 678 831 q 657 634 678 687 q 601 533 635 581 q 528 445 567 485 q 453 372 489 404 q 346 270 397 319 q 262 179 296 221 q 222 108 228 138 l 685 108 l 685 0 l 88 0 z "},"3":{"ha":794,"x_min":91,"x_max":687,"o":"m 518 540 q 616 505 579 538 q 670 419 653 472 q 687 302 687 366 q 655 141 687 213 q 559 28 624 69 q 394 -14 494 -14 q 253 8 311 -14 q 160 73 196 31 q 108 176 124 115 q 91 312 91 236 q 91 313 91 313 q 91 315 91 314 l 210 315 q 210 313 210 314 q 210 312 210 313 q 232 177 210 225 q 295 109 254 128 q 395 90 337 90 q 521 143 475 90 q 567 305 567 196 q 560 374 567 341 q 534 432 553 407 q 480 473 515 458 q 390 488 445 488 l 352 488 l 352 584 l 390 584 q 478 599 444 584 q 532 639 513 614 q 559 694 551 663 q 567 757 567 725 q 522 890 567 849 q 397 931 476 931 q 261 886 312 931 q 210 724 210 841 l 91 724 q 109 851 91 793 q 165 950 128 908 q 260 1014 203 992 q 395 1037 317 1037 q 559 1001 494 1037 q 655 902 624 965 q 687 763 687 840 q 670 656 687 706 q 616 574 653 606 q 518 540 579 542 z "},"4":{"ha":772,"x_min":44,"x_max":709,"o":"m 455 0 l 455 231 l 44 231 l 44 326 l 409 1028 l 571 1028 l 571 335 l 709 335 l 709 231 l 571 231 l 571 0 l 455 0 m 147 271 l 108 335 l 455 335 l 455 946 l 485 939 l 147 271 z "},"5":{"ha":788,"x_min":88,"x_max":678,"o":"m 662 921 l 262 921 l 226 583 q 240 606 228 592 q 276 634 252 619 q 336 658 300 649 q 421 668 372 668 q 613 578 547 668 q 678 340 678 488 q 643 147 678 226 q 542 27 608 67 q 383 -14 476 -14 q 251 9 307 -14 q 159 72 195 31 q 106 168 124 113 q 88 288 88 223 q 88 289 88 289 q 88 290 88 290 l 206 290 q 206 289 206 290 q 206 288 206 289 q 253 137 206 183 q 384 90 300 90 q 477 117 438 90 q 538 199 517 144 q 559 338 559 254 q 518 506 559 449 q 399 564 478 564 q 310 544 349 564 q 248 496 272 524 q 213 442 223 467 l 99 471 l 162 1024 l 662 1024 l 662 921 z "},"6":{"ha":798,"x_min":97,"x_max":692,"o":"m 394 -14 q 228 43 294 -14 q 130 203 162 101 q 97 442 97 306 q 121 720 97 606 q 186 904 144 834 q 284 1005 228 974 q 405 1037 340 1037 q 530 1010 481 1037 q 606 942 579 983 q 644 858 633 901 q 655 780 655 814 q 655 779 655 779 q 655 777 655 778 l 544 777 q 544 779 544 778 q 544 780 544 779 q 538 832 544 805 q 517 881 532 858 q 474 918 501 904 q 404 932 447 932 q 305 886 349 932 q 235 728 260 840 q 210 418 210 616 l 153 418 q 189 546 153 492 q 286 631 226 601 q 417 661 347 661 q 566 618 504 661 q 660 501 628 576 q 692 330 692 426 q 658 151 692 229 q 558 30 624 74 q 394 -14 492 -14 m 395 90 q 493 118 454 90 q 553 198 533 146 q 573 322 573 250 q 554 443 573 390 q 498 527 535 497 q 406 557 460 557 q 308 531 351 557 q 240 456 265 504 q 215 343 215 408 q 237 216 215 274 q 300 124 259 158 q 395 90 340 90 z "},"7":{"ha":703,"x_min":65,"x_max":660,"o":"m 524 919 l 524 917 l 65 917 l 65 1024 l 660 1024 l 660 923 q 525 783 579 865 q 437 604 471 701 q 386 403 403 507 q 363 197 369 300 q 356 0 356 94 l 238 0 q 244 206 238 101 q 269 414 251 311 q 319 611 287 517 q 402 784 351 706 q 524 919 452 863 z "},"8":{"ha":844,"x_min":98,"x_max":742,"o":"m 420 -14 q 248 24 320 -14 q 137 130 176 62 q 98 286 98 197 q 124 419 98 366 q 192 501 151 472 q 276 542 233 531 q 203 578 239 551 q 145 655 168 606 q 122 775 122 704 q 162 914 122 856 q 269 1005 202 973 q 420 1037 337 1037 q 571 1005 503 1037 q 678 914 639 973 q 718 775 718 856 q 695 655 718 704 q 637 578 672 606 q 565 542 601 551 q 649 501 608 531 q 716 419 690 472 q 742 286 742 366 q 703 130 742 197 q 592 24 665 62 q 420 -14 520 -14 m 420 90 q 521 111 476 90 q 594 175 567 132 q 621 285 621 218 q 596 392 621 346 q 526 464 571 438 q 420 490 481 490 q 315 464 360 490 q 244 392 269 438 q 219 285 219 346 q 247 175 219 218 q 319 111 274 132 q 420 90 365 90 m 420 591 q 552 639 501 591 q 603 767 603 687 q 577 863 603 826 q 510 915 551 899 q 420 931 468 931 q 331 915 372 931 q 263 863 289 899 q 238 767 238 826 q 288 639 238 687 q 420 591 338 591 z "},"9":{"ha":787,"x_min":94,"x_max":689,"o":"m 381 -14 q 256 13 305 -14 q 180 81 207 40 q 142 165 153 122 q 131 243 131 209 q 131 245 131 244 q 131 246 131 245 l 242 246 q 242 245 242 245 q 242 243 242 244 q 248 191 242 218 q 269 142 254 165 q 312 105 285 119 q 382 91 340 91 q 482 137 438 91 q 551 295 526 183 q 576 605 576 408 l 633 605 q 597 477 633 532 q 500 392 560 422 q 369 362 440 362 q 220 405 282 362 q 126 522 159 447 q 94 693 94 597 q 128 872 94 794 q 228 993 162 949 q 392 1037 295 1037 q 558 980 492 1037 q 657 820 624 922 q 689 581 689 717 q 665 303 689 417 q 600 119 642 189 q 502 18 558 49 q 381 -14 446 -14 m 380 466 q 478 492 435 466 q 546 567 522 519 q 571 680 571 615 q 549 807 571 750 q 487 899 527 865 q 391 933 447 933 q 293 905 333 933 q 233 825 253 877 q 213 701 213 774 q 232 580 213 633 q 289 496 251 526 q 380 466 326 466 z "},"A":{"ha":855,"x_min":54,"x_max":801,"o":"m 54 0 l 336 1027 l 521 1027 l 801 0 l 678 0 l 428 950 l 429 950 l 176 0 l 54 0 m 200 272 l 200 376 l 657 376 l 657 272 l 200 272 z "},"Á":{"ha":855,"x_min":54,"x_max":801,"o":"m 54 0 l 336 1027 l 521 1027 l 801 0 l 678 0 l 428 950 l 429 950 l 176 0 l 54 0 m 200 272 l 200 376 l 657 376 l 657 272 l 200 272 m 343 1077 l 539 1203 l 655 1203 l 451 1077 l 343 1077 z "},"Ă":{"ha":855,"x_min":54,"x_max":801,"o":"m 54 0 l 336 1027 l 521 1027 l 801 0 l 678 0 l 428 950 l 429 950 l 176 0 l 54 0 m 200 272 l 200 376 l 657 376 l 657 272 l 200 272 m 262 1187 l 336 1187 q 361 1138 336 1159 q 428 1117 386 1117 q 496 1138 472 1117 q 521 1187 521 1159 l 596 1187 q 548 1100 596 1134 q 428 1065 499 1065 q 310 1100 358 1065 q 262 1187 262 1134 z "},"Ắ":{"ha":855,"x_min":54,"x_max":801,"o":"m 54 0 l 336 1027 l 521 1027 l 801 0 l 678 0 l 428 950 l 429 950 l 176 0 l 54 0 m 200 272 l 200 376 l 657 376 l 657 272 l 200 272 m 262 1187 l 336 1187 q 361 1138 336 1159 q 428 1117 386 1117 q 496 1138 472 1117 q 521 1187 521 1159 l 596 1187 q 548 1100 596 1134 q 428 1065 499 1065 q 310 1100 358 1065 q 262 1187 262 1134 m 343 1237 l 539 1363 l 655 1363 l 451 1237 l 343 1237 z "},"Ặ":{"ha":855,"x_min":54,"x_max":801,"o":"m 54 0 l 336 1027 l 521 1027 l 801 0 l 678 0 l 428 950 l 429 950 l 176 0 l 54 0 m 200 272 l 200 376 l 657 376 l 657 272 l 200 272 m 427 -237 q 371 -219 395 -237 q 347 -169 347 -201 q 371 -119 347 -137 q 427 -101 395 -101 q 483 -119 459 -101 q 507 -169 507 -137 q 483 -219 507 -201 q 427 -237 459 -237 m 262 1187 l 336 1187 q 361 1138 336 1159 q 428 1117 386 1117 q 496 1138 472 1117 q 521 1187 521 1159 l 596 1187 q 548 1100 596 1134 q 428 1065 499 1065 q 310 1100 358 1065 q 262 1187 262 1134 z "},"Ằ":{"ha":855,"x_min":54,"x_max":801,"o":"m 54 0 l 336 1027 l 521 1027 l 801 0 l 678 0 l 428 950 l 429 950 l 176 0 l 54 0 m 200 272 l 200 376 l 657 376 l 657 272 l 200 272 m 262 1187 l 336 1187 q 361 1138 336 1159 q 428 1117 386 1117 q 496 1138 472 1117 q 521 1187 521 1159 l 596 1187 q 548 1100 596 1134 q 428 1065 499 1065 q 310 1100 358 1065 q 262 1187 262 1134 m 519 1237 l 411 1237 l 207 1363 l 323 1363 l 519 1237 z "},"Ẳ":{"ha":855,"x_min":54,"x_max":801,"o":"m 54 0 l 336 1027 l 521 1027 l 801 0 l 678 0 l 428 950 l 429 950 l 176 0 l 54 0 m 200 272 l 200 376 l 657 376 l 657 272 l 200 272 m 262 1187 l 336 1187 q 361 1138 336 1159 q 428 1117 386 1117 q 496 1138 472 1117 q 521 1187 521 1159 l 596 1187 q 548 1100 596 1134 q 428 1065 499 1065 q 310 1100 358 1065 q 262 1187 262 1134 m 284 1383 q 416 1378 359 1383 q 505 1355 473 1372 q 537 1302 537 1338 q 514 1252 537 1271 q 453 1224 490 1233 q 373 1215 415 1215 l 358 1253 q 409 1258 383 1254 q 455 1272 436 1262 q 473 1298 473 1281 q 422 1333 473 1326 q 284 1340 370 1340 l 284 1383 z "},"Ẵ":{"ha":855,"x_min":54,"x_max":801,"o":"m 54 0 l 336 1027 l 521 1027 l 801 0 l 678 0 l 428 950 l 429 950 l 176 0 l 54 0 m 200 272 l 200 376 l 657 376 l 657 272 l 200 272 m 262 1187 l 336 1187 q 361 1138 336 1159 q 428 1117 386 1117 q 496 1138 472 1117 q 521 1187 521 1159 l 596 1187 q 548 1100 596 1134 q 428 1065 499 1065 q 310 1100 358 1065 q 262 1187 262 1134 m 631 1343 q 619 1296 631 1322 q 583 1251 608 1270 q 519 1231 559 1231 q 465 1244 488 1231 q 424 1270 442 1257 q 391 1291 408 1281 q 352 1301 374 1301 q 313 1284 324 1301 q 301 1250 303 1267 l 232 1250 q 247 1299 233 1273 q 287 1345 260 1326 q 352 1364 313 1364 q 406 1352 384 1364 q 444 1327 428 1340 q 478 1304 460 1315 q 515 1294 495 1294 q 552 1310 543 1294 q 563 1343 561 1326 l 631 1343 z "},"Ǎ":{"ha":855,"x_min":54,"x_max":801,"o":"m 54 0 l 336 1027 l 521 1027 l 801 0 l 678 0 l 428 950 l 429 950 l 176 0 l 54 0 m 200 272 l 200 376 l 657 376 l 657 272 l 200 272 m 234 1200 l 323 1200 l 446 1095 l 411 1095 l 533 1200 l 623 1200 l 474 1076 l 382 1076 l 234 1200 z "},"Â":{"ha":855,"x_min":54,"x_max":801,"o":"m 54 0 l 336 1027 l 521 1027 l 801 0 l 678 0 l 428 950 l 429 950 l 176 0 l 54 0 m 200 272 l 200 376 l 657 376 l 657 272 l 200 272 m 234 1076 l 382 1200 l 474 1200 l 623 1076 l 533 1076 l 411 1181 l 446 1181 l 323 1076 l 234 1076 z "},"Ấ":{"ha":855,"x_min":54,"x_max":807,"o":"m 54 0 l 336 1027 l 521 1027 l 801 0 l 678 0 l 428 950 l 429 950 l 176 0 l 54 0 m 200 272 l 200 376 l 657 376 l 657 272 l 200 272 m 233 1076 l 381 1200 l 474 1200 l 622 1076 l 533 1076 l 410 1181 l 446 1181 l 322 1076 l 233 1076 m 556 1177 l 707 1303 l 807 1303 l 644 1177 l 556 1177 z "},"Ậ":{"ha":855,"x_min":54,"x_max":801,"o":"m 54 0 l 336 1027 l 521 1027 l 801 0 l 678 0 l 428 950 l 429 950 l 176 0 l 54 0 m 200 272 l 200 376 l 657 376 l 657 272 l 200 272 m 427 -237 q 371 -219 395 -237 q 347 -169 347 -201 q 371 -119 347 -137 q 427 -101 395 -101 q 483 -119 459 -101 q 507 -169 507 -137 q 483 -219 507 -201 q 427 -237 459 -237 m 234 1076 l 382 1200 l 474 1200 l 623 1076 l 533 1076 l 411 1181 l 446 1181 l 323 1076 l 234 1076 z "},"Ầ":{"ha":855,"x_min":54,"x_max":801,"o":"m 54 0 l 336 1027 l 521 1027 l 801 0 l 678 0 l 428 950 l 429 950 l 176 0 l 54 0 m 200 272 l 200 376 l 657 376 l 657 272 l 200 272 m 235 1076 l 383 1200 l 475 1200 l 624 1076 l 533 1076 l 412 1181 l 447 1181 l 324 1076 l 235 1076 m 706 1177 l 617 1177 l 454 1303 l 554 1303 l 706 1177 z "},"Ẩ":{"ha":855,"x_min":54,"x_max":801,"o":"m 54 0 l 336 1027 l 521 1027 l 801 0 l 678 0 l 428 950 l 429 950 l 176 0 l 54 0 m 200 272 l 200 376 l 657 376 l 657 272 l 200 272 m 235 1076 l 383 1200 l 475 1200 l 624 1076 l 533 1076 l 412 1181 l 447 1181 l 324 1076 l 235 1076 m 485 1343 q 617 1338 560 1343 q 706 1315 674 1332 q 738 1262 738 1297 q 714 1211 738 1231 q 653 1184 691 1192 q 574 1175 616 1175 l 558 1213 q 610 1217 583 1213 q 655 1231 637 1222 q 674 1258 674 1241 q 622 1292 674 1285 q 485 1299 571 1299 l 485 1343 z "},"Ẫ":{"ha":855,"x_min":54,"x_max":801,"o":"m 54 0 l 336 1027 l 521 1027 l 801 0 l 678 0 l 428 950 l 429 950 l 176 0 l 54 0 m 200 272 l 200 376 l 657 376 l 657 272 l 200 272 m 234 1076 l 382 1200 l 474 1200 l 623 1076 l 533 1076 l 411 1181 l 446 1181 l 323 1076 l 234 1076 m 631 1359 q 619 1312 631 1338 q 583 1267 608 1286 q 519 1247 559 1247 q 465 1260 488 1247 q 424 1286 442 1273 q 391 1307 408 1297 q 352 1317 374 1317 q 313 1300 324 1317 q 301 1266 303 1283 l 232 1266 q 247 1315 233 1289 q 287 1361 260 1342 q 352 1380 313 1380 q 406 1368 384 1380 q 444 1343 428 1356 q 478 1320 460 1331 q 515 1310 495 1310 q 552 1326 543 1310 q 563 1359 561 1342 l 631 1359 z "},"Ȁ":{"ha":855,"x_min":54,"x_max":801,"o":"m 54 0 l 336 1027 l 521 1027 l 801 0 l 678 0 l 428 950 l 429 950 l 176 0 l 54 0 m 200 272 l 200 376 l 657 376 l 657 272 l 200 272 m 580 1076 l 503 1076 l 364 1203 l 455 1203 l 580 1076 m 367 1076 l 290 1076 l 143 1203 l 235 1203 l 367 1076 z "},"Ä":{"ha":855,"x_min":54,"x_max":801,"o":"m 54 0 l 336 1027 l 521 1027 l 801 0 l 678 0 l 428 950 l 429 950 l 176 0 l 54 0 m 200 272 l 200 376 l 657 376 l 657 272 l 200 272 m 294 1084 q 241 1101 264 1084 q 219 1149 219 1119 q 241 1195 219 1178 q 294 1213 264 1213 q 347 1195 324 1213 q 369 1149 369 1178 q 347 1101 369 1119 q 294 1084 324 1084 m 564 1084 q 512 1101 534 1084 q 490 1149 490 1119 q 512 1195 490 1178 q 564 1213 534 1213 q 617 1195 594 1213 q 639 1149 639 1178 q 617 1101 639 1119 q 564 1084 594 1084 z "},"Ǟ":{"ha":855,"x_min":54,"x_max":801,"o":"m 54 0 l 336 1027 l 521 1027 l 801 0 l 678 0 l 428 950 l 429 950 l 176 0 l 54 0 m 200 272 l 200 376 l 657 376 l 657 272 l 200 272 m 294 1084 q 241 1101 264 1084 q 219 1149 219 1119 q 241 1195 219 1178 q 294 1213 264 1213 q 347 1195 324 1213 q 369 1149 369 1178 q 347 1101 369 1119 q 294 1084 324 1084 m 564 1084 q 512 1101 534 1084 q 490 1149 490 1119 q 512 1195 490 1178 q 564 1213 534 1213 q 617 1195 594 1213 q 639 1149 639 1178 q 617 1101 639 1119 q 564 1084 594 1084 m 248 1292 l 248 1346 l 608 1346 l 608 1292 l 248 1292 z "},"Ạ":{"ha":855,"x_min":54,"x_max":801,"o":"m 54 0 l 336 1027 l 521 1027 l 801 0 l 678 0 l 428 950 l 429 950 l 176 0 l 54 0 m 200 272 l 200 376 l 657 376 l 657 272 l 200 272 m 427 -237 q 371 -219 395 -237 q 347 -169 347 -201 q 371 -119 347 -137 q 427 -101 395 -101 q 483 -119 459 -101 q 507 -169 507 -137 q 483 -219 507 -201 q 427 -237 459 -237 z "},"À":{"ha":855,"x_min":54,"x_max":801,"o":"m 54 0 l 336 1027 l 521 1027 l 801 0 l 678 0 l 428 950 l 429 950 l 176 0 l 54 0 m 200 272 l 200 376 l 657 376 l 657 272 l 200 272 m 519 1077 l 411 1077 l 207 1203 l 323 1203 l 519 1077 z "},"Ả":{"ha":855,"x_min":54,"x_max":801,"o":"m 54 0 l 336 1027 l 521 1027 l 801 0 l 678 0 l 428 950 l 429 950 l 176 0 l 54 0 m 200 272 l 200 376 l 657 376 l 657 272 l 200 272 m 284 1224 q 416 1218 359 1224 q 505 1195 473 1213 q 537 1142 537 1178 q 514 1092 537 1111 q 453 1064 490 1073 q 373 1056 415 1056 l 358 1093 q 409 1098 383 1094 q 455 1112 436 1102 q 473 1138 473 1122 q 422 1173 473 1166 q 284 1180 370 1180 l 284 1224 z "},"Ȃ":{"ha":855,"x_min":54,"x_max":801,"o":"m 54 0 l 336 1027 l 521 1027 l 801 0 l 678 0 l 428 950 l 429 950 l 176 0 l 54 0 m 200 272 l 200 376 l 657 376 l 657 272 l 200 272 m 262 1068 q 310 1153 262 1121 q 428 1185 358 1185 q 548 1153 499 1185 q 596 1068 596 1121 l 522 1068 q 497 1115 522 1095 q 428 1134 472 1134 q 361 1115 386 1134 q 335 1068 335 1095 l 262 1068 z "},"Ā":{"ha":855,"x_min":54,"x_max":801,"o":"m 54 0 l 336 1027 l 521 1027 l 801 0 l 678 0 l 428 950 l 429 950 l 176 0 l 54 0 m 200 272 l 200 376 l 657 376 l 657 272 l 200 272 m 248 1118 l 248 1172 l 608 1172 l 608 1118 l 248 1118 z "},"Ą":{"ha":855,"x_min":54,"x_max":801,"o":"m 54 0 l 336 1027 l 521 1027 l 801 0 l 678 0 l 428 950 l 429 950 l 176 0 l 54 0 m 200 272 l 200 376 l 657 376 l 657 272 l 200 272 m 801 -233 l 801 -295 q 770 -299 788 -297 q 736 -300 753 -300 q 669 -289 699 -300 q 620 -255 638 -278 q 602 -195 602 -232 q 623 -123 602 -160 q 674 -54 643 -87 q 733 0 704 -22 l 801 0 q 746 -55 776 -22 q 694 -120 716 -87 q 673 -180 673 -153 q 692 -224 673 -210 q 744 -238 712 -238 q 773 -236 758 -238 q 801 -233 789 -235 z "},"Å":{"ha":855,"x_min":54,"x_max":801,"o":"m 54 0 l 336 1027 l 521 1027 l 801 0 l 678 0 l 428 950 l 429 950 l 176 0 l 54 0 m 200 272 l 200 376 l 657 376 l 657 272 l 200 272 m 428 1113 q 484 1135 461 1113 q 506 1190 506 1158 q 484 1245 506 1223 q 428 1268 461 1268 q 374 1245 397 1268 q 351 1190 351 1223 q 374 1135 351 1158 q 428 1113 397 1113 m 428 1056 q 361 1074 392 1056 q 313 1123 331 1092 q 294 1190 294 1153 q 313 1258 294 1227 q 361 1306 331 1288 q 428 1324 392 1324 q 496 1306 466 1324 q 544 1258 526 1288 q 563 1190 563 1227 q 544 1123 563 1153 q 496 1074 526 1092 q 428 1056 466 1056 z "},"Ǻ":{"ha":855,"x_min":54,"x_max":801,"o":"m 54 0 l 336 1027 l 521 1027 l 801 0 l 678 0 l 428 950 l 429 950 l 176 0 l 54 0 m 200 272 l 200 376 l 657 376 l 657 272 l 200 272 m 428 1113 q 484 1135 461 1113 q 506 1190 506 1158 q 484 1245 506 1223 q 428 1268 461 1268 q 374 1245 397 1268 q 351 1190 351 1223 q 374 1135 351 1158 q 428 1113 397 1113 m 428 1056 q 361 1074 392 1056 q 313 1123 331 1092 q 294 1190 294 1153 q 313 1258 294 1227 q 361 1306 331 1288 q 428 1324 392 1324 q 496 1306 466 1324 q 544 1258 526 1288 q 563 1190 563 1227 q 544 1123 563 1153 q 496 1074 526 1092 q 428 1056 466 1056 m 343 1356 l 539 1481 l 655 1481 l 451 1356 l 343 1356 z "},"Ã":{"ha":855,"x_min":54,"x_max":801,"o":"m 54 0 l 336 1027 l 521 1027 l 801 0 l 678 0 l 428 950 l 429 950 l 176 0 l 54 0 m 200 272 l 200 376 l 657 376 l 657 272 l 200 272 m 631 1183 q 619 1136 631 1163 q 583 1091 608 1110 q 519 1072 559 1072 q 465 1084 488 1072 q 424 1110 442 1097 q 391 1131 408 1122 q 352 1141 374 1141 q 313 1124 324 1141 q 301 1090 303 1108 l 232 1090 q 247 1140 233 1113 q 287 1185 260 1166 q 352 1204 313 1204 q 406 1192 384 1204 q 444 1167 428 1180 q 478 1144 460 1155 q 515 1134 495 1134 q 552 1150 543 1134 q 563 1183 561 1166 l 631 1183 z "},"Æ":{"ha":1298,"x_min":0,"x_max":1200,"o":"m 0 0 l 597 1024 l 1200 1024 l 1200 920 l 714 920 l 754 960 l 754 525 l 719 566 l 1123 566 l 1123 462 l 721 462 l 754 500 l 754 69 l 719 104 l 1200 104 l 1200 0 l 640 0 l 640 920 l 651 913 l 129 0 l 0 0 m 230 226 l 254 331 l 695 331 l 695 226 l 230 226 z "},"Ǽ":{"ha":1298,"x_min":0,"x_max":1200,"o":"m 0 0 l 597 1024 l 1200 1024 l 1200 920 l 714 920 l 754 960 l 754 525 l 719 566 l 1123 566 l 1123 462 l 721 462 l 754 500 l 754 69 l 719 104 l 1200 104 l 1200 0 l 640 0 l 640 920 l 651 913 l 129 0 l 0 0 m 230 226 l 254 331 l 695 331 l 695 226 l 230 226 m 647 1077 l 843 1203 l 959 1203 l 755 1077 l 647 1077 z "},"B":{"ha":843,"x_min":98,"x_max":758,"o":"m 438 1024 q 600 998 533 1024 q 701 918 666 972 q 736 781 736 864 q 704 648 736 701 q 621 568 672 595 q 517 538 571 540 q 631 511 576 536 q 723 430 687 485 q 758 283 758 375 q 723 130 758 194 q 615 33 687 67 q 433 0 542 0 l 98 0 l 98 1024 l 438 1024 m 213 545 l 172 585 l 383 585 q 556 630 494 585 q 617 763 617 675 q 592 855 617 821 q 519 905 566 890 q 410 920 472 920 l 159 920 l 213 988 l 213 545 m 410 104 q 576 151 515 104 q 638 290 638 197 q 617 383 638 346 q 563 442 597 420 q 483 473 528 463 q 389 482 438 482 l 172 482 l 213 522 l 213 37 l 159 104 l 410 104 z "},"C":{"ha":920,"x_min":70,"x_max":850,"o":"m 850 356 q 827 230 850 294 q 758 109 804 165 q 642 20 712 54 q 477 -14 572 -14 q 256 54 347 -14 q 118 240 165 122 q 70 512 70 359 q 118 784 70 665 q 256 969 165 902 q 477 1037 347 1037 q 662 992 585 1037 q 783 879 738 948 q 842 738 828 810 q 850 668 850 701 l 731 668 q 728 711 731 687 q 688 819 719 769 q 603 899 656 869 q 477 929 551 929 q 327 882 391 929 q 227 742 263 835 q 191 512 191 649 q 227 282 191 375 q 327 141 263 188 q 477 93 391 93 q 586 116 539 93 q 666 176 633 138 q 715 261 698 214 q 731 356 731 308 l 850 356 z "},"Ć":{"ha":920,"x_min":70,"x_max":850,"o":"m 850 356 q 827 230 850 294 q 758 109 804 165 q 642 20 712 54 q 477 -14 572 -14 q 256 54 347 -14 q 118 240 165 122 q 70 512 70 359 q 118 784 70 665 q 256 969 165 902 q 477 1037 347 1037 q 662 992 585 1037 q 783 879 738 948 q 842 738 828 810 q 850 668 850 701 l 731 668 q 728 711 731 687 q 688 819 719 769 q 603 899 656 869 q 477 929 551 929 q 327 882 391 929 q 227 742 263 835 q 191 512 191 649 q 227 282 191 375 q 327 141 263 188 q 477 93 391 93 q 586 116 539 93 q 666 176 633 138 q 715 261 698 214 q 731 356 731 308 l 850 356 m 389 1077 l 585 1203 l 701 1203 l 497 1077 l 389 1077 z "},"Č":{"ha":920,"x_min":70,"x_max":850,"o":"m 850 356 q 827 230 850 294 q 758 109 804 165 q 642 20 712 54 q 477 -14 572 -14 q 256 54 347 -14 q 118 240 165 122 q 70 512 70 359 q 118 784 70 665 q 256 969 165 902 q 477 1037 347 1037 q 662 992 585 1037 q 783 879 738 948 q 842 738 828 810 q 850 668 850 701 l 731 668 q 728 711 731 687 q 688 819 719 769 q 603 899 656 869 q 477 929 551 929 q 327 882 391 929 q 227 742 263 835 q 191 512 191 649 q 227 282 191 375 q 327 141 263 188 q 477 93 391 93 q 586 116 539 93 q 666 176 633 138 q 715 261 698 214 q 731 356 731 308 l 850 356 m 280 1200 l 369 1200 l 492 1095 l 457 1095 l 578 1200 l 669 1200 l 520 1076 l 428 1076 l 280 1200 z "},"Ç":{"ha":920,"x_min":70,"x_max":850,"o":"m 850 356 q 827 230 850 294 q 758 109 804 165 q 642 20 712 54 q 477 -14 572 -14 q 304 25 380 -14 q 176 134 228 64 q 97 301 124 205 q 70 512 70 397 q 97 723 70 627 q 176 889 124 819 q 304 998 228 960 q 477 1037 380 1037 q 662 992 585 1037 q 783 879 738 948 q 842 738 828 810 q 850 668 850 701 l 731 668 q 728 711 731 687 q 688 819 719 769 q 603 899 656 869 q 477 929 551 929 q 327 882 391 929 q 227 742 263 835 q 191 512 191 649 q 227 282 191 375 q 327 141 263 188 q 477 93 391 93 q 586 116 539 93 q 666 176 633 138 q 715 261 698 214 q 731 356 731 308 l 850 356 m 532 -69 q 577 -81 556 -69 q 613 -114 599 -92 q 626 -172 626 -137 q 603 -241 626 -214 q 544 -282 581 -268 q 465 -295 507 -295 q 392 -286 426 -295 q 347 -269 359 -277 l 373 -219 q 409 -235 383 -226 q 469 -245 435 -245 q 540 -226 511 -245 q 569 -170 569 -206 q 553 -127 569 -140 q 513 -113 538 -113 q 477 -120 496 -113 q 449 -140 458 -128 l 398 -124 l 446 0 l 502 0 l 459 -112 l 449 -108 q 480 -82 456 -94 q 532 -69 504 -69 z "},"Ḉ":{"ha":920,"x_min":70,"x_max":850,"o":"m 850 356 q 827 230 850 294 q 758 109 804 165 q 642 20 712 54 q 477 -14 572 -14 q 304 25 380 -14 q 176 134 228 64 q 97 301 124 205 q 70 512 70 397 q 97 723 70 627 q 176 889 124 819 q 304 998 228 960 q 477 1037 380 1037 q 662 992 585 1037 q 783 879 738 948 q 842 738 828 810 q 850 668 850 701 l 731 668 q 728 711 731 687 q 688 819 719 769 q 603 899 656 869 q 477 929 551 929 q 327 882 391 929 q 227 742 263 835 q 191 512 191 649 q 227 282 191 375 q 327 141 263 188 q 477 93 391 93 q 586 116 539 93 q 666 176 633 138 q 715 261 698 214 q 731 356 731 308 l 850 356 m 532 -69 q 577 -81 556 -69 q 613 -114 599 -92 q 626 -172 626 -137 q 603 -241 626 -214 q 544 -282 581 -268 q 465 -295 507 -295 q 392 -286 426 -295 q 347 -269 359 -277 l 373 -219 q 409 -235 383 -226 q 469 -245 435 -245 q 540 -226 511 -245 q 569 -170 569 -206 q 553 -127 569 -140 q 513 -113 538 -113 q 477 -120 496 -113 q 449 -140 458 -128 l 398 -124 l 446 0 l 502 0 l 459 -112 l 449 -108 q 480 -82 456 -94 q 532 -69 504 -69 m 389 1077 l 585 1203 l 701 1203 l 497 1077 l 389 1077 z "},"Ĉ":{"ha":920,"x_min":70,"x_max":850,"o":"m 850 356 q 827 230 850 294 q 758 109 804 165 q 642 20 712 54 q 477 -14 572 -14 q 256 54 347 -14 q 118 240 165 122 q 70 512 70 359 q 118 784 70 665 q 256 969 165 902 q 477 1037 347 1037 q 662 992 585 1037 q 783 879 738 948 q 842 738 828 810 q 850 668 850 701 l 731 668 q 728 711 731 687 q 688 819 719 769 q 603 899 656 869 q 477 929 551 929 q 327 882 391 929 q 227 742 263 835 q 191 512 191 649 q 227 282 191 375 q 327 141 263 188 q 477 93 391 93 q 586 116 539 93 q 666 176 633 138 q 715 261 698 214 q 731 356 731 308 l 850 356 m 280 1076 l 428 1200 l 520 1200 l 669 1076 l 578 1076 l 457 1181 l 492 1181 l 369 1076 l 280 1076 z "},"Ċ":{"ha":920,"x_min":70,"x_max":850,"o":"m 850 356 q 827 230 850 294 q 758 109 804 165 q 642 20 712 54 q 477 -14 572 -14 q 256 54 347 -14 q 118 240 165 122 q 70 512 70 359 q 118 784 70 665 q 256 969 165 902 q 477 1037 347 1037 q 662 992 585 1037 q 783 879 738 948 q 842 738 828 810 q 850 668 850 701 l 731 668 q 728 711 731 687 q 688 819 719 769 q 603 899 656 869 q 477 929 551 929 q 327 882 391 929 q 227 742 263 835 q 191 512 191 649 q 227 282 191 375 q 327 141 263 188 q 477 93 391 93 q 586 116 539 93 q 666 176 633 138 q 715 261 698 214 q 731 356 731 308 l 850 356 m 476 1091 q 420 1109 444 1091 q 396 1159 396 1128 q 420 1209 396 1191 q 476 1227 444 1227 q 532 1209 508 1227 q 556 1159 556 1191 q 532 1109 556 1127 q 476 1091 508 1091 z "},"D":{"ha":868,"x_min":98,"x_max":798,"o":"m 98 0 l 98 1024 l 355 1024 q 538 989 456 1024 q 677 887 619 953 q 767 726 735 821 q 798 513 798 631 q 767 299 798 394 q 677 138 735 204 q 538 35 619 71 q 355 0 456 0 l 98 0 m 217 37 l 164 104 l 341 104 q 516 154 440 104 q 635 295 592 203 q 678 513 678 387 q 635 730 678 639 q 516 871 592 822 q 341 920 440 920 l 164 920 l 217 988 l 217 37 z "},"Ǆ":{"ha":1557,"x_min":98,"x_max":1485,"o":"m 98 0 l 98 1024 l 355 1024 q 538 989 456 1024 q 677 887 619 953 q 767 726 735 821 q 798 513 798 631 q 767 299 798 394 q 677 138 735 204 q 538 35 619 71 q 355 0 456 0 l 98 0 m 217 37 l 164 104 l 341 104 q 516 154 440 104 q 635 295 592 203 q 678 513 678 387 q 635 730 678 639 q 516 871 592 822 q 341 920 440 920 l 164 920 l 217 988 l 217 37 m 997 104 l 1478 104 l 1478 0 l 863 0 l 863 93 l 1353 921 l 1354 920 l 895 920 l 895 1024 l 1485 1024 l 1485 933 l 997 106 l 997 104 m 980 1200 l 1069 1200 l 1192 1095 l 1157 1095 l 1278 1200 l 1369 1200 l 1220 1076 l 1128 1076 l 980 1200 z "},"Ð":{"ha":868,"x_min":1,"x_max":798,"o":"m 1 483 l 1 541 l 485 541 l 485 483 l 1 483 m 98 0 l 98 1024 l 355 1024 q 538 989 456 1024 q 677 887 619 953 q 767 726 735 821 q 798 513 798 631 q 767 299 798 394 q 677 138 735 204 q 538 35 619 71 q 355 0 456 0 l 98 0 m 217 37 l 164 104 l 341 104 q 516 154 440 104 q 635 295 592 203 q 678 513 678 387 q 635 730 678 639 q 516 871 592 822 q 341 920 440 920 l 164 920 l 217 988 l 217 37 z "},"Ď":{"ha":868,"x_min":98,"x_max":798,"o":"m 98 0 l 98 1024 l 355 1024 q 538 989 456 1024 q 677 887 619 953 q 767 726 735 821 q 798 513 798 631 q 767 299 798 394 q 677 138 735 204 q 538 35 619 71 q 355 0 456 0 l 98 0 m 217 37 l 164 104 l 341 104 q 516 154 440 104 q 635 295 592 203 q 678 513 678 387 q 635 730 678 639 q 516 871 592 822 q 341 920 440 920 l 164 920 l 217 988 l 217 37 m 224 1200 l 313 1200 l 435 1095 l 401 1095 l 522 1200 l 613 1200 l 464 1076 l 372 1076 l 224 1200 z "},"Đ":{"ha":868,"x_min":1,"x_max":798,"o":"m 98 0 l 98 1024 l 355 1024 q 538 989 456 1024 q 677 887 619 953 q 767 726 735 821 q 798 513 798 631 q 767 299 798 394 q 677 138 735 204 q 538 35 619 71 q 355 0 456 0 l 98 0 m 217 37 l 164 104 l 341 104 q 516 154 440 104 q 635 295 592 203 q 678 513 678 387 q 635 730 678 639 q 516 871 592 822 q 341 920 440 920 l 164 920 l 217 988 l 217 37 m 1 483 l 1 541 l 485 541 l 485 483 l 1 483 z "},"Ḍ":{"ha":868,"x_min":98,"x_max":798,"o":"m 98 0 l 98 1024 l 355 1024 q 538 989 456 1024 q 677 887 619 953 q 767 726 735 821 q 798 513 798 631 q 767 299 798 394 q 677 138 735 204 q 538 35 619 71 q 355 0 456 0 l 98 0 m 217 37 l 164 104 l 341 104 q 516 154 440 104 q 635 295 592 203 q 678 513 678 387 q 635 730 678 639 q 516 871 592 822 q 341 920 440 920 l 164 920 l 217 988 l 217 37 m 418 -237 q 362 -219 386 -237 q 338 -169 338 -201 q 362 -119 338 -137 q 418 -101 386 -101 q 474 -119 450 -101 q 498 -169 498 -137 q 474 -219 498 -201 q 418 -237 450 -237 z "},"Ḏ":{"ha":868,"x_min":98,"x_max":798,"o":"m 98 0 l 98 1024 l 355 1024 q 538 989 456 1024 q 677 887 619 953 q 767 726 735 821 q 798 513 798 631 q 767 299 798 394 q 677 138 735 204 q 538 35 619 71 q 355 0 456 0 l 98 0 m 217 37 l 164 104 l 341 104 q 516 154 440 104 q 635 295 592 203 q 678 513 678 387 q 635 730 678 639 q 516 871 592 822 q 341 920 440 920 l 164 920 l 217 988 l 217 37 m 219 -180 l 219 -126 l 617 -126 l 617 -180 l 219 -180 z "},"ǅ":{"ha":1541,"x_min":98,"x_max":1490,"o":"m 98 0 l 98 1024 l 355 1024 q 538 989 456 1024 q 677 887 619 953 q 767 726 735 821 q 798 513 798 631 q 767 299 798 394 q 677 138 735 204 q 538 35 619 71 q 355 0 456 0 l 98 0 m 217 37 l 164 104 l 341 104 q 516 154 440 104 q 635 295 592 203 q 678 513 678 387 q 635 730 678 639 q 516 871 592 822 q 341 920 440 920 l 164 920 l 217 988 l 217 37 m 1052 108 l 1490 108 l 1490 0 l 920 0 l 920 104 l 1353 632 l 1353 629 l 938 629 l 938 738 l 1483 738 l 1483 633 l 1053 107 l 1052 108 m 1019 1024 l 1103 1024 l 1226 879 l 1191 879 l 1313 1024 l 1399 1024 l 1252 856 l 1165 856 l 1019 1024 z "},"E":{"ha":756,"x_min":98,"x_max":658,"o":"m 163 920 l 217 988 l 217 525 l 188 566 l 581 566 l 581 462 l 188 462 l 217 503 l 217 37 l 163 104 l 658 104 l 658 0 l 98 0 l 98 1024 l 658 1024 l 658 920 l 163 920 z "},"É":{"ha":756,"x_min":98,"x_max":658,"o":"m 163 920 l 217 988 l 217 525 l 188 566 l 581 566 l 581 462 l 188 462 l 217 503 l 217 37 l 163 104 l 658 104 l 658 0 l 98 0 l 98 1024 l 658 1024 l 658 920 l 163 920 m 301 1077 l 497 1203 l 613 1203 l 408 1077 l 301 1077 z "},"Ĕ":{"ha":756,"x_min":98,"x_max":658,"o":"m 163 920 l 217 988 l 217 525 l 188 566 l 581 566 l 581 462 l 188 462 l 217 503 l 217 37 l 163 104 l 658 104 l 658 0 l 98 0 l 98 1024 l 658 1024 l 658 920 l 163 920 m 219 1187 l 294 1187 q 319 1138 294 1159 q 386 1117 344 1117 q 454 1138 429 1117 q 478 1187 478 1159 l 553 1187 q 505 1100 553 1134 q 386 1065 457 1065 q 267 1100 315 1065 q 219 1187 219 1134 z "},"Ě":{"ha":756,"x_min":98,"x_max":658,"o":"m 163 920 l 217 988 l 217 525 l 188 566 l 581 566 l 581 462 l 188 462 l 217 503 l 217 37 l 163 104 l 658 104 l 658 0 l 98 0 l 98 1024 l 658 1024 l 658 920 l 163 920 m 192 1200 l 281 1200 l 403 1095 l 369 1095 l 490 1200 l 581 1200 l 432 1076 l 340 1076 l 192 1200 z "},"Ȩ":{"ha":756,"x_min":98,"x_max":658,"o":"m 163 920 l 217 988 l 217 525 l 188 566 l 581 566 l 581 462 l 188 462 l 217 503 l 217 37 l 163 104 l 658 104 l 658 0 l 98 0 l 98 1024 l 658 1024 l 658 920 l 163 920 m 455 -69 q 500 -81 478 -69 q 535 -114 522 -92 q 549 -172 549 -137 q 526 -241 549 -214 q 467 -282 503 -268 q 388 -295 430 -295 q 315 -286 349 -295 q 270 -269 282 -277 l 296 -219 q 332 -235 306 -226 q 392 -245 358 -245 q 463 -226 434 -245 q 492 -170 492 -206 q 476 -127 492 -140 q 436 -113 460 -113 q 400 -120 419 -113 q 372 -140 381 -128 l 321 -124 l 369 0 l 425 0 l 382 -112 l 372 -108 q 403 -82 378 -94 q 455 -69 427 -69 z "},"Ḝ":{"ha":756,"x_min":98,"x_max":658,"o":"m 163 920 l 217 988 l 217 525 l 188 566 l 581 566 l 581 462 l 188 462 l 217 503 l 217 37 l 163 104 l 658 104 l 658 0 l 98 0 l 98 1024 l 658 1024 l 658 920 l 163 920 m 455 -69 q 500 -81 478 -69 q 535 -114 522 -92 q 549 -172 549 -137 q 526 -241 549 -214 q 467 -282 503 -268 q 388 -295 430 -295 q 315 -286 349 -295 q 270 -269 282 -277 l 296 -219 q 332 -235 306 -226 q 392 -245 358 -245 q 463 -226 434 -245 q 492 -170 492 -206 q 476 -127 492 -140 q 436 -113 460 -113 q 400 -120 419 -113 q 372 -140 381 -128 l 321 -124 l 369 0 l 425 0 l 382 -112 l 372 -108 q 403 -82 378 -94 q 455 -69 427 -69 m 219 1187 l 294 1187 q 319 1138 294 1159 q 386 1117 344 1117 q 454 1138 429 1117 q 478 1187 478 1159 l 553 1187 q 505 1100 553 1134 q 386 1065 457 1065 q 267 1100 315 1065 q 219 1187 219 1134 z "},"Ê":{"ha":756,"x_min":98,"x_max":658,"o":"m 163 920 l 217 988 l 217 525 l 188 566 l 581 566 l 581 462 l 188 462 l 217 503 l 217 37 l 163 104 l 658 104 l 658 0 l 98 0 l 98 1024 l 658 1024 l 658 920 l 163 920 m 192 1076 l 340 1200 l 432 1200 l 581 1076 l 490 1076 l 369 1181 l 403 1181 l 281 1076 l 192 1076 z "},"Ế":{"ha":756,"x_min":98,"x_max":765,"o":"m 163 920 l 217 988 l 217 525 l 188 566 l 581 566 l 581 462 l 188 462 l 217 503 l 217 37 l 163 104 l 658 104 l 658 0 l 98 0 l 98 1024 l 658 1024 l 658 920 l 163 920 m 191 1076 l 339 1200 l 432 1200 l 580 1076 l 490 1076 l 368 1181 l 403 1181 l 280 1076 l 191 1076 m 513 1177 l 665 1303 l 765 1303 l 602 1177 l 513 1177 z "},"Ệ":{"ha":756,"x_min":98,"x_max":658,"o":"m 163 920 l 217 988 l 217 525 l 188 566 l 581 566 l 581 462 l 188 462 l 217 503 l 217 37 l 163 104 l 658 104 l 658 0 l 98 0 l 98 1024 l 658 1024 l 658 920 l 163 920 m 399 -237 q 343 -219 367 -237 q 319 -169 319 -201 q 343 -119 319 -137 q 399 -101 367 -101 q 455 -119 431 -101 q 478 -169 478 -137 q 455 -219 478 -201 q 399 -237 431 -237 m 192 1076 l 340 1200 l 432 1200 l 581 1076 l 490 1076 l 369 1181 l 403 1181 l 281 1076 l 192 1076 z "},"Ề":{"ha":756,"x_min":98,"x_max":663,"o":"m 163 920 l 217 988 l 217 525 l 188 566 l 581 566 l 581 462 l 188 462 l 217 503 l 217 37 l 163 104 l 658 104 l 658 0 l 98 0 l 98 1024 l 658 1024 l 658 920 l 163 920 m 192 1076 l 340 1200 l 433 1200 l 581 1076 l 491 1076 l 369 1181 l 404 1181 l 281 1076 l 192 1076 m 663 1177 l 574 1177 l 412 1303 l 512 1303 l 663 1177 z "},"Ể":{"ha":756,"x_min":98,"x_max":695,"o":"m 163 920 l 217 988 l 217 525 l 188 566 l 581 566 l 581 462 l 188 462 l 217 503 l 217 37 l 163 104 l 658 104 l 658 0 l 98 0 l 98 1024 l 658 1024 l 658 920 l 163 920 m 192 1076 l 340 1200 l 433 1200 l 581 1076 l 491 1076 l 369 1181 l 404 1181 l 281 1076 l 192 1076 m 442 1343 q 574 1338 517 1343 q 663 1315 631 1332 q 695 1262 695 1297 q 672 1211 695 1231 q 611 1184 649 1192 q 531 1175 574 1175 l 516 1213 q 568 1217 541 1213 q 613 1231 594 1222 q 631 1258 631 1241 q 580 1292 631 1285 q 442 1299 528 1299 l 442 1343 z "},"Ễ":{"ha":756,"x_min":98,"x_max":658,"o":"m 163 920 l 217 988 l 217 525 l 188 566 l 581 566 l 581 462 l 188 462 l 217 503 l 217 37 l 163 104 l 658 104 l 658 0 l 98 0 l 98 1024 l 658 1024 l 658 920 l 163 920 m 192 1076 l 340 1200 l 432 1200 l 581 1076 l 490 1076 l 369 1181 l 403 1181 l 281 1076 l 192 1076 m 589 1359 q 577 1312 588 1338 q 541 1267 565 1286 q 476 1247 517 1247 q 422 1260 445 1247 q 381 1286 399 1273 q 349 1307 366 1297 q 310 1317 332 1317 q 271 1300 281 1317 q 259 1266 260 1283 l 190 1266 q 205 1315 191 1289 q 244 1361 218 1342 q 310 1380 271 1380 q 364 1368 342 1380 q 401 1343 385 1356 q 435 1320 418 1331 q 472 1310 453 1310 q 510 1326 501 1310 q 520 1359 519 1342 l 589 1359 z "},"Ȅ":{"ha":756,"x_min":98,"x_max":658,"o":"m 163 920 l 217 988 l 217 525 l 188 566 l 581 566 l 581 462 l 188 462 l 217 503 l 217 37 l 163 104 l 658 104 l 658 0 l 98 0 l 98 1024 l 658 1024 l 658 920 l 163 920 m 538 1076 l 461 1076 l 322 1203 l 413 1203 l 538 1076 m 325 1076 l 248 1076 l 101 1203 l 192 1203 l 325 1076 z "},"Ë":{"ha":756,"x_min":98,"x_max":658,"o":"m 163 920 l 217 988 l 217 525 l 188 566 l 581 566 l 581 462 l 188 462 l 217 503 l 217 37 l 163 104 l 658 104 l 658 0 l 98 0 l 98 1024 l 658 1024 l 658 920 l 163 920 m 251 1084 q 199 1101 222 1084 q 176 1149 176 1119 q 199 1195 176 1178 q 251 1213 222 1213 q 304 1195 282 1213 q 326 1149 326 1178 q 304 1101 326 1119 q 251 1084 282 1084 m 522 1084 q 469 1101 492 1084 q 447 1149 447 1119 q 469 1195 447 1178 q 522 1213 492 1213 q 574 1195 552 1213 q 597 1149 597 1178 q 574 1101 597 1119 q 522 1084 552 1084 z "},"Ė":{"ha":756,"x_min":98,"x_max":658,"o":"m 163 920 l 217 988 l 217 525 l 188 566 l 581 566 l 581 462 l 188 462 l 217 503 l 217 37 l 163 104 l 658 104 l 658 0 l 98 0 l 98 1024 l 658 1024 l 658 920 l 163 920 m 388 1091 q 332 1109 356 1091 q 308 1159 308 1128 q 332 1209 308 1191 q 388 1227 356 1227 q 444 1209 420 1227 q 467 1159 467 1191 q 444 1109 467 1127 q 388 1091 420 1091 z "},"Ẹ":{"ha":756,"x_min":98,"x_max":658,"o":"m 163 920 l 217 988 l 217 525 l 188 566 l 581 566 l 581 462 l 188 462 l 217 503 l 217 37 l 163 104 l 658 104 l 658 0 l 98 0 l 98 1024 l 658 1024 l 658 920 l 163 920 m 399 -237 q 343 -219 367 -237 q 319 -169 319 -201 q 343 -119 319 -137 q 399 -101 367 -101 q 455 -119 431 -101 q 478 -169 478 -137 q 455 -219 478 -201 q 399 -237 431 -237 z "},"È":{"ha":756,"x_min":98,"x_max":658,"o":"m 163 920 l 217 988 l 217 525 l 188 566 l 581 566 l 581 462 l 188 462 l 217 503 l 217 37 l 163 104 l 658 104 l 658 0 l 98 0 l 98 1024 l 658 1024 l 658 920 l 163 920 m 476 1077 l 369 1077 l 165 1203 l 281 1203 l 476 1077 z "},"Ẻ":{"ha":756,"x_min":98,"x_max":658,"o":"m 163 920 l 217 988 l 217 525 l 188 566 l 581 566 l 581 462 l 188 462 l 217 503 l 217 37 l 163 104 l 658 104 l 658 0 l 98 0 l 98 1024 l 658 1024 l 658 920 l 163 920 m 242 1224 q 374 1218 317 1224 q 463 1195 431 1213 q 494 1142 494 1178 q 471 1092 494 1111 q 410 1064 448 1073 q 331 1056 373 1056 l 315 1093 q 367 1098 340 1094 q 412 1112 394 1102 q 431 1138 431 1122 q 379 1173 431 1166 q 242 1180 328 1180 l 242 1224 z "},"Ȇ":{"ha":756,"x_min":98,"x_max":658,"o":"m 163 920 l 217 988 l 217 525 l 188 566 l 581 566 l 581 462 l 188 462 l 217 503 l 217 37 l 163 104 l 658 104 l 658 0 l 98 0 l 98 1024 l 658 1024 l 658 920 l 163 920 m 219 1068 q 267 1153 219 1121 q 386 1185 315 1185 q 505 1153 457 1185 q 553 1068 553 1121 l 479 1068 q 454 1115 479 1095 q 386 1134 429 1134 q 318 1115 344 1134 q 293 1068 293 1095 l 219 1068 z "},"Ē":{"ha":756,"x_min":98,"x_max":658,"o":"m 163 920 l 217 988 l 217 525 l 188 566 l 581 566 l 581 462 l 188 462 l 217 503 l 217 37 l 163 104 l 658 104 l 658 0 l 98 0 l 98 1024 l 658 1024 l 658 920 l 163 920 m 206 1118 l 206 1172 l 565 1172 l 565 1118 l 206 1118 z "},"Ḗ":{"ha":756,"x_min":98,"x_max":658,"o":"m 163 920 l 217 988 l 217 525 l 188 566 l 581 566 l 581 462 l 188 462 l 217 503 l 217 37 l 163 104 l 658 104 l 658 0 l 98 0 l 98 1024 l 658 1024 l 658 920 l 163 920 m 206 1118 l 206 1172 l 565 1172 l 565 1118 l 206 1118 m 301 1224 l 497 1350 l 613 1350 l 408 1224 l 301 1224 z "},"Ḕ":{"ha":756,"x_min":98,"x_max":658,"o":"m 163 920 l 217 988 l 217 525 l 188 566 l 581 566 l 581 462 l 188 462 l 217 503 l 217 37 l 163 104 l 658 104 l 658 0 l 98 0 l 98 1024 l 658 1024 l 658 920 l 163 920 m 206 1118 l 206 1172 l 565 1172 l 565 1118 l 206 1118 m 476 1224 l 369 1224 l 165 1350 l 281 1350 l 476 1224 z "},"Ę":{"ha":756,"x_min":98,"x_max":658,"o":"m 163 920 l 217 988 l 217 525 l 188 566 l 581 566 l 581 462 l 188 462 l 217 503 l 217 37 l 163 104 l 658 104 l 658 0 l 98 0 l 98 1024 l 658 1024 l 658 920 l 163 920 m 658 -233 l 658 -295 q 627 -299 644 -297 q 593 -300 610 -300 q 526 -289 556 -300 q 477 -255 495 -278 q 459 -195 459 -232 q 480 -123 459 -160 q 531 -54 500 -87 q 590 0 561 -22 l 658 0 q 603 -55 633 -22 q 551 -120 573 -87 q 530 -180 530 -153 q 549 -224 530 -210 q 601 -238 569 -238 q 630 -236 615 -238 q 658 -233 646 -235 z "},"Ẽ":{"ha":756,"x_min":98,"x_max":658,"o":"m 163 920 l 217 988 l 217 525 l 188 566 l 581 566 l 581 462 l 188 462 l 217 503 l 217 37 l 163 104 l 658 104 l 658 0 l 98 0 l 98 1024 l 658 1024 l 658 920 l 163 920 m 589 1183 q 577 1136 588 1163 q 541 1091 565 1110 q 476 1072 517 1072 q 422 1084 445 1072 q 381 1110 399 1097 q 349 1131 366 1122 q 310 1141 332 1141 q 271 1124 281 1141 q 259 1090 260 1108 l 190 1090 q 205 1140 191 1113 q 244 1185 218 1166 q 310 1204 271 1204 q 364 1192 342 1204 q 401 1167 385 1180 q 435 1144 418 1155 q 472 1134 453 1134 q 510 1150 501 1134 q 520 1183 519 1166 l 589 1183 z "},"Ʒ":{"ha":794,"x_min":91,"x_max":687,"o":"m 394 -14 q 253 9 311 -14 q 160 76 196 33 q 108 178 124 119 q 91 312 91 238 q 91 313 91 313 q 91 315 91 314 l 210 315 q 210 313 210 314 q 210 312 210 313 q 259 139 210 187 q 395 90 308 90 q 521 140 475 90 q 567 298 567 189 q 544 403 567 367 q 470 453 520 440 q 342 467 420 467 l 285 467 l 544 920 l 109 920 l 109 1024 l 682 1024 l 682 928 l 464 568 q 594 533 546 568 q 665 438 643 499 q 687 301 687 378 q 655 135 687 206 q 559 25 624 65 q 394 -14 494 -14 z "},"Ǯ":{"ha":794,"x_min":91,"x_max":687,"o":"m 394 -14 q 253 9 311 -14 q 160 76 196 33 q 108 178 124 119 q 91 312 91 238 q 91 313 91 313 q 91 315 91 314 l 210 315 q 210 313 210 314 q 210 312 210 313 q 259 139 210 187 q 395 90 308 90 q 521 140 475 90 q 567 298 567 189 q 544 403 567 367 q 470 453 520 440 q 342 467 420 467 l 285 467 l 544 920 l 109 920 l 109 1024 l 682 1024 l 682 928 l 464 568 q 594 533 546 568 q 665 438 643 499 q 687 301 687 378 q 655 135 687 206 q 559 25 624 65 q 394 -14 494 -14 m 203 1200 l 292 1200 l 415 1095 l 380 1095 l 501 1200 l 592 1200 l 443 1076 l 351 1076 l 203 1200 z "},"F":{"ha":721,"x_min":98,"x_max":654,"o":"m 163 920 l 216 988 l 216 519 l 178 557 l 592 557 l 592 453 l 178 453 l 216 492 l 216 0 l 98 0 l 98 1024 l 654 1024 l 654 920 l 163 920 z "},"G":{"ha":949,"x_min":70,"x_max":851,"o":"m 483 -14 q 275 49 369 -14 q 126 228 181 111 q 70 511 70 346 q 126 794 70 676 q 279 974 183 911 q 494 1037 375 1037 q 659 1003 592 1037 q 770 916 727 969 q 832 804 813 863 q 851 692 851 744 q 851 688 851 690 q 851 684 851 686 l 736 684 q 736 688 736 686 q 736 692 736 690 q 722 776 736 734 q 678 852 708 818 q 602 908 648 887 q 494 928 557 928 q 341 883 410 928 q 231 744 272 837 q 190 511 190 651 q 213 325 190 403 q 276 194 235 246 q 370 118 316 143 q 486 93 424 93 q 622 122 569 93 q 704 193 675 150 q 742 277 733 235 l 742 385 l 491 385 l 491 484 l 849 484 l 849 0 l 760 0 l 754 114 q 731 83 749 103 q 682 40 714 62 q 601 2 651 17 q 483 -14 552 -14 z "},"Ğ":{"ha":949,"x_min":70,"x_max":851,"o":"m 483 -14 q 275 49 369 -14 q 126 228 181 111 q 70 511 70 346 q 126 794 70 676 q 279 974 183 911 q 494 1037 375 1037 q 659 1003 592 1037 q 770 916 727 969 q 832 804 813 863 q 851 692 851 744 q 851 688 851 690 q 851 684 851 686 l 736 684 q 736 688 736 686 q 736 692 736 690 q 722 776 736 734 q 678 852 708 818 q 602 908 648 887 q 494 928 557 928 q 341 883 410 928 q 231 744 272 837 q 190 511 190 651 q 213 325 190 403 q 276 194 235 246 q 370 118 316 143 q 486 93 424 93 q 622 122 569 93 q 704 193 675 150 q 742 277 733 235 l 742 385 l 491 385 l 491 484 l 849 484 l 849 0 l 760 0 l 754 114 q 731 83 749 103 q 682 40 714 62 q 601 2 651 17 q 483 -14 552 -14 m 327 1187 l 401 1187 q 426 1138 401 1159 q 494 1117 451 1117 q 561 1138 537 1117 q 586 1187 586 1159 l 661 1187 q 613 1100 661 1134 q 494 1065 565 1065 q 375 1100 423 1065 q 327 1187 327 1134 z "},"Ǧ":{"ha":949,"x_min":70,"x_max":851,"o":"m 483 -14 q 275 49 369 -14 q 126 228 181 111 q 70 511 70 346 q 126 794 70 676 q 279 974 183 911 q 494 1037 375 1037 q 659 1003 592 1037 q 770 916 727 969 q 832 804 813 863 q 851 692 851 744 q 851 688 851 690 q 851 684 851 686 l 736 684 q 736 688 736 686 q 736 692 736 690 q 722 776 736 734 q 678 852 708 818 q 602 908 648 887 q 494 928 557 928 q 341 883 410 928 q 231 744 272 837 q 190 511 190 651 q 213 325 190 403 q 276 194 235 246 q 370 118 316 143 q 486 93 424 93 q 622 122 569 93 q 704 193 675 150 q 742 277 733 235 l 742 385 l 491 385 l 491 484 l 849 484 l 849 0 l 760 0 l 754 114 q 731 83 749 103 q 682 40 714 62 q 601 2 651 17 q 483 -14 552 -14 m 299 1200 l 388 1200 l 511 1095 l 476 1095 l 598 1200 l 688 1200 l 540 1076 l 447 1076 l 299 1200 z "},"Ĝ":{"ha":949,"x_min":70,"x_max":851,"o":"m 483 -14 q 275 49 369 -14 q 126 228 181 111 q 70 511 70 346 q 126 794 70 676 q 279 974 183 911 q 494 1037 375 1037 q 659 1003 592 1037 q 770 916 727 969 q 832 804 813 863 q 851 692 851 744 q 851 688 851 690 q 851 684 851 686 l 736 684 q 736 688 736 686 q 736 692 736 690 q 722 776 736 734 q 678 852 708 818 q 602 908 648 887 q 494 928 557 928 q 341 883 410 928 q 231 744 272 837 q 190 511 190 651 q 213 325 190 403 q 276 194 235 246 q 370 118 316 143 q 486 93 424 93 q 622 122 569 93 q 704 193 675 150 q 742 277 733 235 l 742 385 l 491 385 l 491 484 l 849 484 l 849 0 l 760 0 l 754 114 q 731 83 749 103 q 682 40 714 62 q 601 2 651 17 q 483 -14 552 -14 m 299 1076 l 447 1200 l 540 1200 l 688 1076 l 598 1076 l 476 1181 l 511 1181 l 388 1076 l 299 1076 z "},"Ģ":{"ha":949,"x_min":70,"x_max":851,"o":"m 483 -14 q 275 49 369 -14 q 126 228 181 111 q 70 511 70 346 q 126 794 70 676 q 279 974 183 911 q 494 1037 375 1037 q 659 1003 592 1037 q 770 916 727 969 q 832 804 813 863 q 851 692 851 744 q 851 688 851 690 q 851 684 851 686 l 736 684 q 736 688 736 686 q 736 692 736 690 q 722 776 736 734 q 678 852 708 818 q 602 908 648 887 q 494 928 557 928 q 341 883 410 928 q 231 744 272 837 q 190 511 190 651 q 213 325 190 403 q 276 194 235 246 q 370 118 316 143 q 486 93 424 93 q 622 122 569 93 q 704 193 675 150 q 742 277 733 235 l 742 385 l 491 385 l 491 484 l 849 484 l 849 0 l 760 0 l 754 114 q 731 83 749 103 q 682 40 714 62 q 601 2 651 17 q 483 -14 552 -14 m 480 -168 q 440 -154 456 -168 q 424 -117 424 -140 q 444 -76 424 -90 q 490 -62 464 -62 q 522 -69 506 -62 q 548 -90 538 -76 q 558 -130 558 -105 q 541 -211 558 -176 q 499 -268 524 -245 q 449 -304 474 -291 l 438 -280 q 477 -253 457 -271 q 510 -209 497 -235 q 523 -151 523 -183 q 507 -163 519 -158 q 480 -168 494 -168 z "},"Ġ":{"ha":949,"x_min":70,"x_max":851,"o":"m 483 -14 q 275 49 369 -14 q 126 228 181 111 q 70 511 70 346 q 126 794 70 676 q 279 974 183 911 q 494 1037 375 1037 q 659 1003 592 1037 q 770 916 727 969 q 832 804 813 863 q 851 692 851 744 q 851 688 851 690 q 851 684 851 686 l 736 684 q 736 688 736 686 q 736 692 736 690 q 722 776 736 734 q 678 852 708 818 q 602 908 648 887 q 494 928 557 928 q 341 883 410 928 q 231 744 272 837 q 190 511 190 651 q 213 325 190 403 q 276 194 235 246 q 370 118 316 143 q 486 93 424 93 q 622 122 569 93 q 704 193 675 150 q 742 277 733 235 l 742 385 l 491 385 l 491 484 l 849 484 l 849 0 l 760 0 l 754 114 q 731 83 749 103 q 682 40 714 62 q 601 2 651 17 q 483 -14 552 -14 m 495 1091 q 439 1109 463 1091 q 415 1159 415 1128 q 439 1209 415 1191 q 495 1227 463 1227 q 551 1209 528 1227 q 575 1159 575 1191 q 551 1109 575 1127 q 495 1091 528 1091 z "},"Ḡ":{"ha":949,"x_min":70,"x_max":851,"o":"m 483 -14 q 275 49 369 -14 q 126 228 181 111 q 70 511 70 346 q 126 794 70 676 q 279 974 183 911 q 494 1037 375 1037 q 659 1003 592 1037 q 770 916 727 969 q 832 804 813 863 q 851 692 851 744 q 851 688 851 690 q 851 684 851 686 l 736 684 q 736 688 736 686 q 736 692 736 690 q 722 776 736 734 q 678 852 708 818 q 602 908 648 887 q 494 928 557 928 q 341 883 410 928 q 231 744 272 837 q 190 511 190 651 q 213 325 190 403 q 276 194 235 246 q 370 118 316 143 q 486 93 424 93 q 622 122 569 93 q 704 193 675 150 q 742 277 733 235 l 742 385 l 491 385 l 491 484 l 849 484 l 849 0 l 760 0 l 754 114 q 731 83 749 103 q 682 40 714 62 q 601 2 651 17 q 483 -14 552 -14 m 313 1118 l 313 1172 l 673 1172 l 673 1118 l 313 1118 z "},"Ǥ":{"ha":930,"x_min":70,"x_max":919,"o":"m 476 226 l 476 303 l 919 303 l 919 226 l 476 226 m 469 -14 q 265 49 355 -14 q 122 228 174 111 q 70 511 70 346 q 123 794 70 676 q 268 974 176 911 q 481 1037 361 1037 q 645 1003 578 1037 q 756 916 713 969 q 818 804 799 863 q 838 692 838 744 q 838 688 838 690 q 838 684 838 686 l 722 684 q 722 688 722 686 q 722 692 722 690 q 708 776 722 734 q 664 852 694 818 q 589 908 634 887 q 481 928 543 928 q 331 883 397 928 q 227 744 265 837 q 190 511 190 651 q 210 325 190 403 q 268 194 231 246 q 358 118 306 143 q 472 93 410 93 q 608 122 555 93 q 690 193 661 150 q 728 277 719 235 l 728 385 l 477 385 l 477 484 l 835 484 l 835 0 l 747 0 l 740 114 q 717 83 735 103 q 668 40 700 62 q 588 2 637 17 q 469 -14 538 -14 z "},"H":{"ha":891,"x_min":98,"x_max":793,"o":"m 793 1024 l 793 0 l 674 0 l 674 518 l 728 459 l 163 459 l 217 518 l 217 0 l 98 0 l 98 1024 l 217 1024 l 217 501 l 163 563 l 728 563 l 674 501 l 674 1024 l 793 1024 z "},"Ħ":{"ha":891,"x_min":32,"x_max":858,"o":"m 32 752 l 32 842 l 858 842 l 858 752 l 32 752 m 793 1024 l 793 0 l 674 0 l 674 518 l 728 459 l 163 459 l 217 518 l 217 0 l 98 0 l 98 1024 l 217 1024 l 217 501 l 163 563 l 728 563 l 674 501 l 674 1024 l 793 1024 z "},"Ḫ":{"ha":891,"x_min":98,"x_max":793,"o":"m 793 1024 l 793 0 l 674 0 l 674 518 l 728 459 l 163 459 l 217 518 l 217 0 l 98 0 l 98 1024 l 217 1024 l 217 501 l 163 563 l 728 563 l 674 501 l 674 1024 l 793 1024 m 278 -87 l 352 -87 q 377 -153 352 -130 q 445 -176 403 -176 q 513 -153 488 -176 q 538 -87 538 -130 l 612 -87 q 564 -192 612 -156 q 445 -227 516 -227 q 326 -192 374 -227 q 278 -87 278 -156 z "},"Ĥ":{"ha":891,"x_min":98,"x_max":793,"o":"m 793 1024 l 793 0 l 674 0 l 674 518 l 728 459 l 163 459 l 217 518 l 217 0 l 98 0 l 98 1024 l 217 1024 l 217 501 l 163 563 l 728 563 l 674 501 l 674 1024 l 793 1024 m 251 1076 l 399 1200 l 491 1200 l 640 1076 l 549 1076 l 428 1181 l 463 1181 l 340 1076 l 251 1076 z "},"Ḥ":{"ha":891,"x_min":98,"x_max":793,"o":"m 793 1024 l 793 0 l 674 0 l 674 518 l 728 459 l 163 459 l 217 518 l 217 0 l 98 0 l 98 1024 l 217 1024 l 217 501 l 163 563 l 728 563 l 674 501 l 674 1024 l 793 1024 m 445 -237 q 389 -219 413 -237 q 365 -169 365 -201 q 389 -119 365 -137 q 445 -101 413 -101 q 501 -119 477 -101 q 525 -169 525 -137 q 501 -219 525 -201 q 445 -237 477 -237 z "},"I":{"ha":322,"x_min":103,"x_max":219,"o":"m 103 0 l 103 1024 l 219 1024 l 219 0 l 103 0 z "},"Í":{"ha":322,"x_min":76,"x_max":388,"o":"m 103 0 l 103 1024 l 219 1024 l 219 0 l 103 0 m 76 1077 l 272 1203 l 388 1203 l 184 1077 l 76 1077 z "},"Ĭ":{"ha":322,"x_min":-5,"x_max":329,"o":"m 103 0 l 103 1024 l 219 1024 l 219 0 l 103 0 m -5 1187 l 69 1187 q 94 1138 69 1159 q 162 1117 119 1117 q 230 1138 205 1117 q 254 1187 254 1159 l 329 1187 q 281 1100 329 1134 q 162 1065 233 1065 q 43 1100 91 1065 q -5 1187 -5 1134 z "},"Ǐ":{"ha":322,"x_min":-33,"x_max":356,"o":"m 103 0 l 103 1024 l 219 1024 l 219 0 l 103 0 m -33 1200 l 56 1200 l 179 1095 l 144 1095 l 266 1200 l 356 1200 l 208 1076 l 115 1076 l -33 1200 z "},"Î":{"ha":322,"x_min":-33,"x_max":356,"o":"m 103 0 l 103 1024 l 219 1024 l 219 0 l 103 0 m -33 1076 l 115 1200 l 208 1200 l 356 1076 l 266 1076 l 144 1181 l 179 1181 l 56 1076 l -33 1076 z "},"Ȉ":{"ha":322,"x_min":-124,"x_max":313,"o":"m 103 0 l 103 1024 l 219 1024 l 219 0 l 103 0 m 313 1076 l 237 1076 l 97 1203 l 188 1203 l 313 1076 m 101 1076 l 24 1076 l -124 1203 l -32 1203 l 101 1076 z "},"Ï":{"ha":322,"x_min":-8,"x_max":333,"o":"m 103 0 l 103 1024 l 219 1024 l 219 0 l 103 0 m 67 1087 q 15 1104 38 1087 q -8 1151 -8 1122 q 15 1198 -8 1181 q 67 1215 38 1215 q 119 1198 97 1215 q 142 1151 142 1181 q 119 1104 142 1122 q 67 1087 97 1087 m 258 1087 q 206 1104 228 1087 q 183 1151 183 1122 q 206 1198 183 1181 q 258 1215 228 1215 q 310 1198 288 1215 q 333 1151 333 1181 q 310 1104 333 1122 q 258 1087 288 1087 z "},"Ḯ":{"ha":322,"x_min":-8,"x_max":390,"o":"m 103 0 l 103 1024 l 219 1024 l 219 0 l 103 0 m 67 1087 q 15 1104 38 1087 q -8 1151 -8 1122 q 15 1198 -8 1181 q 67 1215 38 1215 q 119 1198 97 1215 q 142 1151 142 1181 q 119 1104 142 1122 q 67 1087 97 1087 m 258 1087 q 206 1104 228 1087 q 183 1151 183 1122 q 206 1198 183 1181 q 258 1215 228 1215 q 310 1198 288 1215 q 333 1151 333 1181 q 310 1104 333 1122 q 258 1087 288 1087 m 78 1260 l 274 1386 l 390 1386 l 186 1260 l 78 1260 z "},"İ":{"ha":322,"x_min":83,"x_max":243,"o":"m 103 0 l 103 1024 l 219 1024 l 219 0 l 103 0 m 163 1091 q 107 1109 131 1091 q 83 1159 83 1128 q 107 1209 83 1191 q 163 1227 131 1227 q 219 1209 196 1227 q 243 1159 243 1191 q 219 1109 243 1127 q 163 1091 196 1091 z "},"Ị":{"ha":322,"x_min":81,"x_max":241,"o":"m 103 0 l 103 1024 l 219 1024 l 219 0 l 103 0 m 161 -237 q 105 -219 129 -237 q 81 -169 81 -201 q 105 -119 81 -137 q 161 -101 129 -101 q 217 -119 193 -101 q 241 -169 241 -137 q 217 -219 241 -201 q 161 -237 193 -237 z "},"Ì":{"ha":322,"x_min":-60,"x_max":252,"o":"m 103 0 l 103 1024 l 219 1024 l 219 0 l 103 0 m 252 1077 l 144 1077 l -60 1203 l 56 1203 l 252 1077 z "},"Ỉ":{"ha":322,"x_min":17,"x_max":270,"o":"m 103 0 l 103 1024 l 219 1024 l 219 0 l 103 0 m 17 1224 q 149 1218 92 1224 q 238 1195 206 1213 q 270 1142 270 1178 q 247 1092 270 1111 q 186 1064 224 1073 q 106 1056 149 1056 l 91 1093 q 143 1098 116 1094 q 188 1112 169 1102 q 206 1138 206 1122 q 155 1173 206 1166 q 17 1180 103 1180 l 17 1224 z "},"Ȋ":{"ha":322,"x_min":-5,"x_max":329,"o":"m 103 0 l 103 1024 l 219 1024 l 219 0 l 103 0 m -5 1068 q 43 1153 -5 1121 q 162 1185 91 1185 q 281 1153 233 1185 q 329 1068 329 1121 l 255 1068 q 230 1115 255 1095 q 162 1134 205 1134 q 94 1115 119 1134 q 69 1068 69 1095 l -5 1068 z "},"Ī":{"ha":322,"x_min":-19,"x_max":341,"o":"m 103 0 l 103 1024 l 219 1024 l 219 0 l 103 0 m -19 1118 l -19 1172 l 341 1172 l 341 1118 l -19 1118 z "},"Į":{"ha":322,"x_min":21,"x_max":219,"o":"m 103 0 l 103 1024 l 219 1024 l 219 0 l 103 0 m 219 -233 l 219 -295 q 189 -299 206 -297 q 155 -300 172 -300 q 88 -289 118 -300 q 39 -255 57 -278 q 21 -195 21 -232 q 41 -123 21 -160 q 92 -54 62 -87 q 151 0 123 -22 l 219 0 q 165 -55 194 -22 q 113 -120 135 -87 q 92 -180 92 -153 q 111 -224 92 -210 q 163 -238 131 -238 q 192 -236 176 -238 q 219 -233 208 -235 z "},"Ĩ":{"ha":322,"x_min":-35,"x_max":365,"o":"m 103 0 l 103 1024 l 219 1024 l 219 0 l 103 0 m 365 1183 q 352 1136 364 1163 q 317 1091 341 1110 q 252 1072 292 1072 q 198 1084 221 1072 q 157 1110 175 1097 q 125 1131 142 1122 q 85 1141 108 1141 q 47 1124 57 1141 q 35 1090 36 1108 l -35 1090 q -20 1140 -33 1113 q 20 1185 -6 1166 q 85 1204 47 1204 q 139 1192 117 1204 q 177 1167 161 1180 q 211 1144 194 1155 q 248 1134 228 1134 q 285 1150 276 1134 q 296 1183 294 1166 l 365 1183 z "},"J":{"ha":752,"x_min":57,"x_max":654,"o":"m 356 -14 q 184 28 250 -14 q 88 145 118 70 q 57 322 57 221 q 57 342 57 332 q 57 362 57 352 l 174 362 q 174 348 174 356 q 174 333 174 341 q 192 208 174 263 q 250 124 210 154 q 356 93 290 93 q 460 124 421 93 q 518 211 500 154 q 536 344 536 267 l 536 1024 l 654 1024 l 654 329 q 638 192 654 255 q 587 84 622 130 q 495 12 552 38 q 356 -14 438 -14 z "},"Ĵ":{"ha":752,"x_min":57,"x_max":789,"o":"m 356 -14 q 184 28 250 -14 q 88 145 118 70 q 57 322 57 221 q 57 342 57 332 q 57 362 57 352 l 174 362 q 174 348 174 356 q 174 333 174 341 q 192 208 174 263 q 250 124 210 154 q 356 93 290 93 q 460 124 421 93 q 518 211 500 154 q 536 344 536 267 l 536 1024 l 654 1024 l 654 329 q 638 192 654 255 q 587 84 622 130 q 495 12 552 38 q 356 -14 438 -14 m 400 1076 l 548 1200 l 640 1200 l 789 1076 l 699 1076 l 577 1181 l 612 1181 l 489 1076 l 400 1076 z "},"K":{"ha":815,"x_min":98,"x_max":766,"o":"m 353 519 l 356 610 l 766 0 l 632 0 l 282 518 l 343 510 l 204 328 l 217 406 l 217 0 l 98 0 l 98 1024 l 217 1024 l 217 461 l 193 486 l 611 1024 l 741 1024 l 353 519 z "},"Ǩ":{"ha":815,"x_min":98,"x_max":766,"o":"m 353 519 l 356 610 l 766 0 l 632 0 l 282 518 l 343 510 l 204 328 l 217 406 l 217 0 l 98 0 l 98 1024 l 217 1024 l 217 461 l 193 486 l 611 1024 l 741 1024 l 353 519 m 233 1200 l 322 1200 l 445 1095 l 410 1095 l 532 1200 l 622 1200 l 474 1076 l 381 1076 l 233 1200 z "},"Ķ":{"ha":815,"x_min":98,"x_max":766,"o":"m 353 519 l 356 610 l 766 0 l 632 0 l 282 518 l 343 510 l 204 328 l 217 406 l 217 0 l 98 0 l 98 1024 l 217 1024 l 217 461 l 193 486 l 611 1024 l 741 1024 l 353 519 m 407 -168 q 367 -154 383 -168 q 351 -117 351 -140 q 371 -76 351 -90 q 417 -62 391 -62 q 449 -69 433 -62 q 475 -90 465 -76 q 485 -130 485 -105 q 468 -211 485 -176 q 426 -268 451 -245 q 376 -304 401 -291 l 365 -280 q 404 -253 384 -271 q 437 -209 424 -235 q 450 -151 450 -183 q 434 -163 447 -158 q 407 -168 421 -168 z "},"L":{"ha":681,"x_min":98,"x_max":621,"o":"m 98 0 l 98 1024 l 217 1024 l 217 37 l 163 104 l 621 104 l 621 0 l 98 0 z "},"Ǉ":{"ha":1399,"x_min":98,"x_max":1301,"o":"m 98 0 l 98 1024 l 217 1024 l 217 37 l 163 104 l 621 104 l 621 0 l 98 0 m 1002 -14 q 831 28 897 -14 q 734 145 765 70 q 703 322 703 221 q 703 342 703 332 q 703 362 703 352 l 820 362 q 820 348 820 356 q 820 333 820 341 q 838 208 820 263 q 896 124 856 154 q 1002 93 936 93 q 1107 124 1067 93 q 1165 211 1147 154 q 1183 344 1183 267 l 1183 1024 l 1301 1024 l 1301 329 q 1285 192 1301 255 q 1234 84 1269 130 q 1142 12 1199 38 q 1002 -14 1085 -14 z "},"Ĺ":{"ha":681,"x_min":71,"x_max":621,"o":"m 98 0 l 98 1024 l 217 1024 l 217 37 l 163 104 l 621 104 l 621 0 l 98 0 m 71 1077 l 267 1203 l 383 1203 l 178 1077 l 71 1077 z "},"Ľ":{"ha":681,"x_min":98,"x_max":621,"o":"m 98 0 l 98 1024 l 217 1024 l 217 37 l 163 104 l 621 104 l 621 0 l 98 0 m 570 1024 q 565 917 570 972 q 552 818 559 861 q 542 757 546 774 l 481 757 q 489 817 485 775 q 497 915 494 860 q 500 1024 500 969 l 570 1024 z "},"Ļ":{"ha":681,"x_min":98,"x_max":621,"o":"m 98 0 l 98 1024 l 217 1024 l 217 37 l 163 104 l 621 104 l 621 0 l 98 0 m 363 -168 q 323 -154 339 -168 q 307 -117 307 -140 q 327 -76 307 -90 q 373 -62 347 -62 q 405 -69 390 -62 q 431 -90 421 -76 q 442 -130 442 -105 q 425 -211 442 -176 q 383 -268 408 -245 q 332 -304 358 -291 l 321 -280 q 360 -253 340 -271 q 393 -209 380 -235 q 406 -151 406 -183 q 390 -163 403 -158 q 363 -168 377 -168 z "},"Ŀ":{"ha":681,"x_min":98,"x_max":621,"o":"m 98 0 l 98 1024 l 217 1024 l 217 37 l 163 104 l 621 104 l 621 0 l 98 0 m 498 481 q 441 504 464 481 q 417 561 417 527 q 441 618 417 594 q 498 642 464 642 q 555 618 531 642 q 578 561 578 594 q 555 504 578 527 q 498 481 531 481 z "},"Ḷ":{"ha":681,"x_min":98,"x_max":621,"o":"m 98 0 l 98 1024 l 217 1024 l 217 37 l 163 104 l 621 104 l 621 0 l 98 0 m 375 -237 q 319 -219 343 -237 q 295 -169 295 -201 q 319 -119 295 -137 q 375 -101 343 -101 q 431 -119 407 -101 q 455 -169 455 -137 q 431 -219 455 -201 q 375 -237 407 -237 z "},"ǈ":{"ha":1037,"x_min":98,"x_max":944,"o":"m 98 0 l 98 1024 l 217 1024 l 217 37 l 163 104 l 621 104 l 621 0 l 98 0 m 666 -310 q 630 -308 647 -310 q 603 -305 613 -307 l 603 -215 q 630 -219 613 -217 q 666 -222 647 -222 q 742 -207 714 -222 q 782 -169 769 -192 q 799 -118 795 -146 q 803 -62 803 -90 l 803 738 l 921 738 l 921 -67 q 912 -156 921 -113 q 878 -234 903 -199 q 801 -289 852 -269 q 666 -310 751 -310 m 865 907 q 808 925 832 907 q 784 976 784 944 q 808 1025 784 1007 q 865 1044 832 1044 q 921 1025 897 1044 q 944 976 944 1007 q 921 925 944 944 q 865 907 897 907 z "},"Ḻ":{"ha":681,"x_min":98,"x_max":621,"o":"m 98 0 l 98 1024 l 217 1024 l 217 37 l 163 104 l 621 104 l 621 0 l 98 0 m 176 -180 l 176 -126 l 574 -126 l 574 -180 l 176 -180 z "},"Ł":{"ha":719,"x_min":-6,"x_max":659,"o":"m 456 587 l 38 276 l -6 357 l 413 667 l 456 587 m 136 0 l 136 1024 l 255 1024 l 255 37 l 201 104 l 659 104 l 659 0 l 136 0 z "},"M":{"ha":1131,"x_min":110,"x_max":1021,"o":"m 817 1024 l 1021 1024 l 1021 0 l 908 0 l 908 930 l 912 928 l 651 0 l 481 0 l 219 929 l 222 931 l 222 0 l 110 0 l 110 1024 l 314 1024 l 565 95 l 564 95 l 817 1024 z "},"Ṃ":{"ha":1131,"x_min":110,"x_max":1021,"o":"m 817 1024 l 1021 1024 l 1021 0 l 908 0 l 908 930 l 912 928 l 651 0 l 481 0 l 219 929 l 222 931 l 222 0 l 110 0 l 110 1024 l 314 1024 l 565 95 l 564 95 l 817 1024 m 563 -237 q 507 -219 531 -237 q 483 -169 483 -201 q 507 -119 483 -137 q 563 -101 531 -101 q 618 -119 594 -101 q 642 -169 642 -137 q 618 -219 642 -201 q 563 -237 594 -237 z "},"N":{"ha":931,"x_min":98,"x_max":833,"o":"m 213 0 l 98 0 l 98 1024 l 292 1024 l 726 68 l 717 63 l 717 1024 l 833 1024 l 833 0 l 636 0 l 203 955 l 213 960 l 213 0 z "},"Ǌ":{"ha":1683,"x_min":98,"x_max":1585,"o":"m 213 0 l 98 0 l 98 1024 l 292 1024 l 726 68 l 717 63 l 717 1024 l 833 1024 l 833 0 l 636 0 l 203 955 l 213 960 l 213 0 m 1286 -14 q 1115 28 1181 -14 q 1018 145 1049 70 q 988 322 988 221 q 988 342 988 332 q 988 362 988 352 l 1104 362 q 1104 348 1104 356 q 1104 333 1104 341 q 1122 208 1104 263 q 1180 124 1140 154 q 1286 93 1220 93 q 1391 124 1351 93 q 1449 211 1431 154 q 1467 344 1467 267 l 1467 1024 l 1585 1024 l 1585 329 q 1569 192 1585 255 q 1518 84 1553 130 q 1426 12 1483 38 q 1286 -14 1369 -14 z "},"Ń":{"ha":931,"x_min":98,"x_max":833,"o":"m 213 0 l 98 0 l 98 1024 l 292 1024 l 726 68 l 717 63 l 717 1024 l 833 1024 l 833 0 l 636 0 l 203 955 l 213 960 l 213 0 m 386 1077 l 582 1203 l 698 1203 l 494 1077 l 386 1077 z "},"Ň":{"ha":931,"x_min":98,"x_max":833,"o":"m 213 0 l 98 0 l 98 1024 l 292 1024 l 726 68 l 717 63 l 717 1024 l 833 1024 l 833 0 l 636 0 l 203 955 l 213 960 l 213 0 m 277 1200 l 366 1200 l 489 1095 l 454 1095 l 576 1200 l 666 1200 l 517 1076 l 425 1076 l 277 1200 z "},"Ņ":{"ha":931,"x_min":98,"x_max":833,"o":"m 213 0 l 98 0 l 98 1024 l 292 1024 l 726 68 l 717 63 l 717 1024 l 833 1024 l 833 0 l 636 0 l 203 955 l 213 960 l 213 0 m 460 -168 q 419 -154 435 -168 q 403 -117 403 -140 q 424 -76 403 -90 q 469 -62 444 -62 q 502 -69 486 -62 q 528 -90 517 -76 q 538 -130 538 -105 q 521 -211 538 -176 q 479 -268 504 -245 q 428 -304 454 -291 l 417 -280 q 457 -253 437 -271 q 490 -209 476 -235 q 503 -151 503 -183 q 486 -163 499 -158 q 460 -168 474 -168 z "},"Ṅ":{"ha":931,"x_min":98,"x_max":833,"o":"m 213 0 l 98 0 l 98 1024 l 292 1024 l 726 68 l 717 63 l 717 1024 l 833 1024 l 833 0 l 636 0 l 203 955 l 213 960 l 213 0 m 473 1091 q 417 1109 441 1091 q 393 1159 393 1128 q 417 1209 393 1191 q 473 1227 441 1227 q 529 1209 506 1227 q 553 1159 553 1191 q 529 1109 553 1127 q 473 1091 506 1091 z "},"Ṇ":{"ha":931,"x_min":98,"x_max":833,"o":"m 213 0 l 98 0 l 98 1024 l 292 1024 l 726 68 l 717 63 l 717 1024 l 833 1024 l 833 0 l 636 0 l 203 955 l 213 960 l 213 0 m 472 -237 q 416 -219 440 -237 q 392 -169 392 -201 q 416 -119 392 -137 q 472 -101 440 -101 q 527 -119 503 -101 q 551 -169 551 -137 q 527 -219 551 -201 q 472 -237 503 -237 z "},"Ŋ":{"ha":931,"x_min":98,"x_max":833,"o":"m 542 -317 q 498 -315 519 -317 q 470 -309 478 -312 l 470 -222 q 501 -227 480 -224 q 543 -231 522 -231 q 625 -215 592 -231 q 678 -172 658 -199 q 707 -114 698 -146 q 715 -49 715 -81 l 715 0 l 651 0 l 205 940 l 213 943 l 213 0 l 98 0 l 98 1024 l 285 1024 l 733 78 l 717 76 l 717 1024 l 833 1024 l 833 -47 q 818 -156 833 -106 q 770 -242 803 -206 q 682 -298 738 -278 q 542 -317 626 -317 z "},"Ɲ":{"ha":931,"x_min":-57,"x_max":833,"o":"m -57 -323 l -57 -236 q 20 -218 -10 -235 q 68 -174 51 -201 q 91 -112 85 -146 q 98 -46 98 -79 l 98 1024 l 292 1024 l 726 72 l 717 69 l 717 1024 l 833 1024 l 833 0 l 637 0 l 205 947 l 213 950 l 213 -46 q 205 -141 213 -93 q 170 -231 197 -190 q 89 -297 143 -272 q -57 -323 35 -322 z "},"ǋ":{"ha":1252,"x_min":98,"x_max":1160,"o":"m 213 0 l 98 0 l 98 1024 l 292 1024 l 726 68 l 717 63 l 717 1024 l 833 1024 l 833 0 l 636 0 l 203 955 l 213 960 l 213 0 m 881 -310 q 845 -308 862 -310 q 819 -305 828 -307 l 819 -215 q 845 -219 828 -217 q 881 -222 863 -222 q 957 -207 929 -222 q 998 -169 985 -192 q 1014 -118 1010 -146 q 1018 -62 1018 -90 l 1018 738 l 1136 738 l 1136 -67 q 1127 -156 1136 -113 q 1093 -234 1119 -199 q 1017 -289 1067 -269 q 881 -310 966 -310 m 1080 907 q 1023 925 1047 907 q 999 976 999 944 q 1023 1025 999 1007 q 1080 1044 1047 1044 q 1136 1025 1113 1044 q 1160 976 1160 1007 q 1136 925 1160 944 q 1080 907 1113 907 z "},"Ṉ":{"ha":931,"x_min":98,"x_max":833,"o":"m 213 0 l 98 0 l 98 1024 l 292 1024 l 726 68 l 717 63 l 717 1024 l 833 1024 l 833 0 l 636 0 l 203 955 l 213 960 l 213 0 m 273 -180 l 273 -126 l 670 -126 l 670 -180 l 273 -180 z "},"Ñ":{"ha":931,"x_min":98,"x_max":833,"o":"m 213 0 l 98 0 l 98 1024 l 292 1024 l 726 68 l 717 63 l 717 1024 l 833 1024 l 833 0 l 636 0 l 203 955 l 213 960 l 213 0 m 674 1183 q 662 1136 674 1163 q 626 1091 651 1110 q 562 1072 602 1072 q 508 1084 531 1072 q 467 1110 485 1097 q 434 1131 451 1122 q 395 1141 417 1141 q 356 1124 367 1141 q 344 1090 346 1108 l 275 1090 q 290 1140 276 1113 q 330 1185 303 1166 q 395 1204 356 1204 q 449 1192 427 1204 q 487 1167 471 1180 q 521 1144 503 1155 q 558 1134 538 1134 q 595 1150 586 1134 q 606 1183 604 1166 l 674 1183 z "},"O":{"ha":960,"x_min":70,"x_max":890,"o":"m 480 -14 q 316 22 390 -14 q 186 125 241 57 q 100 290 131 192 q 70 513 70 388 q 100 736 70 638 q 186 900 131 833 q 316 1002 241 967 q 480 1037 391 1037 q 644 1002 569 1037 q 775 900 719 967 q 860 736 830 833 q 890 513 890 638 q 860 290 890 388 q 775 125 830 192 q 644 22 719 57 q 480 -14 569 -14 m 480 93 q 631 140 565 93 q 733 280 696 186 q 769 513 769 373 q 732 747 769 654 q 630 884 695 839 q 480 929 565 929 q 330 884 396 929 q 227 747 265 839 q 190 513 190 654 q 227 279 190 372 q 330 139 265 185 q 480 93 396 93 z "},"Ó":{"ha":960,"x_min":70,"x_max":890,"o":"m 480 -14 q 316 22 390 -14 q 186 125 241 57 q 100 290 131 192 q 70 513 70 388 q 100 736 70 638 q 186 900 131 833 q 316 1002 241 967 q 480 1037 391 1037 q 644 1002 569 1037 q 775 900 719 967 q 860 736 830 833 q 890 513 890 638 q 860 290 890 388 q 775 125 830 192 q 644 22 719 57 q 480 -14 569 -14 m 480 93 q 631 140 565 93 q 733 280 696 186 q 769 513 769 373 q 732 747 769 654 q 630 884 695 839 q 480 929 565 929 q 330 884 396 929 q 227 747 265 839 q 190 513 190 654 q 227 279 190 372 q 330 139 265 185 q 480 93 396 93 m 394 1077 l 590 1203 l 706 1203 l 502 1077 l 394 1077 z "},"Ŏ":{"ha":960,"x_min":70,"x_max":890,"o":"m 480 -14 q 316 22 390 -14 q 186 125 241 57 q 100 290 131 192 q 70 513 70 388 q 100 736 70 638 q 186 900 131 833 q 316 1002 241 967 q 480 1037 391 1037 q 644 1002 569 1037 q 775 900 719 967 q 860 736 830 833 q 890 513 890 638 q 860 290 890 388 q 775 125 830 192 q 644 22 719 57 q 480 -14 569 -14 m 480 93 q 631 140 565 93 q 733 280 696 186 q 769 513 769 373 q 732 747 769 654 q 630 884 695 839 q 480 929 565 929 q 330 884 396 929 q 227 747 265 839 q 190 513 190 654 q 227 279 190 372 q 330 139 265 185 q 480 93 396 93 m 313 1187 l 388 1187 q 413 1138 388 1159 q 480 1117 438 1117 q 548 1138 523 1117 q 572 1187 572 1159 l 647 1187 q 599 1100 647 1134 q 480 1065 551 1065 q 361 1100 409 1065 q 313 1187 313 1134 z "},"Ǒ":{"ha":960,"x_min":70,"x_max":890,"o":"m 480 -14 q 316 22 390 -14 q 186 125 241 57 q 100 290 131 192 q 70 513 70 388 q 100 736 70 638 q 186 900 131 833 q 316 1002 241 967 q 480 1037 391 1037 q 644 1002 569 1037 q 775 900 719 967 q 860 736 830 833 q 890 513 890 638 q 860 290 890 388 q 775 125 830 192 q 644 22 719 57 q 480 -14 569 -14 m 480 93 q 631 140 565 93 q 733 280 696 186 q 769 513 769 373 q 732 747 769 654 q 630 884 695 839 q 480 929 565 929 q 330 884 396 929 q 227 747 265 839 q 190 513 190 654 q 227 279 190 372 q 330 139 265 185 q 480 93 396 93 m 285 1200 l 374 1200 l 497 1095 l 463 1095 l 584 1200 l 674 1200 l 526 1076 l 433 1076 l 285 1200 z "},"Ô":{"ha":960,"x_min":70,"x_max":890,"o":"m 480 -14 q 316 22 390 -14 q 186 125 241 57 q 100 290 131 192 q 70 513 70 388 q 100 736 70 638 q 186 900 131 833 q 316 1002 241 967 q 480 1037 391 1037 q 644 1002 569 1037 q 775 900 719 967 q 860 736 830 833 q 890 513 890 638 q 860 290 890 388 q 775 125 830 192 q 644 22 719 57 q 480 -14 569 -14 m 480 93 q 631 140 565 93 q 733 280 696 186 q 769 513 769 373 q 732 747 769 654 q 630 884 695 839 q 480 929 565 929 q 330 884 396 929 q 227 747 265 839 q 190 513 190 654 q 227 279 190 372 q 330 139 265 185 q 480 93 396 93 m 285 1076 l 433 1200 l 526 1200 l 674 1076 l 584 1076 l 463 1181 l 497 1181 l 374 1076 l 285 1076 z "},"Ố":{"ha":960,"x_min":70,"x_max":890,"o":"m 480 -14 q 316 22 390 -14 q 186 125 241 57 q 100 290 131 192 q 70 513 70 388 q 100 736 70 638 q 186 900 131 833 q 316 1002 241 967 q 480 1037 391 1037 q 644 1002 569 1037 q 775 900 719 967 q 860 736 830 833 q 890 513 890 638 q 860 290 890 388 q 775 125 830 192 q 644 22 719 57 q 480 -14 569 -14 m 480 93 q 631 140 565 93 q 733 280 696 186 q 769 513 769 373 q 732 747 769 654 q 630 884 695 839 q 480 929 565 929 q 330 884 396 929 q 227 747 265 839 q 190 513 190 654 q 227 279 190 372 q 330 139 265 185 q 480 93 396 93 m 285 1076 l 433 1200 l 526 1200 l 674 1076 l 584 1076 l 462 1181 l 497 1181 l 374 1076 l 285 1076 m 607 1177 l 758 1303 l 858 1303 l 696 1177 l 607 1177 z "},"Ộ":{"ha":960,"x_min":70,"x_max":890,"o":"m 480 -14 q 316 22 390 -14 q 186 125 241 57 q 100 290 131 192 q 70 513 70 388 q 100 736 70 638 q 186 900 131 833 q 316 1002 241 967 q 480 1037 391 1037 q 644 1002 569 1037 q 775 900 719 967 q 860 736 830 833 q 890 513 890 638 q 860 290 890 388 q 775 125 830 192 q 644 22 719 57 q 480 -14 569 -14 m 480 93 q 631 140 565 93 q 733 280 696 186 q 769 513 769 373 q 732 747 769 654 q 630 884 695 839 q 480 929 565 929 q 330 884 396 929 q 227 747 265 839 q 190 513 190 654 q 227 279 190 372 q 330 139 265 185 q 480 93 396 93 m 480 -237 q 424 -219 448 -237 q 400 -169 400 -201 q 424 -119 400 -137 q 480 -101 448 -101 q 536 -119 512 -101 q 560 -169 560 -137 q 536 -219 560 -201 q 480 -237 512 -237 m 285 1076 l 433 1200 l 526 1200 l 674 1076 l 584 1076 l 463 1181 l 497 1181 l 374 1076 l 285 1076 z "},"Ồ":{"ha":960,"x_min":70,"x_max":890,"o":"m 480 -14 q 316 22 390 -14 q 186 125 241 57 q 100 290 131 192 q 70 513 70 388 q 100 736 70 638 q 186 900 131 833 q 316 1002 241 967 q 480 1037 391 1037 q 644 1002 569 1037 q 775 900 719 967 q 860 736 830 833 q 890 513 890 638 q 860 290 890 388 q 775 125 830 192 q 644 22 719 57 q 480 -14 569 -14 m 480 93 q 631 140 565 93 q 733 280 696 186 q 769 513 769 373 q 732 747 769 654 q 630 884 695 839 q 480 929 565 929 q 330 884 396 929 q 227 747 265 839 q 190 513 190 654 q 227 279 190 372 q 330 139 265 185 q 480 93 396 93 m 286 1076 l 434 1200 l 526 1200 l 675 1076 l 585 1076 l 463 1181 l 498 1181 l 375 1076 l 286 1076 m 757 1177 l 668 1177 l 506 1303 l 606 1303 l 757 1177 z "},"Ổ":{"ha":960,"x_min":70,"x_max":890,"o":"m 480 -14 q 316 22 390 -14 q 186 125 241 57 q 100 290 131 192 q 70 513 70 388 q 100 736 70 638 q 186 900 131 833 q 316 1002 241 967 q 480 1037 391 1037 q 644 1002 569 1037 q 775 900 719 967 q 860 736 830 833 q 890 513 890 638 q 860 290 890 388 q 775 125 830 192 q 644 22 719 57 q 480 -14 569 -14 m 480 93 q 631 140 565 93 q 733 280 696 186 q 769 513 769 373 q 732 747 769 654 q 630 884 695 839 q 480 929 565 929 q 330 884 396 929 q 227 747 265 839 q 190 513 190 654 q 227 279 190 372 q 330 139 265 185 q 480 93 396 93 m 286 1076 l 434 1200 l 526 1200 l 675 1076 l 585 1076 l 463 1181 l 498 1181 l 375 1076 l 286 1076 m 536 1343 q 668 1338 611 1343 q 757 1315 725 1332 q 789 1262 789 1297 q 766 1211 789 1231 q 705 1184 742 1192 q 625 1175 667 1175 l 610 1213 q 661 1217 635 1213 q 707 1231 688 1222 q 725 1258 725 1241 q 674 1292 725 1285 q 536 1299 622 1299 l 536 1343 z "},"Ỗ":{"ha":960,"x_min":70,"x_max":890,"o":"m 480 -14 q 316 22 390 -14 q 186 125 241 57 q 100 290 131 192 q 70 513 70 388 q 100 736 70 638 q 186 900 131 833 q 316 1002 241 967 q 480 1037 391 1037 q 644 1002 569 1037 q 775 900 719 967 q 860 736 830 833 q 890 513 890 638 q 860 290 890 388 q 775 125 830 192 q 644 22 719 57 q 480 -14 569 -14 m 480 93 q 631 140 565 93 q 733 280 696 186 q 769 513 769 373 q 732 747 769 654 q 630 884 695 839 q 480 929 565 929 q 330 884 396 929 q 227 747 265 839 q 190 513 190 654 q 227 279 190 372 q 330 139 265 185 q 480 93 396 93 m 285 1076 l 433 1200 l 526 1200 l 674 1076 l 584 1076 l 463 1181 l 497 1181 l 374 1076 l 285 1076 m 683 1359 q 670 1312 682 1338 q 635 1267 659 1286 q 570 1247 610 1247 q 516 1260 539 1247 q 475 1286 493 1273 q 443 1307 460 1297 q 403 1317 426 1317 q 365 1300 375 1317 q 353 1266 354 1283 l 283 1266 q 298 1315 285 1289 q 338 1361 312 1342 q 403 1380 365 1380 q 457 1368 435 1380 q 495 1343 479 1356 q 529 1320 512 1331 q 566 1310 547 1310 q 603 1326 594 1310 q 614 1359 613 1342 l 683 1359 z "},"Ȍ":{"ha":960,"x_min":70,"x_max":890,"o":"m 480 -14 q 316 22 390 -14 q 186 125 241 57 q 100 290 131 192 q 70 513 70 388 q 100 736 70 638 q 186 900 131 833 q 316 1002 241 967 q 480 1037 391 1037 q 644 1002 569 1037 q 775 900 719 967 q 860 736 830 833 q 890 513 890 638 q 860 290 890 388 q 775 125 830 192 q 644 22 719 57 q 480 -14 569 -14 m 480 93 q 631 140 565 93 q 733 280 696 186 q 769 513 769 373 q 732 747 769 654 q 630 884 695 839 q 480 929 565 929 q 330 884 396 929 q 227 747 265 839 q 190 513 190 654 q 227 279 190 372 q 330 139 265 185 q 480 93 396 93 m 631 1076 l 555 1076 l 415 1203 l 506 1203 l 631 1076 m 419 1076 l 342 1076 l 194 1203 l 286 1203 l 419 1076 z "},"Ö":{"ha":960,"x_min":70,"x_max":890,"o":"m 480 -14 q 316 22 390 -14 q 186 125 241 57 q 100 290 131 192 q 70 513 70 388 q 100 736 70 638 q 186 900 131 833 q 316 1002 241 967 q 480 1037 391 1037 q 644 1002 569 1037 q 775 900 719 967 q 860 736 830 833 q 890 513 890 638 q 860 290 890 388 q 775 125 830 192 q 644 22 719 57 q 480 -14 569 -14 m 480 93 q 631 140 565 93 q 733 280 696 186 q 769 513 769 373 q 732 747 769 654 q 630 884 695 839 q 480 929 565 929 q 330 884 396 929 q 227 747 265 839 q 190 513 190 654 q 227 279 190 372 q 330 139 265 185 q 480 93 396 93 m 345 1084 q 293 1101 315 1084 q 270 1149 270 1119 q 293 1195 270 1178 q 345 1213 315 1213 q 398 1195 376 1213 q 420 1149 420 1178 q 398 1101 420 1119 q 345 1084 376 1084 m 615 1084 q 563 1101 585 1084 q 541 1149 541 1119 q 563 1195 541 1178 q 615 1213 585 1213 q 668 1195 646 1213 q 690 1149 690 1178 q 668 1101 690 1119 q 615 1084 646 1084 z "},"Ȫ":{"ha":960,"x_min":70,"x_max":890,"o":"m 480 -14 q 316 22 390 -14 q 186 125 241 57 q 100 290 131 192 q 70 513 70 388 q 100 736 70 638 q 186 900 131 833 q 316 1002 241 967 q 480 1037 391 1037 q 644 1002 569 1037 q 775 900 719 967 q 860 736 830 833 q 890 513 890 638 q 860 290 890 388 q 775 125 830 192 q 644 22 719 57 q 480 -14 569 -14 m 480 93 q 631 140 565 93 q 733 280 696 186 q 769 513 769 373 q 732 747 769 654 q 630 884 695 839 q 480 929 565 929 q 330 884 396 929 q 227 747 265 839 q 190 513 190 654 q 227 279 190 372 q 330 139 265 185 q 480 93 396 93 m 345 1084 q 293 1101 315 1084 q 270 1149 270 1119 q 293 1195 270 1178 q 345 1213 315 1213 q 398 1195 376 1213 q 420 1149 420 1178 q 398 1101 420 1119 q 345 1084 376 1084 m 615 1084 q 563 1101 585 1084 q 541 1149 541 1119 q 563 1195 541 1178 q 615 1213 585 1213 q 668 1195 646 1213 q 690 1149 690 1178 q 668 1101 690 1119 q 615 1084 646 1084 m 299 1292 l 299 1346 l 659 1346 l 659 1292 l 299 1292 z "},"Ȱ":{"ha":960,"x_min":70,"x_max":890,"o":"m 480 -14 q 316 22 390 -14 q 186 125 241 57 q 100 290 131 192 q 70 513 70 388 q 100 736 70 638 q 186 900 131 833 q 316 1002 241 967 q 480 1037 391 1037 q 644 1002 569 1037 q 775 900 719 967 q 860 736 830 833 q 890 513 890 638 q 860 290 890 388 q 775 125 830 192 q 644 22 719 57 q 480 -14 569 -14 m 480 93 q 631 140 565 93 q 733 280 696 186 q 769 513 769 373 q 732 747 769 654 q 630 884 695 839 q 480 929 565 929 q 330 884 396 929 q 227 747 265 839 q 190 513 190 654 q 227 279 190 372 q 330 139 265 185 q 480 93 396 93 m 481 1091 q 425 1109 449 1091 q 401 1159 401 1128 q 425 1209 401 1191 q 481 1227 449 1227 q 538 1209 514 1227 q 561 1159 561 1191 q 538 1109 561 1127 q 481 1091 514 1091 m 301 1321 l 301 1374 l 660 1374 l 660 1321 l 301 1321 z "},"Ọ":{"ha":960,"x_min":70,"x_max":890,"o":"m 480 -14 q 316 22 390 -14 q 186 125 241 57 q 100 290 131 192 q 70 513 70 388 q 100 736 70 638 q 186 900 131 833 q 316 1002 241 967 q 480 1037 391 1037 q 644 1002 569 1037 q 775 900 719 967 q 860 736 830 833 q 890 513 890 638 q 860 290 890 388 q 775 125 830 192 q 644 22 719 57 q 480 -14 569 -14 m 480 93 q 631 140 565 93 q 733 280 696 186 q 769 513 769 373 q 732 747 769 654 q 630 884 695 839 q 480 929 565 929 q 330 884 396 929 q 227 747 265 839 q 190 513 190 654 q 227 279 190 372 q 330 139 265 185 q 480 93 396 93 m 480 -237 q 424 -219 448 -237 q 400 -169 400 -201 q 424 -119 400 -137 q 480 -101 448 -101 q 536 -119 512 -101 q 560 -169 560 -137 q 536 -219 560 -201 q 480 -237 512 -237 z "},"Ò":{"ha":960,"x_min":70,"x_max":890,"o":"m 480 -14 q 316 22 390 -14 q 186 125 241 57 q 100 290 131 192 q 70 513 70 388 q 100 736 70 638 q 186 900 131 833 q 316 1002 241 967 q 480 1037 391 1037 q 644 1002 569 1037 q 775 900 719 967 q 860 736 830 833 q 890 513 890 638 q 860 290 890 388 q 775 125 830 192 q 644 22 719 57 q 480 -14 569 -14 m 480 93 q 631 140 565 93 q 733 280 696 186 q 769 513 769 373 q 732 747 769 654 q 630 884 695 839 q 480 929 565 929 q 330 884 396 929 q 227 747 265 839 q 190 513 190 654 q 227 279 190 372 q 330 139 265 185 q 480 93 396 93 m 570 1077 l 463 1077 l 258 1203 l 374 1203 l 570 1077 z "},"Ỏ":{"ha":960,"x_min":70,"x_max":890,"o":"m 480 -14 q 316 22 390 -14 q 186 125 241 57 q 100 290 131 192 q 70 513 70 388 q 100 736 70 638 q 186 900 131 833 q 316 1002 241 967 q 480 1037 391 1037 q 644 1002 569 1037 q 775 900 719 967 q 860 736 830 833 q 890 513 890 638 q 860 290 890 388 q 775 125 830 192 q 644 22 719 57 q 480 -14 569 -14 m 480 93 q 631 140 565 93 q 733 280 696 186 q 769 513 769 373 q 732 747 769 654 q 630 884 695 839 q 480 929 565 929 q 330 884 396 929 q 227 747 265 839 q 190 513 190 654 q 227 279 190 372 q 330 139 265 185 q 480 93 396 93 m 335 1224 q 467 1218 410 1224 q 556 1195 524 1213 q 588 1142 588 1178 q 565 1092 588 1111 q 504 1064 542 1073 q 424 1056 467 1056 l 409 1093 q 461 1098 434 1094 q 506 1112 488 1102 q 524 1138 524 1122 q 473 1173 524 1166 q 335 1180 422 1180 l 335 1224 z "},"Ơ":{"ha":960,"x_min":70,"x_max":928,"o":"m 725 943 q 818 988 785 943 q 850 1121 850 1032 l 928 1121 q 873 940 928 999 q 725 881 818 881 l 725 943 m 480 -14 q 316 22 390 -14 q 186 125 241 57 q 100 290 131 192 q 70 513 70 388 q 100 736 70 638 q 186 900 131 833 q 316 1002 241 967 q 480 1037 391 1037 q 644 1002 569 1037 q 775 900 719 967 q 860 736 830 833 q 890 513 890 638 q 860 290 890 388 q 775 125 830 192 q 644 22 719 57 q 480 -14 569 -14 m 480 93 q 631 140 565 93 q 733 280 696 186 q 769 513 769 373 q 732 747 769 654 q 630 884 695 839 q 480 929 565 929 q 330 884 396 929 q 227 747 265 839 q 190 513 190 654 q 227 279 190 372 q 330 139 265 185 q 480 93 396 93 z "},"Ớ":{"ha":960,"x_min":70,"x_max":928,"o":"m 725 943 q 818 988 785 943 q 850 1121 850 1032 l 928 1121 q 873 940 928 999 q 725 881 818 881 l 725 943 m 480 -14 q 316 22 390 -14 q 186 125 241 57 q 100 290 131 192 q 70 513 70 388 q 100 736 70 638 q 186 900 131 833 q 316 1002 241 967 q 480 1037 391 1037 q 644 1002 569 1037 q 775 900 719 967 q 860 736 830 833 q 890 513 890 638 q 860 290 890 388 q 775 125 830 192 q 644 22 719 57 q 480 -14 569 -14 m 480 93 q 631 140 565 93 q 733 280 696 186 q 769 513 769 373 q 732 747 769 654 q 630 884 695 839 q 480 929 565 929 q 330 884 396 929 q 227 747 265 839 q 190 513 190 654 q 227 279 190 372 q 330 139 265 185 q 480 93 396 93 m 395 1077 l 591 1203 l 707 1203 l 503 1077 l 395 1077 z "},"Ợ":{"ha":960,"x_min":70,"x_max":928,"o":"m 725 943 q 818 988 785 943 q 850 1121 850 1032 l 928 1121 q 873 940 928 999 q 725 881 818 881 l 725 943 m 480 -14 q 316 22 390 -14 q 186 125 241 57 q 100 290 131 192 q 70 513 70 388 q 100 736 70 638 q 186 900 131 833 q 316 1002 241 967 q 480 1037 391 1037 q 644 1002 569 1037 q 775 900 719 967 q 860 736 830 833 q 890 513 890 638 q 860 290 890 388 q 775 125 830 192 q 644 22 719 57 q 480 -14 569 -14 m 480 93 q 631 140 565 93 q 733 280 696 186 q 769 513 769 373 q 732 747 769 654 q 630 884 695 839 q 480 929 565 929 q 330 884 396 929 q 227 747 265 839 q 190 513 190 654 q 227 279 190 372 q 330 139 265 185 q 480 93 396 93 m 481 -237 q 425 -219 449 -237 q 401 -169 401 -201 q 425 -119 401 -137 q 481 -101 449 -101 q 536 -119 513 -101 q 560 -169 560 -137 q 536 -219 560 -201 q 481 -237 513 -237 z "},"Ờ":{"ha":960,"x_min":70,"x_max":928,"o":"m 725 943 q 818 988 785 943 q 850 1121 850 1032 l 928 1121 q 873 940 928 999 q 725 881 818 881 l 725 943 m 480 -14 q 316 22 390 -14 q 186 125 241 57 q 100 290 131 192 q 70 513 70 388 q 100 736 70 638 q 186 900 131 833 q 316 1002 241 967 q 480 1037 391 1037 q 644 1002 569 1037 q 775 900 719 967 q 860 736 830 833 q 890 513 890 638 q 860 290 890 388 q 775 125 830 192 q 644 22 719 57 q 480 -14 569 -14 m 480 93 q 631 140 565 93 q 733 280 696 186 q 769 513 769 373 q 732 747 769 654 q 630 884 695 839 q 480 929 565 929 q 330 884 396 929 q 227 747 265 839 q 190 513 190 654 q 227 279 190 372 q 330 139 265 185 q 480 93 396 93 m 571 1077 l 463 1077 l 259 1203 l 375 1203 l 571 1077 z "},"Ở":{"ha":960,"x_min":70,"x_max":928,"o":"m 725 943 q 818 988 785 943 q 850 1121 850 1032 l 928 1121 q 873 940 928 999 q 725 881 818 881 l 725 943 m 480 -14 q 316 22 390 -14 q 186 125 241 57 q 100 290 131 192 q 70 513 70 388 q 100 736 70 638 q 186 900 131 833 q 316 1002 241 967 q 480 1037 391 1037 q 644 1002 569 1037 q 775 900 719 967 q 860 736 830 833 q 890 513 890 638 q 860 290 890 388 q 775 125 830 192 q 644 22 719 57 q 480 -14 569 -14 m 480 93 q 631 140 565 93 q 733 280 696 186 q 769 513 769 373 q 732 747 769 654 q 630 884 695 839 q 480 929 565 929 q 330 884 396 929 q 227 747 265 839 q 190 513 190 654 q 227 279 190 372 q 330 139 265 185 q 480 93 396 93 m 336 1224 q 468 1218 411 1224 q 557 1195 525 1213 q 589 1142 589 1178 q 566 1092 589 1111 q 505 1064 542 1073 q 425 1056 467 1056 l 410 1093 q 461 1098 435 1094 q 507 1112 488 1102 q 525 1138 525 1122 q 474 1173 525 1166 q 336 1180 422 1180 l 336 1224 z "},"Ỡ":{"ha":960,"x_min":70,"x_max":928,"o":"m 725 943 q 818 988 785 943 q 850 1121 850 1032 l 928 1121 q 873 940 928 999 q 725 881 818 881 l 725 943 m 480 -14 q 316 22 390 -14 q 186 125 241 57 q 100 290 131 192 q 70 513 70 388 q 100 736 70 638 q 186 900 131 833 q 316 1002 241 967 q 480 1037 391 1037 q 644 1002 569 1037 q 775 900 719 967 q 860 736 830 833 q 890 513 890 638 q 860 290 890 388 q 775 125 830 192 q 644 22 719 57 q 480 -14 569 -14 m 480 93 q 631 140 565 93 q 733 280 696 186 q 769 513 769 373 q 732 747 769 654 q 630 884 695 839 q 480 929 565 929 q 330 884 396 929 q 227 747 265 839 q 190 513 190 654 q 227 279 190 372 q 330 139 265 185 q 480 93 396 93 m 683 1183 q 671 1136 683 1163 q 635 1091 660 1110 q 571 1072 611 1072 q 517 1084 540 1072 q 476 1110 494 1097 q 443 1131 460 1122 q 404 1141 426 1141 q 365 1124 376 1141 q 353 1090 355 1108 l 284 1090 q 299 1140 285 1113 q 339 1185 313 1166 q 404 1204 365 1204 q 458 1192 436 1204 q 496 1167 480 1180 q 530 1144 513 1155 q 567 1134 547 1134 q 604 1150 595 1134 q 615 1183 613 1166 l 683 1183 z "},"Ő":{"ha":960,"x_min":70,"x_max":890,"o":"m 480 -14 q 316 22 390 -14 q 186 125 241 57 q 100 290 131 192 q 70 513 70 388 q 100 736 70 638 q 186 900 131 833 q 316 1002 241 967 q 480 1037 391 1037 q 644 1002 569 1037 q 775 900 719 967 q 860 736 830 833 q 890 513 890 638 q 860 290 890 388 q 775 125 830 192 q 644 22 719 57 q 480 -14 569 -14 m 480 93 q 631 140 565 93 q 733 280 696 186 q 769 513 769 373 q 732 747 769 654 q 630 884 695 839 q 480 929 565 929 q 330 884 396 929 q 227 747 265 839 q 190 513 190 654 q 227 279 190 372 q 330 139 265 185 q 480 93 396 93 m 338 1077 l 496 1203 l 593 1203 l 419 1077 l 338 1077 m 532 1077 l 690 1203 l 787 1203 l 613 1077 l 532 1077 z "},"Ȏ":{"ha":960,"x_min":70,"x_max":890,"o":"m 480 -14 q 316 22 390 -14 q 186 125 241 57 q 100 290 131 192 q 70 513 70 388 q 100 736 70 638 q 186 900 131 833 q 316 1002 241 967 q 480 1037 391 1037 q 644 1002 569 1037 q 775 900 719 967 q 860 736 830 833 q 890 513 890 638 q 860 290 890 388 q 775 125 830 192 q 644 22 719 57 q 480 -14 569 -14 m 480 93 q 631 140 565 93 q 733 280 696 186 q 769 513 769 373 q 732 747 769 654 q 630 884 695 839 q 480 929 565 929 q 330 884 396 929 q 227 747 265 839 q 190 513 190 654 q 227 279 190 372 q 330 139 265 185 q 480 93 396 93 m 313 1068 q 361 1153 313 1121 q 480 1185 409 1185 q 599 1153 551 1185 q 647 1068 647 1121 l 573 1068 q 548 1115 573 1095 q 480 1134 523 1134 q 412 1115 438 1134 q 387 1068 387 1095 l 313 1068 z "},"Ō":{"ha":960,"x_min":70,"x_max":890,"o":"m 480 -14 q 316 22 390 -14 q 186 125 241 57 q 100 290 131 192 q 70 513 70 388 q 100 736 70 638 q 186 900 131 833 q 316 1002 241 967 q 480 1037 391 1037 q 644 1002 569 1037 q 775 900 719 967 q 860 736 830 833 q 890 513 890 638 q 860 290 890 388 q 775 125 830 192 q 644 22 719 57 q 480 -14 569 -14 m 480 93 q 631 140 565 93 q 733 280 696 186 q 769 513 769 373 q 732 747 769 654 q 630 884 695 839 q 480 929 565 929 q 330 884 396 929 q 227 747 265 839 q 190 513 190 654 q 227 279 190 372 q 330 139 265 185 q 480 93 396 93 m 299 1118 l 299 1172 l 659 1172 l 659 1118 l 299 1118 z "},"Ṓ":{"ha":960,"x_min":70,"x_max":890,"o":"m 480 -14 q 316 22 390 -14 q 186 125 241 57 q 100 290 131 192 q 70 513 70 388 q 100 736 70 638 q 186 900 131 833 q 316 1002 241 967 q 480 1037 391 1037 q 644 1002 569 1037 q 775 900 719 967 q 860 736 830 833 q 890 513 890 638 q 860 290 890 388 q 775 125 830 192 q 644 22 719 57 q 480 -14 569 -14 m 480 93 q 631 140 565 93 q 733 280 696 186 q 769 513 769 373 q 732 747 769 654 q 630 884 695 839 q 480 929 565 929 q 330 884 396 929 q 227 747 265 839 q 190 513 190 654 q 227 279 190 372 q 330 139 265 185 q 480 93 396 93 m 299 1118 l 299 1172 l 659 1172 l 659 1118 l 299 1118 m 394 1224 l 590 1350 l 706 1350 l 502 1224 l 394 1224 z "},"Ṑ":{"ha":960,"x_min":70,"x_max":890,"o":"m 480 -14 q 316 22 390 -14 q 186 125 241 57 q 100 290 131 192 q 70 513 70 388 q 100 736 70 638 q 186 900 131 833 q 316 1002 241 967 q 480 1037 391 1037 q 644 1002 569 1037 q 775 900 719 967 q 860 736 830 833 q 890 513 890 638 q 860 290 890 388 q 775 125 830 192 q 644 22 719 57 q 480 -14 569 -14 m 480 93 q 631 140 565 93 q 733 280 696 186 q 769 513 769 373 q 732 747 769 654 q 630 884 695 839 q 480 929 565 929 q 330 884 396 929 q 227 747 265 839 q 190 513 190 654 q 227 279 190 372 q 330 139 265 185 q 480 93 396 93 m 299 1118 l 299 1172 l 659 1172 l 659 1118 l 299 1118 m 570 1224 l 463 1224 l 258 1350 l 374 1350 l 570 1224 z "},"Ǫ":{"ha":960,"x_min":70,"x_max":890,"o":"m 645 -204 l 645 -267 q 615 -270 632 -269 q 581 -272 597 -272 q 513 -261 544 -272 q 465 -227 483 -250 q 447 -167 447 -203 q 467 -95 447 -131 q 518 -26 488 -58 q 577 28 549 7 l 645 28 q 590 -26 620 6 q 539 -92 560 -58 q 517 -151 517 -125 q 537 -196 517 -182 q 588 -210 556 -210 q 618 -208 602 -210 q 645 -204 633 -206 m 480 -14 q 316 22 390 -14 q 186 125 241 57 q 100 290 131 192 q 70 513 70 388 q 100 736 70 638 q 186 900 131 833 q 316 1002 241 967 q 480 1037 391 1037 q 644 1002 569 1037 q 775 900 719 967 q 860 736 830 833 q 890 513 890 638 q 860 290 890 388 q 775 125 830 192 q 644 22 719 57 q 480 -14 569 -14 m 480 93 q 631 140 565 93 q 733 280 696 186 q 769 513 769 373 q 732 747 769 654 q 630 884 695 839 q 480 929 565 929 q 330 884 396 929 q 227 747 265 839 q 190 513 190 654 q 227 279 190 372 q 330 139 265 185 q 480 93 396 93 z "},"Ø":{"ha":960,"x_min":70,"x_max":890,"o":"m 840 1044 l 185 -55 l 120 -19 l 774 1080 l 840 1044 m 480 -14 q 316 22 390 -14 q 186 125 241 57 q 100 290 131 192 q 70 513 70 388 q 100 736 70 638 q 186 900 131 833 q 316 1002 241 967 q 480 1037 391 1037 q 644 1002 569 1037 q 775 900 719 967 q 860 736 830 833 q 890 513 890 638 q 860 290 890 388 q 775 125 830 192 q 644 22 719 57 q 480 -14 569 -14 m 480 93 q 631 140 565 93 q 733 280 696 186 q 769 513 769 373 q 732 747 769 654 q 630 884 695 839 q 480 929 565 929 q 330 884 396 929 q 227 747 265 839 q 190 513 190 654 q 227 279 190 372 q 330 139 265 185 q 480 93 396 93 z "},"Ǿ":{"ha":960,"x_min":70,"x_max":890,"o":"m 840 1044 l 185 -55 l 120 -19 l 774 1080 l 840 1044 m 480 -14 q 316 22 390 -14 q 186 125 241 57 q 100 290 131 192 q 70 513 70 388 q 100 736 70 638 q 186 900 131 833 q 316 1002 241 967 q 480 1037 391 1037 q 644 1002 569 1037 q 775 900 719 967 q 860 736 830 833 q 890 513 890 638 q 860 290 890 388 q 775 125 830 192 q 644 22 719 57 q 480 -14 569 -14 m 480 93 q 631 140 565 93 q 733 280 696 186 q 769 513 769 373 q 732 747 769 654 q 630 884 695 839 q 480 929 565 929 q 330 884 396 929 q 227 747 265 839 q 190 513 190 654 q 227 279 190 372 q 330 139 265 185 q 480 93 396 93 m 394 1077 l 590 1203 l 706 1203 l 502 1077 l 394 1077 z "},"Õ":{"ha":960,"x_min":70,"x_max":890,"o":"m 480 -14 q 316 22 390 -14 q 186 125 241 57 q 100 290 131 192 q 70 513 70 388 q 100 736 70 638 q 186 900 131 833 q 316 1002 241 967 q 480 1037 391 1037 q 644 1002 569 1037 q 775 900 719 967 q 860 736 830 833 q 890 513 890 638 q 860 290 890 388 q 775 125 830 192 q 644 22 719 57 q 480 -14 569 -14 m 480 93 q 631 140 565 93 q 733 280 696 186 q 769 513 769 373 q 732 747 769 654 q 630 884 695 839 q 480 929 565 929 q 330 884 396 929 q 227 747 265 839 q 190 513 190 654 q 227 279 190 372 q 330 139 265 185 q 480 93 396 93 m 683 1183 q 670 1136 682 1163 q 635 1091 659 1110 q 570 1072 610 1072 q 516 1084 539 1072 q 475 1110 493 1097 q 443 1131 460 1122 q 403 1141 426 1141 q 365 1124 375 1141 q 353 1090 354 1108 l 283 1090 q 298 1140 285 1113 q 338 1185 312 1166 q 403 1204 365 1204 q 457 1192 435 1204 q 495 1167 479 1180 q 529 1144 512 1155 q 566 1134 547 1134 q 603 1150 594 1134 q 614 1183 613 1166 l 683 1183 z "},"Ṍ":{"ha":960,"x_min":70,"x_max":890,"o":"m 670 1173 q 658 1129 669 1153 q 625 1087 648 1105 q 565 1069 602 1069 q 514 1081 535 1069 q 476 1105 492 1092 q 445 1124 461 1115 q 408 1133 429 1133 q 372 1118 382 1133 q 361 1086 363 1102 l 296 1086 q 310 1132 297 1108 q 347 1175 323 1157 q 408 1192 372 1192 q 459 1181 438 1192 q 494 1158 479 1170 q 526 1137 510 1147 q 560 1127 542 1127 q 596 1142 588 1127 q 606 1173 604 1156 l 670 1173 m 405 1237 l 577 1348 l 680 1348 l 499 1237 l 405 1237 m 480 -14 q 316 22 390 -14 q 186 125 241 57 q 100 290 131 192 q 70 513 70 388 q 100 736 70 638 q 186 900 131 833 q 316 1002 241 967 q 480 1037 391 1037 q 644 1002 569 1037 q 775 900 719 967 q 860 736 830 833 q 890 513 890 638 q 860 290 890 388 q 775 125 830 192 q 644 22 719 57 q 480 -14 569 -14 m 480 93 q 631 140 565 93 q 733 280 696 186 q 769 513 769 373 q 732 747 769 654 q 630 884 695 839 q 480 929 565 929 q 330 884 396 929 q 227 747 265 839 q 190 513 190 654 q 227 279 190 372 q 330 139 265 185 q 480 93 396 93 z "},"Ṏ":{"ha":960,"x_min":70,"x_max":890,"o":"m 480 -14 q 316 22 390 -14 q 186 125 241 57 q 100 290 131 192 q 70 513 70 388 q 100 736 70 638 q 186 900 131 833 q 316 1002 241 967 q 480 1037 391 1037 q 644 1002 569 1037 q 775 900 719 967 q 860 736 830 833 q 890 513 890 638 q 860 290 890 388 q 775 125 830 192 q 644 22 719 57 q 480 -14 569 -14 m 480 93 q 631 140 565 93 q 733 280 696 186 q 769 513 769 373 q 732 747 769 654 q 630 884 695 839 q 480 929 565 929 q 330 884 396 929 q 227 747 265 839 q 190 513 190 654 q 227 279 190 372 q 330 139 265 185 q 480 93 396 93 m 683 1183 q 670 1136 682 1163 q 635 1091 659 1110 q 570 1072 610 1072 q 516 1084 539 1072 q 475 1110 493 1097 q 443 1131 460 1122 q 403 1141 426 1141 q 365 1124 375 1141 q 353 1090 354 1108 l 283 1090 q 298 1140 285 1113 q 338 1185 312 1166 q 403 1204 365 1204 q 457 1192 435 1204 q 495 1167 479 1180 q 529 1144 512 1155 q 566 1134 547 1134 q 603 1150 594 1134 q 614 1183 613 1166 l 683 1183 m 345 1262 q 293 1279 315 1262 q 270 1326 270 1297 q 293 1373 270 1356 q 345 1390 315 1390 q 398 1373 376 1390 q 420 1326 420 1356 q 398 1279 420 1297 q 345 1262 376 1262 m 615 1262 q 563 1279 585 1262 q 541 1326 541 1297 q 563 1373 541 1356 q 615 1390 585 1390 q 668 1373 646 1390 q 690 1326 690 1356 q 668 1279 690 1297 q 615 1262 646 1262 z "},"Ȭ":{"ha":960,"x_min":70,"x_max":890,"o":"m 480 -14 q 316 22 390 -14 q 186 125 241 57 q 100 290 131 192 q 70 513 70 388 q 100 736 70 638 q 186 900 131 833 q 316 1002 241 967 q 480 1037 391 1037 q 644 1002 569 1037 q 775 900 719 967 q 860 736 830 833 q 890 513 890 638 q 860 290 890 388 q 775 125 830 192 q 644 22 719 57 q 480 -14 569 -14 m 480 93 q 631 140 565 93 q 733 280 696 186 q 769 513 769 373 q 732 747 769 654 q 630 884 695 839 q 480 929 565 929 q 330 884 396 929 q 227 747 265 839 q 190 513 190 654 q 227 279 190 372 q 330 139 265 185 q 480 93 396 93 m 683 1183 q 670 1136 682 1163 q 635 1091 659 1110 q 570 1072 610 1072 q 516 1084 539 1072 q 475 1110 493 1097 q 443 1131 460 1122 q 403 1141 426 1141 q 365 1124 375 1141 q 353 1090 354 1108 l 283 1090 q 298 1140 285 1113 q 338 1185 312 1166 q 403 1204 365 1204 q 457 1192 435 1204 q 495 1167 479 1180 q 529 1144 512 1155 q 566 1134 547 1134 q 603 1150 594 1134 q 614 1183 613 1166 l 683 1183 m 299 1296 l 299 1349 l 659 1349 l 659 1296 l 299 1296 z "},"Œ":{"ha":1428,"x_min":70,"x_max":1331,"o":"m 473 -14 q 263 48 353 -14 q 121 228 172 110 q 70 513 70 347 q 122 797 70 681 q 264 975 173 914 q 473 1037 354 1037 q 660 994 585 1037 q 771 888 736 951 l 771 1024 l 1331 1024 l 1331 920 l 831 920 l 885 988 l 885 528 l 854 566 l 1281 566 l 1281 462 l 853 462 l 885 500 l 885 37 l 831 104 l 1331 104 l 1331 0 l 771 0 l 771 148 q 660 33 736 81 q 473 -14 585 -14 m 473 93 q 625 140 558 93 q 731 280 692 186 q 769 513 769 373 q 731 747 769 654 q 625 884 692 839 q 473 929 558 929 q 325 884 389 929 q 226 747 261 839 q 190 513 190 654 q 226 279 190 372 q 325 139 261 185 q 473 93 389 93 z "},"P":{"ha":799,"x_min":98,"x_max":739,"o":"m 217 0 l 98 0 l 98 1024 l 385 1024 q 583 980 504 1024 q 700 862 661 936 q 739 697 739 788 q 699 528 739 606 q 580 405 659 451 q 385 358 501 358 l 217 358 l 217 0 m 217 401 l 163 462 l 371 462 q 509 491 454 462 q 592 574 565 521 q 619 697 619 626 q 593 817 619 767 q 512 894 567 867 q 371 920 457 920 l 163 920 l 217 988 l 217 401 z "},"Þ":{"ha":768,"x_min":98,"x_max":698,"o":"m 98 0 l 98 1023 l 216 1023 l 216 759 l 178 797 l 377 797 q 544 763 472 797 q 657 665 616 730 q 698 506 698 601 q 656 347 698 411 q 542 249 615 282 q 377 216 470 216 l 178 216 l 216 253 l 216 0 l 98 0 m 216 276 l 185 320 l 366 320 q 476 340 428 320 q 552 402 524 360 q 581 506 581 443 q 552 611 581 570 q 476 672 524 652 q 366 692 427 692 l 183 692 l 216 738 l 216 276 z "},"Q":{"ha":960,"x_min":70,"x_max":890,"o":"m 429 1 l 533 1 q 557 -70 533 -41 q 617 -118 582 -99 q 684 -145 652 -136 q 728 -158 715 -155 l 692 -239 q 650 -230 680 -237 q 582 -207 619 -222 q 510 -164 544 -191 q 452 -97 475 -137 q 429 1 429 -56 m 480 -14 q 316 22 390 -14 q 186 125 241 57 q 100 290 131 192 q 70 513 70 388 q 100 736 70 638 q 186 900 131 833 q 316 1002 241 967 q 480 1037 391 1037 q 644 1002 569 1037 q 775 900 719 967 q 860 736 830 833 q 890 513 890 638 q 860 290 890 388 q 775 125 830 192 q 644 22 719 57 q 480 -14 569 -14 m 480 93 q 631 140 565 93 q 733 280 696 186 q 769 513 769 373 q 732 747 769 654 q 630 884 695 839 q 480 929 565 929 q 330 884 396 929 q 227 747 265 839 q 190 513 190 654 q 227 279 190 372 q 330 139 265 185 q 480 93 396 93 z "},"R":{"ha":826,"x_min":98,"x_max":742,"o":"m 98 0 l 98 1024 l 453 1024 q 668 958 594 1024 q 742 754 742 891 q 711 615 742 672 q 636 526 680 558 q 556 491 593 495 q 630 470 594 488 q 691 416 667 453 q 715 317 715 379 q 715 201 715 260 q 715 84 715 142 q 720 31 715 54 q 731 0 725 8 l 612 0 q 602 31 607 9 q 597 84 597 53 q 597 193 597 138 q 597 303 597 249 q 554 404 597 371 q 433 438 511 438 l 181 438 l 214 483 l 214 0 l 98 0 m 214 492 l 181 542 l 434 542 q 527 567 485 542 q 595 638 569 592 q 620 744 620 683 q 570 880 620 840 q 426 920 520 920 l 178 920 l 214 972 l 214 492 z "},"Ŕ":{"ha":826,"x_min":98,"x_max":742,"o":"m 98 0 l 98 1024 l 453 1024 q 668 958 594 1024 q 742 754 742 891 q 711 615 742 672 q 636 526 680 558 q 556 491 593 495 q 630 470 594 488 q 691 416 667 453 q 715 317 715 379 q 715 201 715 260 q 715 84 715 142 q 720 31 715 54 q 731 0 725 8 l 612 0 q 602 31 607 9 q 597 84 597 53 q 597 193 597 138 q 597 303 597 249 q 554 404 597 371 q 433 438 511 438 l 181 438 l 214 483 l 214 0 l 98 0 m 214 492 l 181 542 l 434 542 q 527 567 485 542 q 595 638 569 592 q 620 744 620 683 q 570 880 620 840 q 426 920 520 920 l 178 920 l 214 972 l 214 492 m 288 1077 l 484 1203 l 600 1203 l 396 1077 l 288 1077 z "},"Ř":{"ha":826,"x_min":98,"x_max":742,"o":"m 98 0 l 98 1024 l 453 1024 q 668 958 594 1024 q 742 754 742 891 q 711 615 742 672 q 636 526 680 558 q 556 491 593 495 q 630 470 594 488 q 691 416 667 453 q 715 317 715 379 q 715 201 715 260 q 715 84 715 142 q 720 31 715 54 q 731 0 725 8 l 612 0 q 602 31 607 9 q 597 84 597 53 q 597 193 597 138 q 597 303 597 249 q 554 404 597 371 q 433 438 511 438 l 181 438 l 214 483 l 214 0 l 98 0 m 214 492 l 181 542 l 434 542 q 527 567 485 542 q 595 638 569 592 q 620 744 620 683 q 570 880 620 840 q 426 920 520 920 l 178 920 l 214 972 l 214 492 m 179 1200 l 268 1200 l 391 1095 l 356 1095 l 478 1200 l 568 1200 l 419 1076 l 327 1076 l 179 1200 z "},"Ŗ":{"ha":826,"x_min":98,"x_max":742,"o":"m 98 0 l 98 1024 l 453 1024 q 668 958 594 1024 q 742 754 742 891 q 711 615 742 672 q 636 526 680 558 q 556 491 593 495 q 630 470 594 488 q 691 416 667 453 q 715 317 715 379 q 715 201 715 260 q 715 84 715 142 q 720 31 715 54 q 731 0 725 8 l 612 0 q 602 31 607 9 q 597 84 597 53 q 597 193 597 138 q 597 303 597 249 q 554 404 597 371 q 433 438 511 438 l 181 438 l 214 483 l 214 0 l 98 0 m 214 492 l 181 542 l 434 542 q 527 567 485 542 q 595 638 569 592 q 620 744 620 683 q 570 880 620 840 q 426 920 520 920 l 178 920 l 214 972 l 214 492 m 407 -168 q 367 -154 383 -168 q 351 -117 351 -140 q 371 -76 351 -90 q 417 -62 391 -62 q 449 -69 433 -62 q 475 -90 465 -76 q 485 -130 485 -105 q 468 -211 485 -176 q 426 -268 451 -245 q 376 -304 401 -291 l 365 -280 q 404 -253 384 -271 q 437 -209 424 -235 q 450 -151 450 -183 q 434 -163 447 -158 q 407 -168 421 -168 z "},"Ȑ":{"ha":826,"x_min":88,"x_max":742,"o":"m 98 0 l 98 1024 l 453 1024 q 668 958 594 1024 q 742 754 742 891 q 711 615 742 672 q 636 526 680 558 q 556 491 593 495 q 630 470 594 488 q 691 416 667 453 q 715 317 715 379 q 715 201 715 260 q 715 84 715 142 q 720 31 715 54 q 731 0 725 8 l 612 0 q 602 31 607 9 q 597 84 597 53 q 597 193 597 138 q 597 303 597 249 q 554 404 597 371 q 433 438 511 438 l 181 438 l 214 483 l 214 0 l 98 0 m 214 492 l 181 542 l 434 542 q 527 567 485 542 q 595 638 569 592 q 620 744 620 683 q 570 880 620 840 q 426 920 520 920 l 178 920 l 214 972 l 214 492 m 525 1076 l 449 1076 l 309 1203 l 400 1203 l 525 1076 m 313 1076 l 235 1076 l 88 1203 l 180 1203 l 313 1076 z "},"Ṛ":{"ha":826,"x_min":98,"x_max":742,"o":"m 98 0 l 98 1024 l 453 1024 q 668 958 594 1024 q 742 754 742 891 q 711 615 742 672 q 636 526 680 558 q 556 491 593 495 q 630 470 594 488 q 691 416 667 453 q 715 317 715 379 q 715 201 715 260 q 715 84 715 142 q 720 31 715 54 q 731 0 725 8 l 612 0 q 602 31 607 9 q 597 84 597 53 q 597 193 597 138 q 597 303 597 249 q 554 404 597 371 q 433 438 511 438 l 181 438 l 214 483 l 214 0 l 98 0 m 214 492 l 181 542 l 434 542 q 527 567 485 542 q 595 638 569 592 q 620 744 620 683 q 570 880 620 840 q 426 920 520 920 l 178 920 l 214 972 l 214 492 m 419 -237 q 363 -219 387 -237 q 339 -169 339 -201 q 363 -119 339 -137 q 419 -101 387 -101 q 475 -119 451 -101 q 499 -169 499 -137 q 475 -219 499 -201 q 419 -237 451 -237 z "},"Ȓ":{"ha":826,"x_min":98,"x_max":742,"o":"m 98 0 l 98 1024 l 453 1024 q 668 958 594 1024 q 742 754 742 891 q 711 615 742 672 q 636 526 680 558 q 556 491 593 495 q 630 470 594 488 q 691 416 667 453 q 715 317 715 379 q 715 201 715 260 q 715 84 715 142 q 720 31 715 54 q 731 0 725 8 l 612 0 q 602 31 607 9 q 597 84 597 53 q 597 193 597 138 q 597 303 597 249 q 554 404 597 371 q 433 438 511 438 l 181 438 l 214 483 l 214 0 l 98 0 m 214 492 l 181 542 l 434 542 q 527 567 485 542 q 595 638 569 592 q 620 744 620 683 q 570 880 620 840 q 426 920 520 920 l 178 920 l 214 972 l 214 492 m 207 1068 q 255 1153 207 1121 q 374 1185 303 1185 q 493 1153 444 1185 q 541 1068 541 1121 l 467 1068 q 442 1115 467 1095 q 374 1134 417 1134 q 306 1115 331 1134 q 281 1068 281 1095 l 207 1068 z "},"Ṟ":{"ha":826,"x_min":98,"x_max":742,"o":"m 98 0 l 98 1024 l 453 1024 q 668 958 594 1024 q 742 754 742 891 q 711 615 742 672 q 636 526 680 558 q 556 491 593 495 q 630 470 594 488 q 691 416 667 453 q 715 317 715 379 q 715 201 715 260 q 715 84 715 142 q 720 31 715 54 q 731 0 725 8 l 612 0 q 602 31 607 9 q 597 84 597 53 q 597 193 597 138 q 597 303 597 249 q 554 404 597 371 q 433 438 511 438 l 181 438 l 214 483 l 214 0 l 98 0 m 214 492 l 181 542 l 434 542 q 527 567 485 542 q 595 638 569 592 q 620 744 620 683 q 570 880 620 840 q 426 920 520 920 l 178 920 l 214 972 l 214 492 m 220 -180 l 220 -126 l 617 -126 l 617 -180 l 220 -180 z "},"S":{"ha":815,"x_min":70,"x_max":744,"o":"m 408 -14 q 226 20 301 -14 q 110 122 151 53 q 70 291 70 190 q 70 315 70 305 q 70 338 70 324 l 189 338 q 189 316 189 325 q 189 293 189 307 q 244 140 189 187 q 406 93 300 93 q 572 131 516 93 q 628 252 628 168 q 596 350 628 311 q 507 417 564 390 q 374 467 450 444 q 222 534 289 494 q 116 634 155 574 q 78 778 78 693 q 118 919 78 862 q 232 1007 159 977 q 401 1037 305 1037 q 579 1005 503 1037 q 695 909 654 974 q 737 748 737 845 q 737 722 737 733 q 737 696 737 711 l 618 696 q 618 719 618 709 q 618 743 618 730 q 563 887 618 844 q 403 930 508 930 q 248 894 303 930 q 193 778 193 859 q 227 679 193 718 q 319 612 260 640 q 452 560 377 585 q 609 492 543 530 q 709 398 674 454 q 744 256 744 342 q 704 110 744 171 q 588 18 663 50 q 408 -14 513 -14 z "},"Ś":{"ha":815,"x_min":70,"x_max":744,"o":"m 408 -14 q 226 20 301 -14 q 110 122 151 53 q 70 291 70 190 q 70 315 70 305 q 70 338 70 324 l 189 338 q 189 316 189 325 q 189 293 189 307 q 244 140 189 187 q 406 93 300 93 q 572 131 516 93 q 628 252 628 168 q 596 350 628 311 q 507 417 564 390 q 374 467 450 444 q 222 534 289 494 q 116 634 155 574 q 78 778 78 693 q 118 919 78 862 q 232 1007 159 977 q 401 1037 305 1037 q 579 1005 503 1037 q 695 909 654 974 q 737 748 737 845 q 737 722 737 733 q 737 696 737 711 l 618 696 q 618 719 618 709 q 618 743 618 730 q 563 887 618 844 q 403 930 508 930 q 248 894 303 930 q 193 778 193 859 q 227 679 193 718 q 319 612 260 640 q 452 560 377 585 q 609 492 543 530 q 709 398 674 454 q 744 256 744 342 q 704 110 744 171 q 588 18 663 50 q 408 -14 513 -14 m 321 1077 l 517 1203 l 633 1203 l 428 1077 l 321 1077 z "},"Ṥ":{"ha":815,"x_min":70,"x_max":744,"o":"m 328 1073 l 508 1189 l 615 1189 l 427 1073 l 328 1073 m 408 1253 q 353 1271 376 1253 q 331 1319 331 1289 q 353 1367 331 1349 q 408 1385 376 1385 q 461 1367 438 1385 q 484 1319 484 1349 q 461 1271 484 1288 q 408 1253 438 1253 m 408 -14 q 226 20 301 -14 q 110 122 151 53 q 70 291 70 190 q 70 315 70 305 q 70 338 70 324 l 189 338 q 189 316 189 325 q 189 293 189 307 q 244 140 189 187 q 406 93 300 93 q 572 131 516 93 q 628 252 628 168 q 596 350 628 311 q 507 417 564 390 q 374 467 450 444 q 222 534 289 494 q 116 634 155 574 q 78 778 78 693 q 118 919 78 862 q 232 1007 159 977 q 401 1037 305 1037 q 579 1005 503 1037 q 695 909 654 974 q 737 748 737 845 q 737 722 737 733 q 737 696 737 711 l 618 696 q 618 719 618 709 q 618 743 618 730 q 563 887 618 844 q 403 930 508 930 q 248 894 303 930 q 193 778 193 859 q 227 679 193 718 q 319 612 260 640 q 452 560 377 585 q 609 492 543 530 q 709 398 674 454 q 744 256 744 342 q 704 110 744 171 q 588 18 663 50 q 408 -14 513 -14 z "},"Š":{"ha":815,"x_min":70,"x_max":744,"o":"m 408 -14 q 226 20 301 -14 q 110 122 151 53 q 70 291 70 190 q 70 315 70 305 q 70 338 70 324 l 189 338 q 189 316 189 325 q 189 293 189 307 q 244 140 189 187 q 406 93 300 93 q 572 131 516 93 q 628 252 628 168 q 596 350 628 311 q 507 417 564 390 q 374 467 450 444 q 222 534 289 494 q 116 634 155 574 q 78 778 78 693 q 118 919 78 862 q 232 1007 159 977 q 401 1037 305 1037 q 579 1005 503 1037 q 695 909 654 974 q 737 748 737 845 q 737 722 737 733 q 737 696 737 711 l 618 696 q 618 719 618 709 q 618 743 618 730 q 563 887 618 844 q 403 930 508 930 q 248 894 303 930 q 193 778 193 859 q 227 679 193 718 q 319 612 260 640 q 452 560 377 585 q 609 492 543 530 q 709 398 674 454 q 744 256 744 342 q 704 110 744 171 q 588 18 663 50 q 408 -14 513 -14 m 212 1200 l 301 1200 l 424 1095 l 389 1095 l 510 1200 l 601 1200 l 452 1076 l 360 1076 l 212 1200 z "},"Ṧ":{"ha":815,"x_min":70,"x_max":744,"o":"m 408 -14 q 226 20 301 -14 q 110 122 151 53 q 70 291 70 190 q 70 315 70 305 q 70 338 70 324 l 189 338 q 189 316 189 325 q 189 293 189 307 q 244 140 189 187 q 406 93 300 93 q 572 131 516 93 q 628 252 628 168 q 596 350 628 311 q 507 417 564 390 q 374 467 450 444 q 222 534 289 494 q 116 634 155 574 q 78 778 78 693 q 118 919 78 862 q 232 1007 159 977 q 401 1037 305 1037 q 579 1005 503 1037 q 695 909 654 974 q 737 748 737 845 q 737 722 737 733 q 737 696 737 711 l 618 696 q 618 719 618 709 q 618 743 618 730 q 563 887 618 844 q 403 930 508 930 q 248 894 303 930 q 193 778 193 859 q 227 679 193 718 q 319 612 260 640 q 452 560 377 585 q 609 492 543 530 q 709 398 674 454 q 744 256 744 342 q 704 110 744 171 q 588 18 663 50 q 408 -14 513 -14 m 212 1200 l 301 1200 l 424 1095 l 389 1095 l 510 1200 l 601 1200 l 452 1076 l 360 1076 l 212 1200 m 408 1267 q 352 1285 376 1267 q 328 1335 328 1303 q 352 1385 328 1367 q 408 1403 376 1403 q 464 1385 440 1403 q 488 1335 488 1367 q 464 1285 488 1303 q 408 1267 440 1267 z "},"Ş":{"ha":815,"x_min":70,"x_max":744,"o":"m 465 -69 q 510 -81 488 -69 q 545 -114 531 -92 q 559 -172 559 -137 q 536 -241 559 -214 q 476 -282 513 -268 q 397 -295 440 -295 q 325 -286 358 -295 q 280 -269 292 -277 l 306 -219 q 341 -235 315 -226 q 402 -245 367 -245 q 473 -226 444 -245 q 501 -170 501 -206 q 486 -127 501 -140 q 446 -113 470 -113 q 410 -120 428 -113 q 381 -140 391 -128 l 331 -124 l 378 0 l 435 0 l 392 -112 l 382 -108 q 413 -82 388 -94 q 465 -69 437 -69 m 408 -14 q 226 20 301 -14 q 110 122 151 53 q 70 291 70 190 q 70 315 70 305 q 70 338 70 324 l 189 338 q 189 316 189 325 q 189 293 189 307 q 244 140 189 187 q 406 93 300 93 q 572 131 516 93 q 628 252 628 168 q 596 350 628 311 q 507 417 564 390 q 374 467 450 444 q 222 534 289 494 q 116 634 155 574 q 78 778 78 693 q 118 919 78 862 q 232 1007 159 977 q 401 1037 305 1037 q 579 1005 503 1037 q 695 909 654 974 q 737 748 737 845 q 737 722 737 733 q 737 696 737 711 l 618 696 q 618 719 618 709 q 618 743 618 730 q 563 887 618 844 q 403 930 508 930 q 248 894 303 930 q 193 778 193 859 q 227 679 193 718 q 319 612 260 640 q 452 560 377 585 q 609 492 543 530 q 709 398 674 454 q 744 256 744 342 q 704 110 744 171 q 588 18 663 50 q 408 -14 513 -14 z "},"Ŝ":{"ha":815,"x_min":70,"x_max":744,"o":"m 408 -14 q 226 20 301 -14 q 110 122 151 53 q 70 291 70 190 q 70 315 70 305 q 70 338 70 324 l 189 338 q 189 316 189 325 q 189 293 189 307 q 244 140 189 187 q 406 93 300 93 q 572 131 516 93 q 628 252 628 168 q 596 350 628 311 q 507 417 564 390 q 374 467 450 444 q 222 534 289 494 q 116 634 155 574 q 78 778 78 693 q 118 919 78 862 q 232 1007 159 977 q 401 1037 305 1037 q 579 1005 503 1037 q 695 909 654 974 q 737 748 737 845 q 737 722 737 733 q 737 696 737 711 l 618 696 q 618 719 618 709 q 618 743 618 730 q 563 887 618 844 q 403 930 508 930 q 248 894 303 930 q 193 778 193 859 q 227 679 193 718 q 319 612 260 640 q 452 560 377 585 q 609 492 543 530 q 709 398 674 454 q 744 256 744 342 q 704 110 744 171 q 588 18 663 50 q 408 -14 513 -14 m 212 1076 l 360 1200 l 452 1200 l 601 1076 l 510 1076 l 389 1181 l 424 1181 l 301 1076 l 212 1076 z "},"Ș":{"ha":815,"x_min":70,"x_max":744,"o":"m 408 -14 q 226 20 301 -14 q 110 122 151 53 q 70 291 70 190 q 70 315 70 305 q 70 338 70 324 l 189 338 q 189 316 189 325 q 189 293 189 307 q 244 140 189 187 q 406 93 300 93 q 572 131 516 93 q 628 252 628 168 q 596 350 628 311 q 507 417 564 390 q 374 467 450 444 q 222 534 289 494 q 116 634 155 574 q 78 778 78 693 q 118 919 78 862 q 232 1007 159 977 q 401 1037 305 1037 q 579 1005 503 1037 q 695 909 654 974 q 737 748 737 845 q 737 722 737 733 q 737 696 737 711 l 618 696 q 618 719 618 709 q 618 743 618 730 q 563 887 618 844 q 403 930 508 930 q 248 894 303 930 q 193 778 193 859 q 227 679 193 718 q 319 612 260 640 q 452 560 377 585 q 609 492 543 530 q 709 398 674 454 q 744 256 744 342 q 704 110 744 171 q 588 18 663 50 q 408 -14 513 -14 m 397 -168 q 356 -154 372 -168 q 340 -117 340 -140 q 360 -76 340 -90 q 406 -62 381 -62 q 439 -69 423 -62 q 465 -90 454 -76 q 475 -130 475 -105 q 458 -211 475 -176 q 416 -268 441 -245 q 365 -304 391 -291 l 354 -280 q 393 -253 374 -271 q 426 -209 413 -235 q 440 -151 440 -183 q 423 -163 436 -158 q 397 -168 410 -168 z "},"Ṡ":{"ha":815,"x_min":70,"x_max":744,"o":"m 408 -14 q 226 20 301 -14 q 110 122 151 53 q 70 291 70 190 q 70 315 70 305 q 70 338 70 324 l 189 338 q 189 316 189 325 q 189 293 189 307 q 244 140 189 187 q 406 93 300 93 q 572 131 516 93 q 628 252 628 168 q 596 350 628 311 q 507 417 564 390 q 374 467 450 444 q 222 534 289 494 q 116 634 155 574 q 78 778 78 693 q 118 919 78 862 q 232 1007 159 977 q 401 1037 305 1037 q 579 1005 503 1037 q 695 909 654 974 q 737 748 737 845 q 737 722 737 733 q 737 696 737 711 l 618 696 q 618 719 618 709 q 618 743 618 730 q 563 887 618 844 q 403 930 508 930 q 248 894 303 930 q 193 778 193 859 q 227 679 193 718 q 319 612 260 640 q 452 560 377 585 q 609 492 543 530 q 709 398 674 454 q 744 256 744 342 q 704 110 744 171 q 588 18 663 50 q 408 -14 513 -14 m 408 1091 q 352 1109 376 1091 q 328 1159 328 1128 q 352 1209 328 1191 q 408 1227 376 1227 q 464 1209 440 1227 q 488 1159 488 1191 q 464 1109 488 1127 q 408 1091 440 1091 z "},"Ṣ":{"ha":815,"x_min":70,"x_max":744,"o":"m 408 -14 q 226 20 301 -14 q 110 122 151 53 q 70 291 70 190 q 70 315 70 305 q 70 338 70 324 l 189 338 q 189 316 189 325 q 189 293 189 307 q 244 140 189 187 q 406 93 300 93 q 572 131 516 93 q 628 252 628 168 q 596 350 628 311 q 507 417 564 390 q 374 467 450 444 q 222 534 289 494 q 116 634 155 574 q 78 778 78 693 q 118 919 78 862 q 232 1007 159 977 q 401 1037 305 1037 q 579 1005 503 1037 q 695 909 654 974 q 737 748 737 845 q 737 722 737 733 q 737 696 737 711 l 618 696 q 618 719 618 709 q 618 743 618 730 q 563 887 618 844 q 403 930 508 930 q 248 894 303 930 q 193 778 193 859 q 227 679 193 718 q 319 612 260 640 q 452 560 377 585 q 609 492 543 530 q 709 398 674 454 q 744 256 744 342 q 704 110 744 171 q 588 18 663 50 q 408 -14 513 -14 m 408 -237 q 352 -219 376 -237 q 328 -169 328 -201 q 352 -119 328 -137 q 408 -101 376 -101 q 464 -119 440 -101 q 488 -169 488 -137 q 464 -219 488 -201 q 408 -237 440 -237 z "},"Ṩ":{"ha":815,"x_min":70,"x_max":744,"o":"m 408 -14 q 226 20 301 -14 q 110 122 151 53 q 70 291 70 190 q 70 315 70 305 q 70 338 70 324 l 189 338 q 189 316 189 325 q 189 293 189 307 q 244 140 189 187 q 406 93 300 93 q 572 131 516 93 q 628 252 628 168 q 596 350 628 311 q 507 417 564 390 q 374 467 450 444 q 222 534 289 494 q 116 634 155 574 q 78 778 78 693 q 118 919 78 862 q 232 1007 159 977 q 401 1037 305 1037 q 579 1005 503 1037 q 695 909 654 974 q 737 748 737 845 q 737 722 737 733 q 737 696 737 711 l 618 696 q 618 719 618 709 q 618 743 618 730 q 563 887 618 844 q 403 930 508 930 q 248 894 303 930 q 193 778 193 859 q 227 679 193 718 q 319 612 260 640 q 452 560 377 585 q 609 492 543 530 q 709 398 674 454 q 744 256 744 342 q 704 110 744 171 q 588 18 663 50 q 408 -14 513 -14 m 408 -237 q 352 -219 376 -237 q 328 -169 328 -201 q 352 -119 328 -137 q 408 -101 376 -101 q 464 -119 440 -101 q 488 -169 488 -137 q 464 -219 488 -201 q 408 -237 440 -237 m 408 1091 q 352 1109 376 1091 q 328 1159 328 1128 q 352 1209 328 1191 q 408 1227 376 1227 q 464 1209 440 1227 q 488 1159 488 1191 q 464 1109 488 1127 q 408 1091 440 1091 z "},"ẞ":{"ha":855,"x_min":98,"x_max":785,"o":"m 98 0 l 98 775 q 130 914 98 859 q 219 997 161 969 q 356 1024 277 1024 l 721 1024 l 721 915 l 465 624 q 488 631 473 628 q 521 633 503 633 q 652 597 592 633 q 748 490 712 561 q 785 315 785 419 q 740 132 785 203 q 619 25 696 60 q 445 -9 542 -9 q 358 -1 394 -9 q 307 13 322 6 l 313 119 q 364 105 325 114 q 447 95 402 95 q 557 118 508 95 q 636 190 606 140 q 665 319 665 239 q 637 450 665 401 q 562 520 608 499 q 461 542 515 542 q 426 538 442 542 q 399 530 410 533 l 315 615 l 579 920 l 369 920 q 255 877 292 920 q 217 754 217 835 l 217 0 l 98 0 z "},"Ə":{"ha":867,"x_min":70,"x_max":797,"o":"m 426 -8 q 273 28 340 -8 q 161 131 207 65 q 93 286 116 197 q 70 485 70 376 q 70 521 70 504 q 71 544 70 538 l 703 544 l 703 439 l 180 439 l 188 479 q 188 466 188 474 q 188 454 188 458 q 202 315 188 379 q 246 202 217 250 q 320 127 275 153 q 426 100 365 100 q 539 130 492 100 q 617 216 587 160 q 663 347 648 271 q 677 513 677 422 q 661 692 677 615 q 615 820 646 769 q 538 897 584 872 q 429 923 491 923 q 323 901 367 923 q 249 845 278 879 q 206 773 220 810 q 191 704 192 735 l 76 704 q 101 815 78 758 q 170 920 125 872 q 280 1000 215 969 q 429 1031 345 1031 q 582 997 515 1031 q 698 897 650 963 q 772 734 747 831 q 797 513 797 638 q 773 306 797 401 q 701 141 748 211 q 584 31 653 70 q 426 -8 515 -8 z "},"T":{"ha":763,"x_min":54,"x_max":709,"o":"m 709 920 l 413 920 l 440 988 l 440 0 l 322 0 l 322 988 l 356 920 l 54 920 l 54 1024 l 709 1024 l 709 920 z "},"Ŧ":{"ha":763,"x_min":54,"x_max":709,"o":"m 140 484 l 140 542 l 623 542 l 623 484 l 140 484 m 709 920 l 413 920 l 440 988 l 440 0 l 322 0 l 322 988 l 356 920 l 54 920 l 54 1024 l 709 1024 l 709 920 z "},"Ť":{"ha":763,"x_min":54,"x_max":709,"o":"m 709 920 l 413 920 l 440 988 l 440 0 l 322 0 l 322 988 l 356 920 l 54 920 l 54 1024 l 709 1024 l 709 920 m 187 1200 l 276 1200 l 399 1095 l 364 1095 l 485 1200 l 576 1200 l 427 1076 l 335 1076 l 187 1200 z "},"Ţ":{"ha":763,"x_min":54,"x_max":709,"o":"m 709 920 l 413 920 l 440 988 l 440 0 l 322 0 l 322 988 l 356 920 l 54 920 l 54 1024 l 709 1024 l 709 920 m 439 -69 q 484 -81 463 -69 q 519 -114 506 -92 q 533 -172 533 -137 q 510 -241 533 -214 q 451 -282 488 -268 q 372 -295 414 -295 q 299 -286 333 -295 q 254 -269 266 -277 l 280 -219 q 316 -235 290 -226 q 376 -245 342 -245 q 447 -226 418 -245 q 476 -170 476 -206 q 460 -127 476 -140 q 420 -113 444 -113 q 384 -120 403 -113 q 356 -140 365 -128 l 305 -124 l 353 0 l 409 0 l 366 -112 l 356 -108 q 387 -82 363 -94 q 439 -69 411 -69 z "},"Ț":{"ha":763,"x_min":54,"x_max":709,"o":"m 709 920 l 413 920 l 440 988 l 440 0 l 322 0 l 322 988 l 356 920 l 54 920 l 54 1024 l 709 1024 l 709 920 m 371 -168 q 331 -154 347 -168 q 315 -117 315 -140 q 335 -76 315 -90 q 381 -62 355 -62 q 413 -69 397 -62 q 439 -90 428 -76 q 449 -130 449 -105 q 432 -211 449 -176 q 390 -268 415 -245 q 340 -304 365 -291 l 328 -280 q 368 -253 348 -271 q 401 -209 388 -235 q 414 -151 414 -183 q 398 -163 410 -158 q 371 -168 385 -168 z "},"Ṭ":{"ha":763,"x_min":54,"x_max":709,"o":"m 709 920 l 413 920 l 440 988 l 440 0 l 322 0 l 322 988 l 356 920 l 54 920 l 54 1024 l 709 1024 l 709 920 m 383 -237 q 327 -219 351 -237 q 303 -169 303 -201 q 327 -119 303 -137 q 383 -101 351 -101 q 439 -119 415 -101 q 463 -169 463 -137 q 439 -219 463 -201 q 383 -237 415 -237 z "},"Ṯ":{"ha":763,"x_min":54,"x_max":709,"o":"m 709 920 l 413 920 l 440 988 l 440 0 l 322 0 l 322 988 l 356 920 l 54 920 l 54 1024 l 709 1024 l 709 920 m 184 -180 l 184 -126 l 581 -126 l 581 -180 l 184 -180 z "},"U":{"ha":899,"x_min":98,"x_max":801,"o":"m 801 378 q 708 82 801 178 q 449 -14 615 -14 q 191 82 284 -14 q 98 378 98 178 q 98 443 98 408 q 98 515 98 477 l 98 1024 l 217 1024 l 217 505 q 217 438 217 469 q 217 380 217 406 q 276 159 217 226 q 449 93 335 93 q 624 159 565 93 q 683 380 683 226 l 683 1024 l 801 1024 l 801 378 z "},"Ú":{"ha":899,"x_min":98,"x_max":801,"o":"m 801 378 q 708 82 801 178 q 449 -14 615 -14 q 191 82 284 -14 q 98 378 98 178 q 98 443 98 408 q 98 515 98 477 l 98 1024 l 217 1024 l 217 505 q 217 438 217 469 q 217 380 217 406 q 276 159 217 226 q 449 93 335 93 q 624 159 565 93 q 683 380 683 226 l 683 1024 l 801 1024 l 801 378 m 364 1077 l 560 1203 l 676 1203 l 472 1077 l 364 1077 z "},"Ŭ":{"ha":899,"x_min":98,"x_max":801,"o":"m 801 378 q 708 82 801 178 q 449 -14 615 -14 q 191 82 284 -14 q 98 378 98 178 q 98 443 98 408 q 98 515 98 477 l 98 1024 l 217 1024 l 217 505 q 217 438 217 469 q 217 380 217 406 q 276 159 217 226 q 449 93 335 93 q 624 159 565 93 q 683 380 683 226 l 683 1024 l 801 1024 l 801 378 m 283 1187 l 357 1187 q 382 1138 357 1159 q 449 1117 407 1117 q 517 1138 492 1117 q 542 1187 542 1159 l 617 1187 q 568 1100 617 1134 q 449 1065 520 1065 q 331 1100 378 1065 q 283 1187 283 1134 z "},"Ǔ":{"ha":899,"x_min":98,"x_max":801,"o":"m 801 378 q 708 82 801 178 q 449 -14 615 -14 q 191 82 284 -14 q 98 378 98 178 q 98 443 98 408 q 98 515 98 477 l 98 1024 l 217 1024 l 217 505 q 217 438 217 469 q 217 380 217 406 q 276 159 217 226 q 449 93 335 93 q 624 159 565 93 q 683 380 683 226 l 683 1024 l 801 1024 l 801 378 m 259 1311 l 344 1311 l 467 1166 l 431 1166 l 553 1311 l 640 1311 l 492 1142 l 406 1142 l 259 1311 z "},"Û":{"ha":899,"x_min":98,"x_max":801,"o":"m 801 378 q 708 82 801 178 q 449 -14 615 -14 q 191 82 284 -14 q 98 378 98 178 q 98 443 98 408 q 98 515 98 477 l 98 1024 l 217 1024 l 217 505 q 217 438 217 469 q 217 380 217 406 q 276 159 217 226 q 449 93 335 93 q 624 159 565 93 q 683 380 683 226 l 683 1024 l 801 1024 l 801 378 m 255 1076 l 403 1200 l 495 1200 l 644 1076 l 553 1076 l 432 1181 l 467 1181 l 344 1076 l 255 1076 z "},"Ȕ":{"ha":899,"x_min":98,"x_max":801,"o":"m 801 378 q 708 82 801 178 q 449 -14 615 -14 q 191 82 284 -14 q 98 378 98 178 q 98 443 98 408 q 98 515 98 477 l 98 1024 l 217 1024 l 217 505 q 217 438 217 469 q 217 380 217 406 q 276 159 217 226 q 449 93 335 93 q 624 159 565 93 q 683 380 683 226 l 683 1024 l 801 1024 l 801 378 m 601 1076 l 524 1076 l 385 1203 l 476 1203 l 601 1076 m 388 1076 l 311 1076 l 164 1203 l 256 1203 l 388 1076 z "},"Ü":{"ha":899,"x_min":98,"x_max":801,"o":"m 801 378 q 708 82 801 178 q 449 -14 615 -14 q 191 82 284 -14 q 98 378 98 178 q 98 443 98 408 q 98 515 98 477 l 98 1024 l 217 1024 l 217 505 q 217 438 217 469 q 217 380 217 406 q 276 159 217 226 q 449 93 335 93 q 624 159 565 93 q 683 380 683 226 l 683 1024 l 801 1024 l 801 378 m 315 1084 q 262 1101 285 1084 q 240 1149 240 1119 q 262 1195 240 1178 q 315 1213 285 1213 q 367 1195 345 1213 q 390 1149 390 1178 q 367 1101 390 1119 q 315 1084 345 1084 m 585 1084 q 533 1101 555 1084 q 510 1149 510 1119 q 533 1195 510 1178 q 585 1213 555 1213 q 638 1195 615 1213 q 660 1149 660 1178 q 638 1101 660 1119 q 585 1084 615 1084 z "},"Ǘ":{"ha":899,"x_min":98,"x_max":801,"o":"m 801 378 q 708 82 801 178 q 449 -14 615 -14 q 191 82 284 -14 q 98 378 98 178 q 98 443 98 408 q 98 515 98 477 l 98 1024 l 217 1024 l 217 505 q 217 438 217 469 q 217 380 217 406 q 276 159 217 226 q 449 93 335 93 q 624 159 565 93 q 683 380 683 226 l 683 1024 l 801 1024 l 801 378 m 315 1084 q 262 1101 285 1084 q 240 1149 240 1119 q 262 1195 240 1178 q 315 1213 285 1213 q 367 1195 345 1213 q 390 1149 390 1178 q 367 1101 390 1119 q 315 1084 345 1084 m 585 1084 q 533 1101 555 1084 q 510 1149 510 1119 q 533 1195 510 1178 q 585 1213 555 1213 q 638 1195 615 1213 q 660 1149 660 1178 q 638 1101 660 1119 q 585 1084 615 1084 m 364 1251 l 560 1377 l 676 1377 l 472 1251 l 364 1251 z "},"Ǚ":{"ha":899,"x_min":98,"x_max":801,"o":"m 801 378 q 708 82 801 178 q 449 -14 615 -14 q 191 82 284 -14 q 98 378 98 178 q 98 443 98 408 q 98 515 98 477 l 98 1024 l 217 1024 l 217 505 q 217 438 217 469 q 217 380 217 406 q 276 159 217 226 q 449 93 335 93 q 624 159 565 93 q 683 380 683 226 l 683 1024 l 801 1024 l 801 378 m 315 1084 q 262 1101 285 1084 q 240 1149 240 1119 q 262 1195 240 1178 q 315 1213 285 1213 q 367 1195 345 1213 q 390 1149 390 1178 q 367 1101 390 1119 q 315 1084 345 1084 m 585 1084 q 533 1101 555 1084 q 510 1149 510 1119 q 533 1195 510 1178 q 585 1213 555 1213 q 638 1195 615 1213 q 660 1149 660 1178 q 638 1101 660 1119 q 585 1084 615 1084 m 255 1374 l 344 1374 l 467 1269 l 432 1269 l 553 1374 l 644 1374 l 495 1250 l 403 1250 l 255 1374 z "},"Ǜ":{"ha":899,"x_min":98,"x_max":801,"o":"m 801 378 q 708 82 801 178 q 449 -14 615 -14 q 191 82 284 -14 q 98 378 98 178 q 98 443 98 408 q 98 515 98 477 l 98 1024 l 217 1024 l 217 505 q 217 438 217 469 q 217 380 217 406 q 276 159 217 226 q 449 93 335 93 q 624 159 565 93 q 683 380 683 226 l 683 1024 l 801 1024 l 801 378 m 315 1084 q 262 1101 285 1084 q 240 1149 240 1119 q 262 1195 240 1178 q 315 1213 285 1213 q 367 1195 345 1213 q 390 1149 390 1178 q 367 1101 390 1119 q 315 1084 345 1084 m 585 1084 q 533 1101 555 1084 q 510 1149 510 1119 q 533 1195 510 1178 q 585 1213 555 1213 q 638 1195 615 1213 q 660 1149 660 1178 q 638 1101 660 1119 q 585 1084 615 1084 m 540 1251 l 432 1251 l 228 1377 l 344 1377 l 540 1251 z "},"Ǖ":{"ha":899,"x_min":98,"x_max":801,"o":"m 801 378 q 708 82 801 178 q 449 -14 615 -14 q 191 82 284 -14 q 98 378 98 178 q 98 443 98 408 q 98 515 98 477 l 98 1024 l 217 1024 l 217 505 q 217 438 217 469 q 217 380 217 406 q 276 159 217 226 q 449 93 335 93 q 624 159 565 93 q 683 380 683 226 l 683 1024 l 801 1024 l 801 378 m 315 1084 q 262 1101 285 1084 q 240 1149 240 1119 q 262 1195 240 1178 q 315 1213 285 1213 q 367 1195 345 1213 q 390 1149 390 1178 q 367 1101 390 1119 q 315 1084 345 1084 m 585 1084 q 533 1101 555 1084 q 510 1149 510 1119 q 533 1195 510 1178 q 585 1213 555 1213 q 638 1195 615 1213 q 660 1149 660 1178 q 638 1101 660 1119 q 585 1084 615 1084 m 269 1292 l 269 1346 l 628 1346 l 628 1292 l 269 1292 z "},"Ụ":{"ha":899,"x_min":98,"x_max":801,"o":"m 801 378 q 708 82 801 178 q 449 -14 615 -14 q 191 82 284 -14 q 98 378 98 178 q 98 443 98 408 q 98 515 98 477 l 98 1024 l 217 1024 l 217 505 q 217 438 217 469 q 217 380 217 406 q 276 159 217 226 q 449 93 335 93 q 624 159 565 93 q 683 380 683 226 l 683 1024 l 801 1024 l 801 378 m 449 -237 q 393 -219 417 -237 q 369 -169 369 -201 q 393 -119 369 -137 q 449 -101 417 -101 q 505 -119 481 -101 q 529 -169 529 -137 q 505 -219 529 -201 q 449 -237 481 -237 z "},"Ù":{"ha":899,"x_min":98,"x_max":801,"o":"m 801 378 q 708 82 801 178 q 449 -14 615 -14 q 191 82 284 -14 q 98 378 98 178 q 98 443 98 408 q 98 515 98 477 l 98 1024 l 217 1024 l 217 505 q 217 438 217 469 q 217 380 217 406 q 276 159 217 226 q 449 93 335 93 q 624 159 565 93 q 683 380 683 226 l 683 1024 l 801 1024 l 801 378 m 540 1077 l 432 1077 l 228 1203 l 344 1203 l 540 1077 z "},"Ủ":{"ha":899,"x_min":98,"x_max":801,"o":"m 801 378 q 708 82 801 178 q 449 -14 615 -14 q 191 82 284 -14 q 98 378 98 178 q 98 443 98 408 q 98 515 98 477 l 98 1024 l 217 1024 l 217 505 q 217 438 217 469 q 217 380 217 406 q 276 159 217 226 q 449 93 335 93 q 624 159 565 93 q 683 380 683 226 l 683 1024 l 801 1024 l 801 378 m 305 1224 q 437 1218 380 1224 q 526 1195 494 1213 q 558 1142 558 1178 q 534 1092 558 1111 q 474 1064 511 1073 q 394 1056 436 1056 l 378 1093 q 430 1098 403 1094 q 475 1112 457 1102 q 494 1138 494 1122 q 442 1173 494 1166 q 305 1180 391 1180 l 305 1224 z "},"Ư":{"ha":956,"x_min":98,"x_max":956,"o":"m 753 1024 q 846 1069 814 1024 q 878 1202 878 1113 l 956 1202 q 901 1022 956 1081 q 753 963 847 963 l 753 1024 m 801 378 q 708 82 801 178 q 449 -14 615 -14 q 191 82 284 -14 q 98 378 98 178 q 98 443 98 408 q 98 515 98 477 l 98 1024 l 217 1024 l 217 505 q 217 438 217 469 q 217 380 217 406 q 276 159 217 226 q 449 93 335 93 q 624 159 565 93 q 683 380 683 226 l 683 1024 l 801 1024 l 801 378 z "},"Ứ":{"ha":956,"x_min":98,"x_max":956,"o":"m 753 1024 q 846 1069 814 1024 q 878 1202 878 1113 l 956 1202 q 901 1022 956 1081 q 753 963 847 963 l 753 1024 m 801 378 q 708 82 801 178 q 449 -14 615 -14 q 191 82 284 -14 q 98 378 98 178 q 98 443 98 408 q 98 515 98 477 l 98 1024 l 217 1024 l 217 505 q 217 438 217 469 q 217 380 217 406 q 276 159 217 226 q 449 93 335 93 q 624 159 565 93 q 683 380 683 226 l 683 1024 l 801 1024 l 801 378 m 364 1077 l 560 1203 l 676 1203 l 472 1077 l 364 1077 z "},"Ự":{"ha":956,"x_min":98,"x_max":956,"o":"m 439 -249 q 383 -231 407 -249 q 359 -181 359 -212 q 383 -131 359 -149 q 439 -113 407 -113 q 495 -131 471 -113 q 519 -181 519 -149 q 495 -231 519 -213 q 439 -249 471 -249 m 753 1024 q 846 1069 814 1024 q 878 1202 878 1113 l 956 1202 q 901 1022 956 1081 q 753 963 847 963 l 753 1024 m 801 378 q 708 82 801 178 q 449 -14 615 -14 q 191 82 284 -14 q 98 378 98 178 q 98 443 98 408 q 98 515 98 477 l 98 1024 l 217 1024 l 217 505 q 217 438 217 469 q 217 380 217 406 q 276 159 217 226 q 449 93 335 93 q 624 159 565 93 q 683 380 683 226 l 683 1024 l 801 1024 l 801 378 z "},"Ừ":{"ha":956,"x_min":98,"x_max":956,"o":"m 547 1077 l 439 1077 l 235 1203 l 351 1203 l 547 1077 m 753 1024 q 846 1069 814 1024 q 878 1202 878 1113 l 956 1202 q 901 1022 956 1081 q 753 963 847 963 l 753 1024 m 801 378 q 708 82 801 178 q 449 -14 615 -14 q 191 82 284 -14 q 98 378 98 178 q 98 443 98 408 q 98 515 98 477 l 98 1024 l 217 1024 l 217 505 q 217 438 217 469 q 217 380 217 406 q 276 159 217 226 q 449 93 335 93 q 624 159 565 93 q 683 380 683 226 l 683 1024 l 801 1024 l 801 378 z "},"Ử":{"ha":956,"x_min":98,"x_max":956,"o":"m 753 1024 q 846 1069 814 1024 q 878 1202 878 1113 l 956 1202 q 901 1022 956 1081 q 753 963 847 963 l 753 1024 m 801 378 q 708 82 801 178 q 449 -14 615 -14 q 191 82 284 -14 q 98 378 98 178 q 98 443 98 408 q 98 515 98 477 l 98 1024 l 217 1024 l 217 505 q 217 438 217 469 q 217 380 217 406 q 276 159 217 226 q 449 93 335 93 q 624 159 565 93 q 683 380 683 226 l 683 1024 l 801 1024 l 801 378 m 305 1224 q 437 1218 380 1224 q 526 1195 494 1213 q 558 1142 558 1178 q 534 1092 558 1111 q 474 1064 511 1073 q 394 1056 436 1056 l 378 1093 q 430 1098 403 1094 q 475 1112 457 1102 q 494 1138 494 1122 q 442 1173 494 1166 q 305 1180 391 1180 l 305 1224 z "},"Ữ":{"ha":956,"x_min":98,"x_max":956,"o":"m 656 1183 q 643 1136 655 1163 q 608 1091 632 1110 q 543 1072 583 1072 q 489 1084 512 1072 q 448 1110 466 1097 q 416 1131 433 1122 q 376 1141 399 1141 q 338 1124 348 1141 q 326 1090 327 1108 l 256 1090 q 271 1140 258 1113 q 311 1185 285 1166 q 376 1204 338 1204 q 430 1192 408 1204 q 468 1167 452 1180 q 502 1144 485 1155 q 539 1134 519 1134 q 576 1150 567 1134 q 587 1183 585 1166 l 656 1183 m 753 1024 q 846 1069 814 1024 q 878 1202 878 1113 l 956 1202 q 901 1022 956 1081 q 753 963 847 963 l 753 1024 m 801 378 q 708 82 801 178 q 449 -14 615 -14 q 191 82 284 -14 q 98 378 98 178 q 98 443 98 408 q 98 515 98 477 l 98 1024 l 217 1024 l 217 505 q 217 438 217 469 q 217 380 217 406 q 276 159 217 226 q 449 93 335 93 q 624 159 565 93 q 683 380 683 226 l 683 1024 l 801 1024 l 801 378 z "},"Ű":{"ha":899,"x_min":98,"x_max":801,"o":"m 801 378 q 708 82 801 178 q 449 -14 615 -14 q 191 82 284 -14 q 98 378 98 178 q 98 443 98 408 q 98 515 98 477 l 98 1024 l 217 1024 l 217 505 q 217 438 217 469 q 217 380 217 406 q 276 159 217 226 q 449 93 335 93 q 624 159 565 93 q 683 380 683 226 l 683 1024 l 801 1024 l 801 378 m 307 1077 l 465 1203 l 563 1203 l 388 1077 l 307 1077 m 501 1077 l 660 1203 l 756 1203 l 582 1077 l 501 1077 z "},"Ȗ":{"ha":899,"x_min":98,"x_max":801,"o":"m 801 378 q 708 82 801 178 q 449 -14 615 -14 q 191 82 284 -14 q 98 378 98 178 q 98 443 98 408 q 98 515 98 477 l 98 1024 l 217 1024 l 217 505 q 217 438 217 469 q 217 380 217 406 q 276 159 217 226 q 449 93 335 93 q 624 159 565 93 q 683 380 683 226 l 683 1024 l 801 1024 l 801 378 m 283 1068 q 331 1153 283 1121 q 449 1185 378 1185 q 568 1153 520 1185 q 617 1068 617 1121 l 542 1068 q 517 1115 542 1095 q 449 1134 492 1134 q 382 1115 407 1134 q 356 1068 356 1095 l 283 1068 z "},"Ū":{"ha":899,"x_min":98,"x_max":801,"o":"m 801 378 q 708 82 801 178 q 449 -14 615 -14 q 191 82 284 -14 q 98 378 98 178 q 98 443 98 408 q 98 515 98 477 l 98 1024 l 217 1024 l 217 505 q 217 438 217 469 q 217 380 217 406 q 276 159 217 226 q 449 93 335 93 q 624 159 565 93 q 683 380 683 226 l 683 1024 l 801 1024 l 801 378 m 269 1118 l 269 1172 l 628 1172 l 628 1118 l 269 1118 z "},"Ṻ":{"ha":899,"x_min":98,"x_max":801,"o":"m 801 378 q 708 82 801 178 q 449 -14 615 -14 q 191 82 284 -14 q 98 378 98 178 q 98 443 98 408 q 98 515 98 477 l 98 1024 l 217 1024 l 217 505 q 217 438 217 469 q 217 380 217 406 q 276 159 217 226 q 449 93 335 93 q 624 159 565 93 q 683 380 683 226 l 683 1024 l 801 1024 l 801 378 m 269 1118 l 269 1172 l 628 1172 l 628 1118 l 269 1118 m 315 1231 q 262 1249 285 1231 q 240 1296 240 1266 q 262 1342 240 1325 q 315 1360 285 1360 q 367 1342 345 1360 q 390 1296 390 1325 q 367 1249 390 1266 q 315 1231 345 1231 m 585 1231 q 533 1249 555 1231 q 510 1296 510 1266 q 533 1342 510 1325 q 585 1360 555 1360 q 638 1342 615 1360 q 660 1296 660 1325 q 638 1249 660 1266 q 585 1231 615 1231 z "},"Ų":{"ha":899,"x_min":98,"x_max":801,"o":"m 603 -219 l 603 -281 q 573 -285 590 -283 q 539 -286 556 -286 q 472 -275 502 -286 q 423 -241 441 -265 q 405 -181 405 -218 q 425 -109 405 -146 q 476 -40 446 -73 q 535 14 507 -8 l 603 14 q 549 -41 578 -8 q 497 -106 519 -73 q 476 -166 476 -140 q 495 -210 476 -197 q 547 -224 515 -224 q 576 -223 560 -224 q 603 -219 592 -221 m 801 378 q 708 82 801 178 q 449 -14 615 -14 q 191 82 284 -14 q 98 378 98 178 q 98 443 98 408 q 98 515 98 477 l 98 1024 l 217 1024 l 217 505 q 217 438 217 469 q 217 380 217 406 q 276 159 217 226 q 449 93 335 93 q 624 159 565 93 q 683 380 683 226 l 683 1024 l 801 1024 l 801 378 z "},"Ů":{"ha":899,"x_min":98,"x_max":801,"o":"m 801 378 q 708 82 801 178 q 449 -14 615 -14 q 191 82 284 -14 q 98 378 98 178 q 98 443 98 408 q 98 515 98 477 l 98 1024 l 217 1024 l 217 505 q 217 438 217 469 q 217 380 217 406 q 276 159 217 226 q 449 93 335 93 q 624 159 565 93 q 683 380 683 226 l 683 1024 l 801 1024 l 801 378 m 449 1113 q 505 1135 482 1113 q 527 1190 527 1158 q 505 1245 527 1223 q 449 1268 482 1268 q 394 1245 417 1268 q 372 1190 372 1223 q 394 1135 372 1158 q 449 1113 417 1113 m 449 1056 q 382 1074 413 1056 q 333 1123 351 1092 q 315 1190 315 1153 q 333 1258 315 1227 q 382 1306 351 1288 q 449 1324 413 1324 q 517 1306 487 1324 q 565 1258 547 1288 q 583 1190 583 1227 q 565 1123 583 1153 q 517 1074 547 1092 q 449 1056 487 1056 z "},"Ũ":{"ha":899,"x_min":98,"x_max":801,"o":"m 801 378 q 708 82 801 178 q 449 -14 615 -14 q 191 82 284 -14 q 98 378 98 178 q 98 443 98 408 q 98 515 98 477 l 98 1024 l 217 1024 l 217 505 q 217 438 217 469 q 217 380 217 406 q 276 159 217 226 q 449 93 335 93 q 624 159 565 93 q 683 380 683 226 l 683 1024 l 801 1024 l 801 378 m 652 1183 q 640 1136 651 1163 q 604 1091 628 1110 q 540 1072 580 1072 q 485 1084 508 1072 q 444 1110 463 1097 q 412 1131 429 1122 q 373 1141 395 1141 q 334 1124 344 1141 q 322 1090 324 1108 l 253 1090 q 268 1140 254 1113 q 308 1185 281 1166 q 373 1204 334 1204 q 427 1192 405 1204 q 465 1167 449 1180 q 499 1144 481 1155 q 535 1134 516 1134 q 573 1150 564 1134 q 583 1183 582 1166 l 652 1183 z "},"Ṹ":{"ha":899,"x_min":98,"x_max":801,"o":"m 801 378 q 708 82 801 178 q 449 -14 615 -14 q 191 82 284 -14 q 98 378 98 178 q 98 443 98 408 q 98 515 98 477 l 98 1024 l 217 1024 l 217 505 q 217 438 217 469 q 217 380 217 406 q 276 159 217 226 q 449 93 335 93 q 624 159 565 93 q 683 380 683 226 l 683 1024 l 801 1024 l 801 378 m 652 1183 q 640 1136 651 1163 q 604 1091 628 1110 q 540 1072 580 1072 q 485 1084 508 1072 q 444 1110 463 1097 q 412 1131 429 1122 q 373 1141 395 1141 q 334 1124 344 1141 q 322 1090 324 1108 l 253 1090 q 268 1140 254 1113 q 308 1185 281 1166 q 373 1204 334 1204 q 427 1192 405 1204 q 465 1167 449 1180 q 499 1144 481 1155 q 535 1134 516 1134 q 573 1150 564 1134 q 583 1183 582 1166 l 652 1183 m 364 1255 l 560 1381 l 676 1381 l 472 1255 l 364 1255 z "},"V":{"ha":835,"x_min":54,"x_max":781,"o":"m 333 -6 l 54 1024 l 184 1024 l 423 88 l 415 88 l 651 1024 l 781 1024 l 506 -6 l 333 -6 z "},"W":{"ha":1197,"x_min":59,"x_max":1138,"o":"m 222 0 l 59 1024 l 181 1024 l 319 51 l 301 51 l 520 1024 l 677 1024 l 895 51 l 877 51 l 1015 1024 l 1138 1024 l 974 0 l 792 0 l 592 924 l 606 924 l 405 0 l 222 0 z "},"Ẃ":{"ha":1197,"x_min":59,"x_max":1138,"o":"m 222 0 l 59 1024 l 181 1024 l 319 51 l 301 51 l 520 1024 l 677 1024 l 895 51 l 877 51 l 1015 1024 l 1138 1024 l 974 0 l 792 0 l 592 924 l 606 924 l 405 0 l 222 0 m 516 1077 l 712 1203 l 828 1203 l 624 1077 l 516 1077 z "},"Ŵ":{"ha":1197,"x_min":59,"x_max":1138,"o":"m 222 0 l 59 1024 l 181 1024 l 319 51 l 301 51 l 520 1024 l 677 1024 l 895 51 l 877 51 l 1015 1024 l 1138 1024 l 974 0 l 792 0 l 592 924 l 606 924 l 405 0 l 222 0 m 407 1076 l 555 1200 l 647 1200 l 796 1076 l 706 1076 l 584 1181 l 619 1181 l 496 1076 l 407 1076 z "},"Ẅ":{"ha":1197,"x_min":59,"x_max":1138,"o":"m 222 0 l 59 1024 l 181 1024 l 319 51 l 301 51 l 520 1024 l 677 1024 l 895 51 l 877 51 l 1015 1024 l 1138 1024 l 974 0 l 792 0 l 592 924 l 606 924 l 405 0 l 222 0 m 467 1084 q 414 1101 437 1084 q 392 1149 392 1119 q 414 1195 392 1178 q 467 1213 437 1213 q 519 1195 497 1213 q 542 1149 542 1178 q 519 1101 542 1119 q 467 1084 497 1084 m 737 1084 q 685 1101 707 1084 q 663 1149 663 1119 q 685 1195 663 1178 q 737 1213 707 1213 q 790 1195 767 1213 q 812 1149 812 1178 q 790 1101 812 1119 q 737 1084 767 1084 z "},"Ẁ":{"ha":1197,"x_min":59,"x_max":1138,"o":"m 222 0 l 59 1024 l 181 1024 l 319 51 l 301 51 l 520 1024 l 677 1024 l 895 51 l 877 51 l 1015 1024 l 1138 1024 l 974 0 l 792 0 l 592 924 l 606 924 l 405 0 l 222 0 m 692 1077 l 584 1077 l 380 1203 l 496 1203 l 692 1077 z "},"X":{"ha":824,"x_min":40,"x_max":785,"o":"m 375 555 l 374 458 l 48 1024 l 181 1024 l 452 540 l 372 540 l 642 1024 l 774 1024 l 451 458 l 450 555 l 785 0 l 651 0 l 370 474 l 454 474 l 172 0 l 40 0 l 375 555 z "},"Y":{"ha":799,"x_min":54,"x_max":745,"o":"m 745 1024 l 458 356 l 458 0 l 340 0 l 340 356 l 54 1024 l 179 1024 l 424 431 l 374 431 l 619 1024 l 745 1024 z "},"Ý":{"ha":799,"x_min":54,"x_max":745,"o":"m 745 1024 l 458 356 l 458 0 l 340 0 l 340 356 l 54 1024 l 179 1024 l 424 431 l 374 431 l 619 1024 l 745 1024 m 314 1077 l 510 1203 l 626 1203 l 422 1077 l 314 1077 z "},"Ŷ":{"ha":799,"x_min":54,"x_max":745,"o":"m 745 1024 l 458 356 l 458 0 l 340 0 l 340 356 l 54 1024 l 179 1024 l 424 431 l 374 431 l 619 1024 l 745 1024 m 205 1076 l 353 1200 l 445 1200 l 594 1076 l 503 1076 l 382 1181 l 417 1181 l 294 1076 l 205 1076 z "},"Ÿ":{"ha":799,"x_min":54,"x_max":745,"o":"m 745 1024 l 458 356 l 458 0 l 340 0 l 340 356 l 54 1024 l 179 1024 l 424 431 l 374 431 l 619 1024 l 745 1024 m 265 1084 q 212 1101 235 1084 q 190 1149 190 1119 q 212 1195 190 1178 q 265 1213 235 1213 q 317 1195 295 1213 q 340 1149 340 1178 q 317 1101 340 1119 q 265 1084 295 1084 m 535 1084 q 483 1101 505 1084 q 460 1149 460 1119 q 483 1195 460 1178 q 535 1213 505 1213 q 588 1195 565 1213 q 610 1149 610 1178 q 588 1101 610 1119 q 535 1084 565 1084 z "},"Ỵ":{"ha":799,"x_min":54,"x_max":745,"o":"m 745 1024 l 458 356 l 458 0 l 340 0 l 340 356 l 54 1024 l 179 1024 l 424 431 l 374 431 l 619 1024 l 745 1024 m 399 -237 q 343 -219 367 -237 q 319 -169 319 -201 q 343 -119 319 -137 q 399 -101 367 -101 q 455 -119 431 -101 q 479 -169 479 -137 q 455 -219 479 -201 q 399 -237 431 -237 z "},"Ỳ":{"ha":799,"x_min":54,"x_max":745,"o":"m 745 1024 l 458 356 l 458 0 l 340 0 l 340 356 l 54 1024 l 179 1024 l 424 431 l 374 431 l 619 1024 l 745 1024 m 490 1077 l 382 1077 l 178 1203 l 294 1203 l 490 1077 z "},"Ỷ":{"ha":799,"x_min":54,"x_max":745,"o":"m 745 1024 l 458 356 l 458 0 l 340 0 l 340 356 l 54 1024 l 179 1024 l 424 431 l 374 431 l 619 1024 l 745 1024 m 255 1224 q 387 1218 330 1224 q 476 1195 444 1213 q 508 1142 508 1178 q 484 1092 508 1111 q 424 1064 461 1073 q 344 1056 386 1056 l 328 1093 q 380 1098 353 1094 q 425 1112 407 1102 q 444 1138 444 1122 q 392 1173 444 1166 q 255 1180 341 1180 l 255 1224 z "},"Ȳ":{"ha":799,"x_min":54,"x_max":745,"o":"m 745 1024 l 458 356 l 458 0 l 340 0 l 340 356 l 54 1024 l 179 1024 l 424 431 l 374 431 l 619 1024 l 745 1024 m 219 1118 l 219 1172 l 578 1172 l 578 1118 l 219 1118 z "},"Ỹ":{"ha":799,"x_min":54,"x_max":745,"o":"m 745 1024 l 458 356 l 458 0 l 340 0 l 340 356 l 54 1024 l 179 1024 l 424 431 l 374 431 l 619 1024 l 745 1024 m 602 1183 q 590 1136 601 1163 q 554 1091 578 1110 q 490 1072 530 1072 q 435 1084 458 1072 q 394 1110 413 1097 q 362 1131 379 1122 q 323 1141 345 1141 q 284 1124 294 1141 q 272 1090 274 1108 l 203 1090 q 218 1140 204 1113 q 258 1185 231 1166 q 323 1204 284 1204 q 377 1192 355 1204 q 415 1167 399 1180 q 449 1144 431 1155 q 485 1134 466 1134 q 523 1150 514 1134 q 533 1183 532 1166 l 602 1183 z "},"Z":{"ha":766,"x_min":72,"x_max":694,"o":"m 206 104 l 687 104 l 687 0 l 72 0 l 72 93 l 562 921 l 563 920 l 104 920 l 104 1024 l 694 1024 l 694 933 l 206 106 l 206 104 z "},"Ź":{"ha":766,"x_min":72,"x_max":694,"o":"m 206 104 l 687 104 l 687 0 l 72 0 l 72 93 l 562 921 l 563 920 l 104 920 l 104 1024 l 694 1024 l 694 933 l 206 106 l 206 104 m 298 1077 l 494 1203 l 610 1203 l 406 1077 l 298 1077 z "},"Ž":{"ha":766,"x_min":72,"x_max":694,"o":"m 206 104 l 687 104 l 687 0 l 72 0 l 72 93 l 562 921 l 563 920 l 104 920 l 104 1024 l 694 1024 l 694 933 l 206 106 l 206 104 m 189 1200 l 278 1200 l 401 1095 l 366 1095 l 488 1200 l 578 1200 l 429 1076 l 337 1076 l 189 1200 z "},"Ż":{"ha":766,"x_min":72,"x_max":694,"o":"m 206 104 l 687 104 l 687 0 l 72 0 l 72 93 l 562 921 l 563 920 l 104 920 l 104 1024 l 694 1024 l 694 933 l 206 106 l 206 104 m 385 1091 q 329 1109 353 1091 q 305 1159 305 1128 q 329 1209 305 1191 q 385 1227 353 1227 q 441 1209 417 1227 q 465 1159 465 1191 q 441 1109 465 1127 q 385 1091 417 1091 z "},"Ẓ":{"ha":766,"x_min":72,"x_max":694,"o":"m 206 104 l 687 104 l 687 0 l 72 0 l 72 93 l 562 921 l 563 920 l 104 920 l 104 1024 l 694 1024 l 694 933 l 206 106 l 206 104 m 383 -233 q 327 -214 351 -233 q 303 -165 303 -196 q 327 -115 303 -133 q 383 -97 351 -97 q 439 -115 415 -97 q 463 -165 463 -133 q 439 -215 463 -197 q 383 -233 415 -233 z "},"a":{"ha":846,"x_min":85,"x_max":792,"o":"m 364 -14 q 217 13 280 -14 q 119 89 154 39 q 85 208 85 138 q 122 328 85 280 q 228 403 160 376 q 386 440 296 431 q 580 467 522 453 q 638 511 638 481 q 638 512 638 512 q 638 513 638 513 q 585 609 638 577 q 435 640 533 640 q 275 605 332 640 q 218 489 218 569 l 101 489 q 144 630 101 572 q 261 718 186 688 q 435 749 337 749 q 598 721 526 749 q 714 640 671 694 q 756 507 756 586 q 756 478 756 492 q 756 449 756 464 l 756 139 q 758 92 756 115 q 765 51 760 69 q 779 18 772 31 q 792 0 787 5 l 673 0 q 663 16 669 3 q 649 47 656 29 q 642 82 644 60 q 639 126 639 103 l 658 113 q 595 47 637 75 q 496 2 554 18 q 364 -14 438 -14 m 383 92 q 512 114 454 92 q 603 179 569 136 q 638 286 638 222 l 638 433 l 664 388 q 553 360 619 371 q 415 342 487 349 q 257 306 310 333 q 203 215 203 278 q 247 123 203 154 q 383 92 291 92 z "},"á":{"ha":846,"x_min":85,"x_max":792,"o":"m 364 -14 q 217 13 280 -14 q 119 89 154 39 q 85 208 85 138 q 122 328 85 280 q 228 403 160 376 q 386 440 296 431 q 580 467 522 453 q 638 511 638 481 q 638 512 638 512 q 638 513 638 513 q 585 609 638 577 q 435 640 533 640 q 275 605 332 640 q 218 489 218 569 l 101 489 q 144 630 101 572 q 261 718 186 688 q 435 749 337 749 q 598 721 526 749 q 714 640 671 694 q 756 507 756 586 q 756 478 756 492 q 756 449 756 464 l 756 139 q 758 92 756 115 q 765 51 760 69 q 779 18 772 31 q 792 0 787 5 l 673 0 q 663 16 669 3 q 649 47 656 29 q 642 82 644 60 q 639 126 639 103 l 658 113 q 595 47 637 75 q 496 2 554 18 q 364 -14 438 -14 m 383 92 q 512 114 454 92 q 603 179 569 136 q 638 286 638 222 l 638 433 l 664 388 q 553 360 619 371 q 415 342 487 349 q 257 306 310 333 q 203 215 203 278 q 247 123 203 154 q 383 92 291 92 m 360 856 l 526 1024 l 635 1024 l 456 856 l 360 856 z "},"ă":{"ha":846,"x_min":85,"x_max":792,"o":"m 364 -14 q 217 13 280 -14 q 119 89 154 39 q 85 208 85 138 q 122 328 85 280 q 228 403 160 376 q 386 440 296 431 q 580 467 522 453 q 638 511 638 481 q 638 512 638 512 q 638 513 638 513 q 585 609 638 577 q 435 640 533 640 q 275 605 332 640 q 218 489 218 569 l 101 489 q 144 630 101 572 q 261 718 186 688 q 435 749 337 749 q 598 721 526 749 q 714 640 671 694 q 756 507 756 586 q 756 478 756 492 q 756 449 756 464 l 756 139 q 758 92 756 115 q 765 51 760 69 q 779 18 772 31 q 792 0 787 5 l 673 0 q 663 16 669 3 q 649 47 656 29 q 642 82 644 60 q 639 126 639 103 l 658 113 q 595 47 637 75 q 496 2 554 18 q 364 -14 438 -14 m 383 92 q 512 114 454 92 q 603 179 569 136 q 638 286 638 222 l 638 433 l 664 388 q 553 360 619 371 q 415 342 487 349 q 257 306 310 333 q 203 215 203 278 q 247 123 203 154 q 383 92 291 92 m 276 1038 l 349 1038 q 375 966 349 995 q 442 938 400 938 q 510 966 485 938 q 535 1038 535 995 l 610 1038 q 561 927 610 968 q 442 887 513 887 q 324 927 372 887 q 276 1038 276 968 z "},"ắ":{"ha":846,"x_min":85,"x_max":792,"o":"m 364 -14 q 217 13 280 -14 q 119 89 154 39 q 85 208 85 138 q 122 328 85 280 q 228 403 160 376 q 386 440 296 431 q 580 467 522 453 q 638 511 638 481 q 638 512 638 512 q 638 513 638 513 q 585 609 638 577 q 435 640 533 640 q 275 605 332 640 q 218 489 218 569 l 101 489 q 144 630 101 572 q 261 718 186 688 q 435 749 337 749 q 598 721 526 749 q 714 640 671 694 q 756 507 756 586 q 756 478 756 492 q 756 449 756 464 l 756 139 q 758 92 756 115 q 765 51 760 69 q 779 18 772 31 q 792 0 787 5 l 673 0 q 663 16 669 3 q 649 47 656 29 q 642 82 644 60 q 639 126 639 103 l 658 113 q 595 47 637 75 q 496 2 554 18 q 364 -14 438 -14 m 383 92 q 512 114 454 92 q 603 179 569 136 q 638 286 638 222 l 638 433 l 664 388 q 553 360 619 371 q 415 342 487 349 q 257 306 310 333 q 203 215 203 278 q 247 123 203 154 q 383 92 291 92 m 275 1038 l 349 1038 q 374 966 349 995 q 442 938 399 938 q 510 966 485 938 q 535 1038 535 995 l 609 1038 q 561 927 609 968 q 442 887 513 887 q 323 927 371 887 q 275 1038 275 968 m 381 1056 l 576 1181 l 692 1181 l 488 1056 l 381 1056 z "},"ặ":{"ha":846,"x_min":85,"x_max":792,"o":"m 364 -14 q 217 13 280 -14 q 119 89 154 39 q 85 208 85 138 q 122 328 85 280 q 228 403 160 376 q 386 440 296 431 q 580 467 522 453 q 638 511 638 481 q 638 512 638 512 q 638 513 638 513 q 585 609 638 577 q 435 640 533 640 q 275 605 332 640 q 218 489 218 569 l 101 489 q 144 630 101 572 q 261 718 186 688 q 435 749 337 749 q 598 721 526 749 q 714 640 671 694 q 756 507 756 586 q 756 478 756 492 q 756 449 756 464 l 756 139 q 758 92 756 115 q 765 51 760 69 q 779 18 772 31 q 792 0 787 5 l 673 0 q 663 16 669 3 q 649 47 656 29 q 642 82 644 60 q 639 126 639 103 l 658 113 q 595 47 637 75 q 496 2 554 18 q 364 -14 438 -14 m 383 92 q 512 114 454 92 q 603 179 569 136 q 638 286 638 222 l 638 433 l 664 388 q 553 360 619 371 q 415 342 487 349 q 257 306 310 333 q 203 215 203 278 q 247 123 203 154 q 383 92 291 92 m 423 -237 q 367 -218 391 -237 q 343 -169 343 -200 q 367 -119 343 -137 q 423 -101 391 -101 q 479 -119 455 -101 q 503 -169 503 -137 q 479 -219 503 -201 q 423 -237 455 -237 m 276 1038 l 349 1038 q 375 966 349 995 q 442 938 400 938 q 510 966 485 938 q 535 1038 535 995 l 610 1038 q 561 927 610 968 q 442 887 513 887 q 324 927 372 887 q 276 1038 276 968 z "},"ằ":{"ha":846,"x_min":85,"x_max":792,"o":"m 364 -14 q 217 13 280 -14 q 119 89 154 39 q 85 208 85 138 q 122 328 85 280 q 228 403 160 376 q 386 440 296 431 q 580 467 522 453 q 638 511 638 481 q 638 512 638 512 q 638 513 638 513 q 585 609 638 577 q 435 640 533 640 q 275 605 332 640 q 218 489 218 569 l 101 489 q 144 630 101 572 q 261 718 186 688 q 435 749 337 749 q 598 721 526 749 q 714 640 671 694 q 756 507 756 586 q 756 478 756 492 q 756 449 756 464 l 756 139 q 758 92 756 115 q 765 51 760 69 q 779 18 772 31 q 792 0 787 5 l 673 0 q 663 16 669 3 q 649 47 656 29 q 642 82 644 60 q 639 126 639 103 l 658 113 q 595 47 637 75 q 496 2 554 18 q 364 -14 438 -14 m 383 92 q 512 114 454 92 q 603 179 569 136 q 638 286 638 222 l 638 433 l 664 388 q 553 360 619 371 q 415 342 487 349 q 257 306 310 333 q 203 215 203 278 q 247 123 203 154 q 383 92 291 92 m 274 1038 l 348 1038 q 373 966 348 995 q 441 938 399 938 q 509 966 484 938 q 534 1038 534 995 l 608 1038 q 560 927 608 968 q 441 887 512 887 q 322 927 370 887 q 274 1038 274 968 m 515 1056 l 407 1056 l 203 1181 l 319 1181 l 515 1056 z "},"ẳ":{"ha":846,"x_min":85,"x_max":792,"o":"m 364 -14 q 217 13 280 -14 q 119 89 154 39 q 85 208 85 138 q 122 328 85 280 q 228 403 160 376 q 386 440 296 431 q 580 467 522 453 q 638 511 638 481 q 638 512 638 512 q 638 513 638 513 q 585 609 638 577 q 435 640 533 640 q 275 605 332 640 q 218 489 218 569 l 101 489 q 144 630 101 572 q 261 718 186 688 q 435 749 337 749 q 598 721 526 749 q 714 640 671 694 q 756 507 756 586 q 756 478 756 492 q 756 449 756 464 l 756 139 q 758 92 756 115 q 765 51 760 69 q 779 18 772 31 q 792 0 787 5 l 673 0 q 663 16 669 3 q 649 47 656 29 q 642 82 644 60 q 639 126 639 103 l 658 113 q 595 47 637 75 q 496 2 554 18 q 364 -14 438 -14 m 383 92 q 512 114 454 92 q 603 179 569 136 q 638 286 638 222 l 638 433 l 664 388 q 553 360 619 371 q 415 342 487 349 q 257 306 310 333 q 203 215 203 278 q 247 123 203 154 q 383 92 291 92 m 276 1038 l 349 1038 q 375 966 349 995 q 442 938 400 938 q 510 966 485 938 q 535 1038 535 995 l 610 1038 q 561 927 610 968 q 442 887 513 887 q 324 927 372 887 q 276 1038 276 968 m 339 1244 q 471 1239 414 1244 q 560 1216 528 1233 q 592 1163 592 1199 q 568 1113 592 1132 q 508 1085 545 1094 q 428 1076 470 1076 l 413 1114 q 464 1119 438 1115 q 509 1133 491 1123 q 528 1159 528 1142 q 476 1194 528 1187 q 339 1201 425 1201 l 339 1244 z "},"ẵ":{"ha":846,"x_min":85,"x_max":792,"o":"m 364 -14 q 217 13 280 -14 q 119 89 154 39 q 85 208 85 138 q 122 328 85 280 q 228 403 160 376 q 386 440 296 431 q 580 467 522 453 q 638 511 638 481 q 638 512 638 512 q 638 513 638 513 q 585 609 638 577 q 435 640 533 640 q 275 605 332 640 q 218 489 218 569 l 101 489 q 144 630 101 572 q 261 718 186 688 q 435 749 337 749 q 598 721 526 749 q 714 640 671 694 q 756 507 756 586 q 756 478 756 492 q 756 449 756 464 l 756 139 q 758 92 756 115 q 765 51 760 69 q 779 18 772 31 q 792 0 787 5 l 673 0 q 663 16 669 3 q 649 47 656 29 q 642 82 644 60 q 639 126 639 103 l 658 113 q 595 47 637 75 q 496 2 554 18 q 364 -14 438 -14 m 383 92 q 512 114 454 92 q 603 179 569 136 q 638 286 638 222 l 638 433 l 664 388 q 553 360 619 371 q 415 342 487 349 q 257 306 310 333 q 203 215 203 278 q 247 123 203 154 q 383 92 291 92 m 276 1038 l 349 1038 q 375 966 349 995 q 442 938 400 938 q 510 966 485 938 q 535 1038 535 995 l 610 1038 q 561 927 610 968 q 442 887 513 887 q 324 927 372 887 q 276 1038 276 968 m 645 1197 q 633 1150 644 1176 q 597 1105 622 1124 q 533 1085 573 1085 q 477 1098 499 1085 q 438 1124 456 1110 q 408 1145 424 1136 q 370 1155 392 1155 q 329 1139 342 1155 q 315 1104 317 1122 l 246 1104 q 261 1153 247 1127 q 301 1199 274 1180 q 366 1218 327 1218 q 420 1206 398 1218 q 458 1181 442 1194 q 492 1159 474 1169 q 528 1149 509 1149 q 566 1164 557 1149 q 576 1197 575 1180 l 645 1197 z "},"ǎ":{"ha":846,"x_min":85,"x_max":792,"o":"m 364 -14 q 217 13 280 -14 q 119 89 154 39 q 85 208 85 138 q 122 328 85 280 q 228 403 160 376 q 386 440 296 431 q 580 467 522 453 q 638 511 638 481 q 638 512 638 512 q 638 513 638 513 q 585 609 638 577 q 435 640 533 640 q 275 605 332 640 q 218 489 218 569 l 101 489 q 144 630 101 572 q 261 718 186 688 q 435 749 337 749 q 598 721 526 749 q 714 640 671 694 q 756 507 756 586 q 756 478 756 492 q 756 449 756 464 l 756 139 q 758 92 756 115 q 765 51 760 69 q 779 18 772 31 q 792 0 787 5 l 673 0 q 663 16 669 3 q 649 47 656 29 q 642 82 644 60 q 639 126 639 103 l 658 113 q 595 47 637 75 q 496 2 554 18 q 364 -14 438 -14 m 383 92 q 512 114 454 92 q 603 179 569 136 q 638 286 638 222 l 638 433 l 664 388 q 553 360 619 371 q 415 342 487 349 q 257 306 310 333 q 203 215 203 278 q 247 123 203 154 q 383 92 291 92 m 252 1024 l 337 1024 l 460 879 l 424 879 l 547 1024 l 633 1024 l 485 856 l 399 856 l 252 1024 z "},"â":{"ha":846,"x_min":85,"x_max":792,"o":"m 364 -14 q 217 13 280 -14 q 119 89 154 39 q 85 208 85 138 q 122 328 85 280 q 228 403 160 376 q 386 440 296 431 q 580 467 522 453 q 638 511 638 481 q 638 512 638 512 q 638 513 638 513 q 585 609 638 577 q 435 640 533 640 q 275 605 332 640 q 218 489 218 569 l 101 489 q 144 630 101 572 q 261 718 186 688 q 435 749 337 749 q 598 721 526 749 q 714 640 671 694 q 756 507 756 586 q 756 478 756 492 q 756 449 756 464 l 756 139 q 758 92 756 115 q 765 51 760 69 q 779 18 772 31 q 792 0 787 5 l 673 0 q 663 16 669 3 q 649 47 656 29 q 642 82 644 60 q 639 126 639 103 l 658 113 q 595 47 637 75 q 496 2 554 18 q 364 -14 438 -14 m 383 92 q 512 114 454 92 q 603 179 569 136 q 638 286 638 222 l 638 433 l 664 388 q 553 360 619 371 q 415 342 487 349 q 257 306 310 333 q 203 215 203 278 q 247 123 203 154 q 383 92 291 92 m 252 856 l 399 1024 l 485 1024 l 633 856 l 547 856 l 424 1001 l 460 1001 l 337 856 l 252 856 z "},"ấ":{"ha":846,"x_min":85,"x_max":792,"o":"m 364 -14 q 217 13 280 -14 q 119 89 154 39 q 85 208 85 138 q 122 328 85 280 q 228 403 160 376 q 386 440 296 431 q 580 467 522 453 q 638 511 638 481 q 638 512 638 512 q 638 513 638 513 q 585 609 638 577 q 435 640 533 640 q 275 605 332 640 q 218 489 218 569 l 101 489 q 144 630 101 572 q 261 718 186 688 q 435 749 337 749 q 598 721 526 749 q 714 640 671 694 q 756 507 756 586 q 756 478 756 492 q 756 449 756 464 l 756 139 q 758 92 756 115 q 765 51 760 69 q 779 18 772 31 q 792 0 787 5 l 673 0 q 663 16 669 3 q 649 47 656 29 q 642 82 644 60 q 639 126 639 103 l 658 113 q 595 47 637 75 q 496 2 554 18 q 364 -14 438 -14 m 383 92 q 512 114 454 92 q 603 179 569 136 q 638 286 638 222 l 638 433 l 664 388 q 553 360 619 371 q 415 342 487 349 q 257 306 310 333 q 203 215 203 278 q 247 123 203 154 q 383 92 291 92 m 252 856 l 399 1024 l 485 1024 l 633 856 l 547 856 l 424 1001 l 460 1001 l 337 856 l 252 856 m 533 997 l 665 1165 l 756 1165 l 610 997 l 533 997 z "},"ậ":{"ha":846,"x_min":85,"x_max":792,"o":"m 364 -14 q 217 13 280 -14 q 119 89 154 39 q 85 208 85 138 q 122 328 85 280 q 228 403 160 376 q 386 440 296 431 q 580 467 522 453 q 638 511 638 481 q 638 512 638 512 q 638 513 638 513 q 585 609 638 577 q 435 640 533 640 q 275 605 332 640 q 218 489 218 569 l 101 489 q 144 630 101 572 q 261 718 186 688 q 435 749 337 749 q 598 721 526 749 q 714 640 671 694 q 756 507 756 586 q 756 478 756 492 q 756 449 756 464 l 756 139 q 758 92 756 115 q 765 51 760 69 q 779 18 772 31 q 792 0 787 5 l 673 0 q 663 16 669 3 q 649 47 656 29 q 642 82 644 60 q 639 126 639 103 l 658 113 q 595 47 637 75 q 496 2 554 18 q 364 -14 438 -14 m 383 92 q 512 114 454 92 q 603 179 569 136 q 638 286 638 222 l 638 433 l 664 388 q 553 360 619 371 q 415 342 487 349 q 257 306 310 333 q 203 215 203 278 q 247 123 203 154 q 383 92 291 92 m 423 -237 q 367 -218 391 -237 q 343 -169 343 -200 q 367 -119 343 -137 q 423 -101 391 -101 q 479 -119 455 -101 q 503 -169 503 -137 q 479 -219 503 -201 q 423 -237 455 -237 m 252 856 l 399 1024 l 485 1024 l 633 856 l 547 856 l 424 1001 l 460 1001 l 337 856 l 252 856 z "},"ầ":{"ha":846,"x_min":85,"x_max":792,"o":"m 364 -14 q 217 13 280 -14 q 119 89 154 39 q 85 208 85 138 q 122 328 85 280 q 228 403 160 376 q 386 440 296 431 q 580 467 522 453 q 638 511 638 481 q 638 512 638 512 q 638 513 638 513 q 585 609 638 577 q 435 640 533 640 q 275 605 332 640 q 218 489 218 569 l 101 489 q 144 630 101 572 q 261 718 186 688 q 435 749 337 749 q 598 721 526 749 q 714 640 671 694 q 756 507 756 586 q 756 478 756 492 q 756 449 756 464 l 756 139 q 758 92 756 115 q 765 51 760 69 q 779 18 772 31 q 792 0 787 5 l 673 0 q 663 16 669 3 q 649 47 656 29 q 642 82 644 60 q 639 126 639 103 l 658 113 q 595 47 637 75 q 496 2 554 18 q 364 -14 438 -14 m 383 92 q 512 114 454 92 q 603 179 569 136 q 638 286 638 222 l 638 433 l 664 388 q 553 360 619 371 q 415 342 487 349 q 257 306 310 333 q 203 215 203 278 q 247 123 203 154 q 383 92 291 92 m 253 856 l 399 1024 l 486 1024 l 633 856 l 547 856 l 425 1001 l 460 1001 l 338 856 l 253 856 m 668 997 l 591 997 l 446 1165 l 537 1165 l 668 997 z "},"ẩ":{"ha":846,"x_min":85,"x_max":792,"o":"m 364 -14 q 217 13 280 -14 q 119 89 154 39 q 85 208 85 138 q 122 328 85 280 q 228 403 160 376 q 386 440 296 431 q 580 467 522 453 q 638 511 638 481 q 638 512 638 512 q 638 513 638 513 q 585 609 638 577 q 435 640 533 640 q 275 605 332 640 q 218 489 218 569 l 101 489 q 144 630 101 572 q 261 718 186 688 q 435 749 337 749 q 598 721 526 749 q 714 640 671 694 q 756 507 756 586 q 756 478 756 492 q 756 449 756 464 l 756 139 q 758 92 756 115 q 765 51 760 69 q 779 18 772 31 q 792 0 787 5 l 673 0 q 663 16 669 3 q 649 47 656 29 q 642 82 644 60 q 639 126 639 103 l 658 113 q 595 47 637 75 q 496 2 554 18 q 364 -14 438 -14 m 383 92 q 512 114 454 92 q 603 179 569 136 q 638 286 638 222 l 638 433 l 664 388 q 553 360 619 371 q 415 342 487 349 q 257 306 310 333 q 203 215 203 278 q 247 123 203 154 q 383 92 291 92 m 252 856 l 399 1024 l 485 1024 l 633 856 l 547 856 l 424 1001 l 460 1001 l 337 856 l 252 856 m 579 999 l 565 1035 q 614 1040 588 1036 q 657 1052 639 1044 q 674 1077 674 1061 q 625 1110 674 1103 q 495 1117 576 1117 l 495 1158 q 620 1153 566 1158 q 705 1132 674 1148 q 735 1081 735 1115 q 713 1034 735 1052 q 655 1008 690 1016 q 579 999 619 999 z "},"ẫ":{"ha":846,"x_min":85,"x_max":792,"o":"m 364 -14 q 217 13 280 -14 q 119 89 154 39 q 85 208 85 138 q 122 328 85 280 q 228 403 160 376 q 386 440 296 431 q 580 467 522 453 q 638 511 638 481 q 638 512 638 512 q 638 513 638 513 q 585 609 638 577 q 435 640 533 640 q 275 605 332 640 q 218 489 218 569 l 101 489 q 144 630 101 572 q 261 718 186 688 q 435 749 337 749 q 598 721 526 749 q 714 640 671 694 q 756 507 756 586 q 756 478 756 492 q 756 449 756 464 l 756 139 q 758 92 756 115 q 765 51 760 69 q 779 18 772 31 q 792 0 787 5 l 673 0 q 663 16 669 3 q 649 47 656 29 q 642 82 644 60 q 639 126 639 103 l 658 113 q 595 47 637 75 q 496 2 554 18 q 364 -14 438 -14 m 383 92 q 512 114 454 92 q 603 179 569 136 q 638 286 638 222 l 638 433 l 664 388 q 553 360 619 371 q 415 342 487 349 q 257 306 310 333 q 203 215 203 278 q 247 123 203 154 q 383 92 291 92 m 252 856 l 399 1024 l 485 1024 l 633 856 l 547 856 l 424 1001 l 460 1001 l 337 856 l 252 856 m 529 1064 q 473 1075 495 1064 q 435 1101 451 1087 q 405 1123 421 1113 q 367 1133 389 1133 q 326 1117 338 1133 q 312 1083 313 1100 l 242 1083 q 257 1132 244 1106 q 297 1177 271 1158 q 363 1197 324 1197 q 416 1184 394 1197 q 454 1160 438 1172 q 488 1137 471 1147 q 525 1126 506 1126 q 563 1142 553 1126 q 573 1176 572 1158 l 642 1176 q 630 1129 641 1155 q 594 1083 618 1103 q 529 1064 569 1064 z "},"ȁ":{"ha":846,"x_min":85,"x_max":792,"o":"m 364 -14 q 217 13 280 -14 q 119 89 154 39 q 85 208 85 138 q 122 328 85 280 q 228 403 160 376 q 386 440 296 431 q 580 467 522 453 q 638 511 638 481 q 638 512 638 512 q 638 513 638 513 q 585 609 638 577 q 435 640 533 640 q 275 605 332 640 q 218 489 218 569 l 101 489 q 144 630 101 572 q 261 718 186 688 q 435 749 337 749 q 598 721 526 749 q 714 640 671 694 q 756 507 756 586 q 756 478 756 492 q 756 449 756 464 l 756 139 q 758 92 756 115 q 765 51 760 69 q 779 18 772 31 q 792 0 787 5 l 673 0 q 663 16 669 3 q 649 47 656 29 q 642 82 644 60 q 639 126 639 103 l 658 113 q 595 47 637 75 q 496 2 554 18 q 364 -14 438 -14 m 383 92 q 512 114 454 92 q 603 179 569 136 q 638 286 638 222 l 638 433 l 664 388 q 553 360 619 371 q 415 342 487 349 q 257 306 310 333 q 203 215 203 278 q 247 123 203 154 q 383 92 291 92 m 599 856 l 526 856 l 397 1024 l 489 1024 l 599 856 m 386 856 l 313 856 l 176 1024 l 268 1024 l 386 856 z "},"ä":{"ha":846,"x_min":85,"x_max":792,"o":"m 364 -14 q 217 13 280 -14 q 119 89 154 39 q 85 208 85 138 q 122 328 85 280 q 228 403 160 376 q 386 440 296 431 q 580 467 522 453 q 638 511 638 481 q 638 512 638 512 q 638 513 638 513 q 585 609 638 577 q 435 640 533 640 q 275 605 332 640 q 218 489 218 569 l 101 489 q 144 630 101 572 q 261 718 186 688 q 435 749 337 749 q 598 721 526 749 q 714 640 671 694 q 756 507 756 586 q 756 478 756 492 q 756 449 756 464 l 756 139 q 758 92 756 115 q 765 51 760 69 q 779 18 772 31 q 792 0 787 5 l 673 0 q 663 16 669 3 q 649 47 656 29 q 642 82 644 60 q 639 126 639 103 l 658 113 q 595 47 637 75 q 496 2 554 18 q 364 -14 438 -14 m 383 92 q 512 114 454 92 q 603 179 569 136 q 638 286 638 222 l 638 433 l 664 388 q 553 360 619 371 q 415 342 487 349 q 257 306 310 333 q 203 215 203 278 q 247 123 203 154 q 383 92 291 92 m 307 906 q 255 923 277 906 q 232 970 232 940 q 255 1017 232 999 q 307 1034 277 1034 q 360 1017 338 1034 q 382 970 382 999 q 360 923 382 940 q 307 906 338 906 m 577 906 q 525 923 547 906 q 503 970 503 940 q 525 1017 503 999 q 577 1034 547 1034 q 630 1017 608 1034 q 652 970 652 999 q 630 923 652 940 q 577 906 608 906 z "},"ǟ":{"ha":846,"x_min":85,"x_max":792,"o":"m 364 -14 q 217 13 280 -14 q 119 89 154 39 q 85 208 85 138 q 122 328 85 280 q 228 403 160 376 q 386 440 296 431 q 580 467 522 453 q 638 511 638 481 q 638 512 638 512 q 638 513 638 513 q 585 609 638 577 q 435 640 533 640 q 275 605 332 640 q 218 489 218 569 l 101 489 q 144 630 101 572 q 261 718 186 688 q 435 749 337 749 q 598 721 526 749 q 714 640 671 694 q 756 507 756 586 q 756 478 756 492 q 756 449 756 464 l 756 139 q 758 92 756 115 q 765 51 760 69 q 779 18 772 31 q 792 0 787 5 l 673 0 q 663 16 669 3 q 649 47 656 29 q 642 82 644 60 q 639 126 639 103 l 658 113 q 595 47 637 75 q 496 2 554 18 q 364 -14 438 -14 m 383 92 q 512 114 454 92 q 603 179 569 136 q 638 286 638 222 l 638 433 l 664 388 q 553 360 619 371 q 415 342 487 349 q 257 306 310 333 q 203 215 203 278 q 247 123 203 154 q 383 92 291 92 m 307 906 q 255 923 277 906 q 232 970 232 940 q 255 1017 232 999 q 307 1034 277 1034 q 360 1017 338 1034 q 382 970 382 999 q 360 923 382 940 q 307 906 338 906 m 577 906 q 525 923 547 906 q 503 970 503 940 q 525 1017 503 999 q 577 1034 547 1034 q 630 1017 608 1034 q 652 970 652 999 q 630 923 652 940 q 577 906 608 906 m 262 1128 l 262 1181 l 622 1181 l 622 1128 l 262 1128 z "},"ạ":{"ha":846,"x_min":85,"x_max":792,"o":"m 364 -14 q 217 13 280 -14 q 119 89 154 39 q 85 208 85 138 q 122 328 85 280 q 228 403 160 376 q 386 440 296 431 q 580 467 522 453 q 638 511 638 481 q 638 512 638 512 q 638 513 638 513 q 585 609 638 577 q 435 640 533 640 q 275 605 332 640 q 218 489 218 569 l 101 489 q 144 630 101 572 q 261 718 186 688 q 435 749 337 749 q 598 721 526 749 q 714 640 671 694 q 756 507 756 586 q 756 478 756 492 q 756 449 756 464 l 756 139 q 758 92 756 115 q 765 51 760 69 q 779 18 772 31 q 792 0 787 5 l 673 0 q 663 16 669 3 q 649 47 656 29 q 642 82 644 60 q 639 126 639 103 l 658 113 q 595 47 637 75 q 496 2 554 18 q 364 -14 438 -14 m 383 92 q 512 114 454 92 q 603 179 569 136 q 638 286 638 222 l 638 433 l 664 388 q 553 360 619 371 q 415 342 487 349 q 257 306 310 333 q 203 215 203 278 q 247 123 203 154 q 383 92 291 92 m 423 -237 q 367 -218 391 -237 q 343 -169 343 -200 q 367 -119 343 -137 q 423 -101 391 -101 q 479 -119 455 -101 q 503 -169 503 -137 q 479 -219 503 -201 q 423 -237 455 -237 z "},"à":{"ha":846,"x_min":85,"x_max":792,"o":"m 364 -14 q 217 13 280 -14 q 119 89 154 39 q 85 208 85 138 q 122 328 85 280 q 228 403 160 376 q 386 440 296 431 q 580 467 522 453 q 638 511 638 481 q 638 512 638 512 q 638 513 638 513 q 585 609 638 577 q 435 640 533 640 q 275 605 332 640 q 218 489 218 569 l 101 489 q 144 630 101 572 q 261 718 186 688 q 435 749 337 749 q 598 721 526 749 q 714 640 671 694 q 756 507 756 586 q 756 478 756 492 q 756 449 756 464 l 756 139 q 758 92 756 115 q 765 51 760 69 q 779 18 772 31 q 792 0 787 5 l 673 0 q 663 16 669 3 q 649 47 656 29 q 642 82 644 60 q 639 126 639 103 l 658 113 q 595 47 637 75 q 496 2 554 18 q 364 -14 438 -14 m 383 92 q 512 114 454 92 q 603 179 569 136 q 638 286 638 222 l 638 433 l 664 388 q 553 360 619 371 q 415 342 487 349 q 257 306 310 333 q 203 215 203 278 q 247 123 203 154 q 383 92 291 92 m 519 856 l 423 856 l 244 1024 l 353 1024 l 519 856 z "},"ả":{"ha":846,"x_min":85,"x_max":792,"o":"m 364 -14 q 217 13 280 -14 q 119 89 154 39 q 85 208 85 138 q 122 328 85 280 q 228 403 160 376 q 386 440 296 431 q 580 467 522 453 q 638 511 638 481 q 638 512 638 512 q 638 513 638 513 q 585 609 638 577 q 435 640 533 640 q 275 605 332 640 q 218 489 218 569 l 101 489 q 144 630 101 572 q 261 718 186 688 q 435 749 337 749 q 598 721 526 749 q 714 640 671 694 q 756 507 756 586 q 756 478 756 492 q 756 449 756 464 l 756 139 q 758 92 756 115 q 765 51 760 69 q 779 18 772 31 q 792 0 787 5 l 673 0 q 663 16 669 3 q 649 47 656 29 q 642 82 644 60 q 639 126 639 103 l 658 113 q 595 47 637 75 q 496 2 554 18 q 364 -14 438 -14 m 383 92 q 512 114 454 92 q 603 179 569 136 q 638 286 638 222 l 638 433 l 664 388 q 553 360 619 371 q 415 342 487 349 q 257 306 310 333 q 203 215 203 278 q 247 123 203 154 q 383 92 291 92 m 310 1040 q 442 1035 385 1040 q 531 1012 499 1029 q 563 959 563 994 q 539 909 563 928 q 478 881 516 890 q 399 872 441 872 l 383 910 q 435 915 408 911 q 480 928 462 919 q 499 955 499 938 q 447 990 499 983 q 310 997 396 997 l 310 1040 z "},"ȃ":{"ha":846,"x_min":85,"x_max":792,"o":"m 364 -14 q 217 13 280 -14 q 119 89 154 39 q 85 208 85 138 q 122 328 85 280 q 228 403 160 376 q 386 440 296 431 q 580 467 522 453 q 638 511 638 481 q 638 512 638 512 q 638 513 638 513 q 585 609 638 577 q 435 640 533 640 q 275 605 332 640 q 218 489 218 569 l 101 489 q 144 630 101 572 q 261 718 186 688 q 435 749 337 749 q 598 721 526 749 q 714 640 671 694 q 756 507 756 586 q 756 478 756 492 q 756 449 756 464 l 756 139 q 758 92 756 115 q 765 51 760 69 q 779 18 772 31 q 792 0 787 5 l 673 0 q 663 16 669 3 q 649 47 656 29 q 642 82 644 60 q 639 126 639 103 l 658 113 q 595 47 637 75 q 496 2 554 18 q 364 -14 438 -14 m 383 92 q 512 114 454 92 q 603 179 569 136 q 638 286 638 222 l 638 433 l 664 388 q 553 360 619 371 q 415 342 487 349 q 257 306 310 333 q 203 215 203 278 q 247 123 203 154 q 383 92 291 92 m 275 892 q 323 997 275 962 q 442 1033 371 1033 q 561 997 513 1033 q 609 892 609 962 l 535 892 q 510 958 535 935 q 442 981 485 981 q 375 958 400 981 q 349 892 349 935 l 275 892 z "},"ā":{"ha":846,"x_min":85,"x_max":792,"o":"m 364 -14 q 217 13 280 -14 q 119 89 154 39 q 85 208 85 138 q 122 328 85 280 q 228 403 160 376 q 386 440 296 431 q 580 467 522 453 q 638 511 638 481 q 638 512 638 512 q 638 513 638 513 q 585 609 638 577 q 435 640 533 640 q 275 605 332 640 q 218 489 218 569 l 101 489 q 144 630 101 572 q 261 718 186 688 q 435 749 337 749 q 598 721 526 749 q 714 640 671 694 q 756 507 756 586 q 756 478 756 492 q 756 449 756 464 l 756 139 q 758 92 756 115 q 765 51 760 69 q 779 18 772 31 q 792 0 787 5 l 673 0 q 663 16 669 3 q 649 47 656 29 q 642 82 644 60 q 639 126 639 103 l 658 113 q 595 47 637 75 q 496 2 554 18 q 364 -14 438 -14 m 383 92 q 512 114 454 92 q 603 179 569 136 q 638 286 638 222 l 638 433 l 664 388 q 553 360 619 371 q 415 342 487 349 q 257 306 310 333 q 203 215 203 278 q 247 123 203 154 q 383 92 291 92 m 263 915 l 263 969 l 622 969 l 622 915 l 263 915 z "},"ą":{"ha":846,"x_min":85,"x_max":792,"o":"m 364 -14 q 217 13 280 -14 q 119 89 154 39 q 85 208 85 138 q 122 328 85 280 q 228 403 160 376 q 386 440 296 431 q 580 467 522 453 q 638 511 638 481 q 638 512 638 512 q 638 513 638 513 q 585 609 638 577 q 435 640 533 640 q 275 605 332 640 q 218 489 218 569 l 101 489 q 144 630 101 572 q 261 718 186 688 q 435 749 337 749 q 598 721 526 749 q 714 640 671 694 q 756 507 756 586 q 756 478 756 492 q 756 449 756 464 l 756 139 q 758 92 756 115 q 765 51 760 69 q 779 18 772 31 q 792 0 787 5 l 673 0 q 663 16 669 3 q 649 47 656 29 q 642 82 644 60 q 639 126 639 103 l 658 113 q 595 47 637 75 q 496 2 554 18 q 364 -14 438 -14 m 383 92 q 512 114 454 92 q 603 179 569 136 q 638 286 638 222 l 638 433 l 664 388 q 553 360 619 371 q 415 342 487 349 q 257 306 310 333 q 203 215 203 278 q 247 123 203 154 q 383 92 291 92 m 792 -233 l 792 -295 q 761 -299 778 -297 q 727 -300 744 -300 q 660 -289 690 -300 q 611 -255 629 -278 q 593 -195 593 -232 q 614 -123 593 -160 q 665 -54 634 -87 q 724 0 695 -22 l 792 0 q 737 -55 767 -22 q 685 -120 707 -87 q 664 -180 664 -153 q 683 -224 664 -210 q 735 -238 703 -238 q 764 -236 749 -238 q 792 -233 780 -235 z "},"å":{"ha":846,"x_min":85,"x_max":792,"o":"m 364 -14 q 217 13 280 -14 q 119 89 154 39 q 85 208 85 138 q 122 328 85 280 q 228 403 160 376 q 386 440 296 431 q 580 467 522 453 q 638 511 638 481 q 638 512 638 512 q 638 513 638 513 q 585 609 638 577 q 435 640 533 640 q 275 605 332 640 q 218 489 218 569 l 101 489 q 144 630 101 572 q 261 718 186 688 q 435 749 337 749 q 598 721 526 749 q 714 640 671 694 q 756 507 756 586 q 756 478 756 492 q 756 449 756 464 l 756 139 q 758 92 756 115 q 765 51 760 69 q 779 18 772 31 q 792 0 787 5 l 673 0 q 663 16 669 3 q 649 47 656 29 q 642 82 644 60 q 639 126 639 103 l 658 113 q 595 47 637 75 q 496 2 554 18 q 364 -14 438 -14 m 383 92 q 512 114 454 92 q 603 179 569 136 q 638 286 638 222 l 638 433 l 664 388 q 553 360 619 371 q 415 342 487 349 q 257 306 310 333 q 203 215 203 278 q 247 123 203 154 q 383 92 291 92 m 442 856 q 498 879 475 856 q 520 934 520 901 q 498 989 520 967 q 442 1012 475 1012 q 388 989 410 1012 q 365 934 365 967 q 388 879 365 901 q 442 856 410 856 m 442 800 q 375 818 406 800 q 326 867 344 836 q 308 934 308 897 q 326 1001 308 971 q 375 1050 344 1032 q 442 1068 406 1068 q 510 1050 480 1068 q 558 1001 540 1032 q 576 934 576 971 q 558 867 576 897 q 510 818 540 836 q 442 800 480 800 z "},"ǻ":{"ha":846,"x_min":85,"x_max":792,"o":"m 364 -14 q 217 13 280 -14 q 119 89 154 39 q 85 208 85 138 q 122 328 85 280 q 228 403 160 376 q 386 440 296 431 q 580 467 522 453 q 638 511 638 481 q 638 512 638 512 q 638 513 638 513 q 585 609 638 577 q 435 640 533 640 q 275 605 332 640 q 218 489 218 569 l 101 489 q 144 630 101 572 q 261 718 186 688 q 435 749 337 749 q 598 721 526 749 q 714 640 671 694 q 756 507 756 586 q 756 478 756 492 q 756 449 756 464 l 756 139 q 758 92 756 115 q 765 51 760 69 q 779 18 772 31 q 792 0 787 5 l 673 0 q 663 16 669 3 q 649 47 656 29 q 642 82 644 60 q 639 126 639 103 l 658 113 q 595 47 637 75 q 496 2 554 18 q 364 -14 438 -14 m 383 92 q 512 114 454 92 q 603 179 569 136 q 638 286 638 222 l 638 433 l 664 388 q 553 360 619 371 q 415 342 487 349 q 257 306 310 333 q 203 215 203 278 q 247 123 203 154 q 383 92 291 92 m 442 856 q 498 879 475 856 q 520 934 520 901 q 498 989 520 967 q 442 1012 475 1012 q 388 989 410 1012 q 365 934 365 967 q 388 879 365 901 q 442 856 410 856 m 442 800 q 375 818 406 800 q 326 867 344 836 q 308 934 308 897 q 326 1001 308 971 q 375 1050 344 1032 q 442 1068 406 1068 q 510 1050 480 1068 q 558 1001 540 1032 q 576 934 576 971 q 558 867 576 897 q 510 818 540 836 q 442 800 480 800 m 342 1133 l 508 1302 l 617 1302 l 438 1133 l 342 1133 z "},"ã":{"ha":846,"x_min":85,"x_max":792,"o":"m 364 -14 q 217 13 280 -14 q 119 89 154 39 q 85 208 85 138 q 122 328 85 280 q 228 403 160 376 q 386 440 296 431 q 580 467 522 453 q 638 511 638 481 q 638 512 638 512 q 638 513 638 513 q 585 609 638 577 q 435 640 533 640 q 275 605 332 640 q 218 489 218 569 l 101 489 q 144 630 101 572 q 261 718 186 688 q 435 749 337 749 q 598 721 526 749 q 714 640 671 694 q 756 507 756 586 q 756 478 756 492 q 756 449 756 464 l 756 139 q 758 92 756 115 q 765 51 760 69 q 779 18 772 31 q 792 0 787 5 l 673 0 q 663 16 669 3 q 649 47 656 29 q 642 82 644 60 q 639 126 639 103 l 658 113 q 595 47 637 75 q 496 2 554 18 q 364 -14 438 -14 m 383 92 q 512 114 454 92 q 603 179 569 136 q 638 286 638 222 l 638 433 l 664 388 q 553 360 619 371 q 415 342 487 349 q 257 306 310 333 q 203 215 203 278 q 247 123 203 154 q 383 92 291 92 m 642 1008 q 630 961 641 987 q 594 915 618 935 q 529 896 569 896 q 475 909 498 896 q 434 935 452 922 q 402 956 419 946 q 363 965 385 965 q 324 949 334 965 q 312 915 313 932 l 242 915 q 257 964 244 938 q 297 1009 271 990 q 363 1028 324 1028 q 416 1016 394 1028 q 454 992 438 1004 q 488 969 471 979 q 525 958 506 958 q 563 974 553 958 q 573 1008 572 990 l 642 1008 z "},"æ":{"ha":1492,"x_min":85,"x_max":1414,"o":"m 396 -14 q 170 46 256 -14 q 85 213 85 106 q 108 307 85 268 q 175 372 132 347 q 277 408 218 397 q 408 420 337 420 q 566 422 509 420 q 647 434 624 424 q 671 465 671 443 q 671 476 671 470 q 671 488 671 482 q 610 608 671 569 q 451 647 550 647 q 331 629 383 647 q 248 577 278 612 q 219 489 219 542 l 101 489 q 128 599 101 551 q 202 681 155 647 q 314 731 250 714 q 452 749 378 749 q 632 712 551 749 q 750 599 712 675 q 755 588 753 594 q 760 575 758 581 l 727 578 q 860 703 776 657 q 1049 749 943 749 q 1243 698 1161 749 q 1369 562 1325 648 q 1414 368 1414 476 q 1414 342 1414 357 q 1413 322 1413 328 l 735 322 l 786 363 q 786 349 786 356 q 788 335 787 342 q 827 204 794 260 q 918 117 861 148 q 1052 87 976 87 q 1153 101 1110 87 q 1225 138 1197 115 q 1268 185 1253 160 q 1286 232 1283 210 l 1403 232 q 1375 149 1399 192 q 1306 69 1351 106 q 1197 9 1262 32 q 1049 -15 1133 -15 q 908 9 973 -15 q 794 76 843 33 q 714 178 744 119 l 747 183 q 663 66 719 110 q 537 5 607 23 q 396 -14 467 -14 m 404 90 q 499 102 451 90 q 585 143 546 113 q 649 228 625 173 q 673 372 673 283 q 673 383 673 377 q 673 395 673 390 l 697 344 q 583 327 652 331 q 431 324 513 324 q 263 305 322 324 q 204 219 204 287 q 262 122 204 153 q 404 90 320 90 m 791 427 l 1294 427 q 1293 436 1294 431 q 1292 449 1293 442 q 1253 549 1283 503 q 1171 621 1222 594 q 1051 649 1120 649 q 927 621 982 649 q 837 544 872 594 q 791 427 801 494 z "},"ǽ":{"ha":1492,"x_min":85,"x_max":1414,"o":"m 396 -14 q 170 46 256 -14 q 85 213 85 106 q 108 307 85 268 q 175 372 132 347 q 277 408 218 397 q 408 420 337 420 q 566 422 509 420 q 647 434 624 424 q 671 465 671 443 q 671 476 671 470 q 671 488 671 482 q 610 608 671 569 q 451 647 550 647 q 331 629 383 647 q 248 577 278 612 q 219 489 219 542 l 101 489 q 128 599 101 551 q 202 681 155 647 q 314 731 250 714 q 452 749 378 749 q 632 712 551 749 q 750 599 712 675 q 755 588 753 594 q 760 575 758 581 l 727 578 q 860 703 776 657 q 1049 749 943 749 q 1243 698 1161 749 q 1369 562 1325 648 q 1414 368 1414 476 q 1414 342 1414 357 q 1413 322 1413 328 l 735 322 l 786 363 q 786 349 786 356 q 788 335 787 342 q 827 204 794 260 q 918 117 861 148 q 1052 87 976 87 q 1153 101 1110 87 q 1225 138 1197 115 q 1268 185 1253 160 q 1286 232 1283 210 l 1403 232 q 1375 149 1399 192 q 1306 69 1351 106 q 1197 9 1262 32 q 1049 -15 1133 -15 q 908 9 973 -15 q 794 76 843 33 q 714 178 744 119 l 747 183 q 663 66 719 110 q 537 5 607 23 q 396 -14 467 -14 m 404 90 q 499 102 451 90 q 585 143 546 113 q 649 228 625 173 q 673 372 673 283 q 673 383 673 377 q 673 395 673 390 l 697 344 q 583 327 652 331 q 431 324 513 324 q 263 305 322 324 q 204 219 204 287 q 262 122 204 153 q 404 90 320 90 m 791 427 l 1294 427 q 1293 436 1294 431 q 1292 449 1293 442 q 1253 549 1283 503 q 1171 621 1222 594 q 1051 649 1120 649 q 927 621 982 649 q 837 544 872 594 q 791 427 801 494 m 672 856 l 838 1024 l 947 1024 l 768 856 l 672 856 z "},"b":{"ha":877,"x_min":106,"x_max":799,"o":"m 467 -14 q 307 28 381 -14 q 186 144 233 70 q 140 312 140 217 q 140 315 140 314 q 140 319 140 317 l 225 321 q 225 318 225 319 q 225 315 225 316 q 257 206 225 255 q 340 127 288 156 q 450 98 391 98 q 613 165 548 98 q 678 369 678 232 q 613 574 678 508 q 450 640 549 640 q 340 611 391 640 q 257 534 288 583 q 225 425 225 485 l 140 428 q 186 595 140 523 q 307 708 233 667 q 467 749 381 749 q 632 705 556 749 q 753 576 708 660 q 799 369 799 491 q 754 160 799 246 q 633 30 709 74 q 467 -14 558 -14 m 106 0 l 106 1085 l 225 1085 l 225 0 l 106 0 z "},"c":{"ha":875,"x_min":78,"x_max":797,"o":"m 456 -14 q 265 32 351 -14 q 128 165 178 78 q 78 369 78 251 q 128 573 78 488 q 265 703 178 658 q 456 749 351 749 q 600 724 537 749 q 707 658 663 699 q 774 568 751 617 q 797 471 797 519 q 797 469 797 470 q 797 466 797 467 l 680 466 q 679 474 680 469 q 678 483 678 478 q 642 565 672 530 q 565 620 613 600 q 456 640 517 640 q 328 611 387 640 q 234 521 269 581 q 198 369 198 461 q 233 217 198 278 q 327 125 269 156 q 456 94 386 94 q 579 118 531 94 q 652 181 628 142 q 680 265 677 220 l 797 265 q 775 166 797 215 q 710 75 753 116 q 603 10 667 35 q 456 -14 540 -14 z "},"ć":{"ha":875,"x_min":78,"x_max":797,"o":"m 456 -14 q 265 32 351 -14 q 128 165 178 78 q 78 369 78 251 q 128 573 78 488 q 265 703 178 658 q 456 749 351 749 q 600 724 537 749 q 707 658 663 699 q 774 568 751 617 q 797 471 797 519 q 797 469 797 470 q 797 466 797 467 l 680 466 q 679 474 680 469 q 678 483 678 478 q 642 565 672 530 q 565 620 613 600 q 456 640 517 640 q 328 611 387 640 q 234 521 269 581 q 198 369 198 461 q 233 217 198 278 q 327 125 269 156 q 456 94 386 94 q 579 118 531 94 q 652 181 628 142 q 680 265 677 220 l 797 265 q 775 166 797 215 q 710 75 753 116 q 603 10 667 35 q 456 -14 540 -14 m 363 856 l 528 1024 l 638 1024 l 458 856 l 363 856 z "},"č":{"ha":875,"x_min":78,"x_max":797,"o":"m 456 -14 q 265 32 351 -14 q 128 165 178 78 q 78 369 78 251 q 128 573 78 488 q 265 703 178 658 q 456 749 351 749 q 600 724 537 749 q 707 658 663 699 q 774 568 751 617 q 797 471 797 519 q 797 469 797 470 q 797 466 797 467 l 680 466 q 679 474 680 469 q 678 483 678 478 q 642 565 672 530 q 565 620 613 600 q 456 640 517 640 q 328 611 387 640 q 234 521 269 581 q 198 369 198 461 q 233 217 198 278 q 327 125 269 156 q 456 94 386 94 q 579 118 531 94 q 652 181 628 142 q 680 265 677 220 l 797 265 q 775 166 797 215 q 710 75 753 116 q 603 10 667 35 q 456 -14 540 -14 m 254 1024 l 339 1024 l 462 879 l 426 879 l 549 1024 l 635 1024 l 488 856 l 401 856 l 254 1024 z "},"ç":{"ha":875,"x_min":78,"x_max":797,"o":"m 508 -69 q 553 -81 531 -69 q 588 -114 574 -92 q 602 -172 602 -137 q 579 -241 602 -214 q 519 -282 556 -268 q 440 -295 483 -295 q 368 -286 401 -295 q 323 -269 335 -277 l 349 -219 q 384 -235 358 -226 q 445 -245 410 -245 q 516 -226 487 -245 q 544 -170 544 -206 q 529 -127 544 -140 q 489 -113 513 -113 q 453 -120 472 -113 q 424 -140 434 -128 l 371 -124 l 419 0 l 481 0 l 438 -112 l 418 -108 q 452 -82 424 -94 q 508 -69 480 -69 m 456 -14 q 265 32 351 -14 q 128 165 178 78 q 78 369 78 251 q 128 573 78 488 q 265 703 178 658 q 456 749 351 749 q 600 724 537 749 q 707 658 663 699 q 774 568 751 617 q 797 471 797 519 q 797 469 797 470 q 797 466 797 467 l 680 466 q 679 474 680 469 q 678 483 678 478 q 642 565 672 530 q 565 620 613 600 q 456 640 517 640 q 328 611 387 640 q 234 521 269 581 q 198 369 198 461 q 233 217 198 278 q 327 125 269 156 q 456 94 386 94 q 579 118 531 94 q 652 181 628 142 q 680 265 677 220 l 797 265 q 775 166 797 215 q 710 75 753 116 q 603 10 667 35 q 456 -14 540 -14 z "},"ḉ":{"ha":875,"x_min":78,"x_max":797,"o":"m 508 -69 q 553 -81 531 -69 q 588 -114 574 -92 q 602 -172 602 -137 q 579 -241 602 -214 q 519 -282 556 -268 q 440 -295 483 -295 q 368 -286 401 -295 q 323 -269 335 -277 l 349 -219 q 384 -235 358 -226 q 445 -245 410 -245 q 516 -226 487 -245 q 544 -170 544 -206 q 529 -127 544 -140 q 489 -113 513 -113 q 453 -120 472 -113 q 424 -140 434 -128 l 371 -124 l 419 0 l 481 0 l 438 -112 l 418 -108 q 452 -82 424 -94 q 508 -69 480 -69 m 456 -14 q 265 32 351 -14 q 128 165 178 78 q 78 369 78 251 q 128 573 78 488 q 265 703 178 658 q 456 749 351 749 q 600 724 537 749 q 707 658 663 699 q 774 568 751 617 q 797 471 797 519 q 797 469 797 470 q 797 466 797 467 l 680 466 q 679 474 680 469 q 678 483 678 478 q 642 565 672 530 q 565 620 613 600 q 456 640 517 640 q 328 611 387 640 q 234 521 269 581 q 198 369 198 461 q 233 217 198 278 q 327 125 269 156 q 456 94 386 94 q 579 118 531 94 q 652 181 628 142 q 680 265 677 220 l 797 265 q 775 166 797 215 q 710 75 753 116 q 603 10 667 35 q 456 -14 540 -14 m 363 856 l 528 1024 l 638 1024 l 458 856 l 363 856 z "},"ĉ":{"ha":875,"x_min":78,"x_max":797,"o":"m 456 -14 q 265 32 351 -14 q 128 165 178 78 q 78 369 78 251 q 128 573 78 488 q 265 703 178 658 q 456 749 351 749 q 600 724 537 749 q 707 658 663 699 q 774 568 751 617 q 797 471 797 519 q 797 469 797 470 q 797 466 797 467 l 680 466 q 679 474 680 469 q 678 483 678 478 q 642 565 672 530 q 565 620 613 600 q 456 640 517 640 q 328 611 387 640 q 234 521 269 581 q 198 369 198 461 q 233 217 198 278 q 327 125 269 156 q 456 94 386 94 q 579 118 531 94 q 652 181 628 142 q 680 265 677 220 l 797 265 q 775 166 797 215 q 710 75 753 116 q 603 10 667 35 q 456 -14 540 -14 m 254 856 l 401 1024 l 488 1024 l 635 856 l 549 856 l 426 1001 l 462 1001 l 339 856 l 254 856 z "},"ċ":{"ha":875,"x_min":78,"x_max":797,"o":"m 456 -14 q 265 32 351 -14 q 128 165 178 78 q 78 369 78 251 q 128 573 78 488 q 265 703 178 658 q 456 749 351 749 q 600 724 537 749 q 707 658 663 699 q 774 568 751 617 q 797 471 797 519 q 797 469 797 470 q 797 466 797 467 l 680 466 q 679 474 680 469 q 678 483 678 478 q 642 565 672 530 q 565 620 613 600 q 456 640 517 640 q 328 611 387 640 q 234 521 269 581 q 198 369 198 461 q 233 217 198 278 q 327 125 269 156 q 456 94 386 94 q 579 118 531 94 q 652 181 628 142 q 680 265 677 220 l 797 265 q 775 166 797 215 q 710 75 753 116 q 603 10 667 35 q 456 -14 540 -14 m 445 906 q 389 925 413 906 q 365 974 365 943 q 389 1024 365 1006 q 445 1042 413 1042 q 501 1024 478 1042 q 525 974 525 1006 q 501 924 525 942 q 445 906 478 906 z "},"d":{"ha":872,"x_min":78,"x_max":771,"o":"m 410 -14 q 244 30 319 -14 q 123 160 168 74 q 78 369 78 246 q 124 576 78 491 q 245 705 169 660 q 410 749 321 749 q 570 708 496 749 q 691 595 645 667 q 737 428 737 523 q 737 424 737 426 q 737 419 737 422 l 652 416 q 652 420 652 418 q 652 425 652 423 q 620 534 652 485 q 538 611 589 583 q 427 640 486 640 q 264 574 328 640 q 199 369 199 508 q 264 165 199 232 q 427 98 329 98 q 540 128 489 98 q 622 208 591 158 q 652 321 652 258 l 737 319 q 693 149 737 224 q 575 30 649 74 q 410 -14 501 -14 m 652 0 l 652 1085 l 771 1085 l 771 0 l 652 0 z "},"ð":{"ha":935,"x_min":78,"x_max":833,"o":"m 389 894 l 601 1078 l 689 1031 l 478 848 l 389 894 m 722 369 q 689 649 722 536 q 600 834 657 763 q 468 948 543 906 q 309 1013 394 990 l 379 1085 q 558 1005 475 1058 q 702 869 640 953 q 799 661 764 785 q 833 369 833 538 l 722 369 m 456 -13 q 259 36 344 -13 q 126 173 174 86 q 78 369 78 259 q 126 565 78 480 q 259 699 174 651 q 456 748 344 748 q 652 699 567 748 q 785 565 737 651 q 833 369 833 480 q 785 173 833 259 q 652 36 737 86 q 456 -13 567 -13 m 456 92 q 590 127 532 92 q 682 224 649 162 q 715 369 715 287 q 682 514 715 452 q 590 609 649 575 q 456 642 532 642 q 321 609 380 642 q 230 514 263 575 q 197 369 197 452 q 230 224 197 287 q 321 127 263 162 q 456 92 380 92 z "},"ď":{"ha":942,"x_min":78,"x_max":942,"o":"m 410 -14 q 244 30 319 -14 q 123 160 168 74 q 78 369 78 246 q 124 576 78 491 q 245 705 169 660 q 410 749 321 749 q 570 708 496 749 q 691 595 645 667 q 737 428 737 523 q 737 424 737 426 q 737 419 737 422 l 652 416 q 652 420 652 418 q 652 425 652 423 q 620 534 652 485 q 538 611 589 583 q 427 640 486 640 q 264 574 328 640 q 199 369 199 508 q 264 165 199 232 q 427 98 329 98 q 540 128 489 98 q 622 208 591 158 q 652 321 652 258 l 737 319 q 693 149 737 224 q 575 30 649 74 q 410 -14 501 -14 m 652 0 l 652 1085 l 771 1085 l 771 0 l 652 0 m 942 1085 q 936 978 942 1033 q 924 879 931 922 q 914 818 917 835 l 853 818 q 861 878 856 836 q 868 976 865 921 q 872 1085 872 1031 l 942 1085 z "},"đ":{"ha":872,"x_min":78,"x_max":845,"o":"m 399 885 l 399 976 l 845 976 l 845 885 l 399 885 m 410 -14 q 244 30 319 -14 q 123 160 168 74 q 78 369 78 246 q 124 576 78 491 q 245 705 169 660 q 410 749 321 749 q 570 708 496 749 q 691 595 645 667 q 737 428 737 523 q 737 424 737 426 q 737 419 737 422 l 652 416 q 652 420 652 418 q 652 425 652 423 q 620 534 652 485 q 538 611 589 583 q 427 640 486 640 q 264 574 328 640 q 199 369 199 508 q 264 165 199 232 q 427 98 329 98 q 540 128 489 98 q 622 208 591 158 q 652 321 652 258 l 737 319 q 693 149 737 224 q 575 30 649 74 q 410 -14 501 -14 m 652 0 l 652 1085 l 771 1085 l 771 0 l 652 0 z "},"ḍ":{"ha":872,"x_min":78,"x_max":771,"o":"m 410 -14 q 244 30 319 -14 q 123 160 168 74 q 78 369 78 246 q 124 576 78 491 q 245 705 169 660 q 410 749 321 749 q 570 708 496 749 q 691 595 645 667 q 737 428 737 523 q 737 424 737 426 q 737 419 737 422 l 652 416 q 652 420 652 418 q 652 425 652 423 q 620 534 652 485 q 538 611 589 583 q 427 640 486 640 q 264 574 328 640 q 199 369 199 508 q 264 165 199 232 q 427 98 329 98 q 540 128 489 98 q 622 208 591 158 q 652 321 652 258 l 737 319 q 693 149 737 224 q 575 30 649 74 q 410 -14 501 -14 m 652 0 l 652 1085 l 771 1085 l 771 0 l 652 0 m 500 -242 q 444 -223 468 -242 q 420 -174 420 -205 q 444 -124 420 -142 q 500 -106 468 -106 q 556 -124 532 -106 q 580 -174 580 -142 q 556 -224 580 -206 q 500 -242 532 -242 z "},"ḏ":{"ha":872,"x_min":78,"x_max":771,"o":"m 410 -14 q 244 30 319 -14 q 123 160 168 74 q 78 369 78 246 q 124 576 78 491 q 245 705 169 660 q 410 749 321 749 q 570 708 496 749 q 691 595 645 667 q 737 428 737 523 q 737 424 737 426 q 737 419 737 422 l 652 416 q 652 420 652 418 q 652 425 652 423 q 620 534 652 485 q 538 611 589 583 q 427 640 486 640 q 264 574 328 640 q 199 369 199 508 q 264 165 199 232 q 427 98 329 98 q 540 128 489 98 q 622 208 591 158 q 652 321 652 258 l 737 319 q 693 149 737 224 q 575 30 649 74 q 410 -14 501 -14 m 652 0 l 652 1085 l 771 1085 l 771 0 l 652 0 m 328 -185 l 328 -131 l 669 -131 l 669 -185 l 328 -185 z "},"ǆ":{"ha":1545,"x_min":78,"x_max":1494,"o":"m 410 -14 q 244 30 319 -14 q 123 160 168 74 q 78 369 78 246 q 124 576 78 491 q 245 705 169 660 q 410 749 321 749 q 570 708 496 749 q 691 595 645 667 q 737 428 737 523 q 737 424 737 426 q 737 419 737 422 l 652 416 q 652 420 652 418 q 652 425 652 423 q 620 534 652 485 q 538 611 589 583 q 427 640 486 640 q 264 574 328 640 q 199 369 199 508 q 264 165 199 232 q 427 98 329 98 q 540 128 489 98 q 622 208 591 158 q 652 321 652 258 l 737 319 q 693 149 737 224 q 575 30 649 74 q 410 -14 501 -14 m 652 0 l 652 1085 l 771 1085 l 771 0 l 652 0 m 1056 108 l 1494 108 l 1494 0 l 924 0 l 924 104 l 1357 632 l 1358 629 l 942 629 l 942 738 l 1488 738 l 1488 633 l 1057 107 l 1056 108 m 1023 1024 l 1108 1024 l 1231 879 l 1195 879 l 1317 1024 l 1403 1024 l 1256 856 l 1169 856 l 1023 1024 z "},"e":{"ha":898,"x_min":78,"x_max":820,"o":"m 144 322 l 144 427 l 715 427 l 694 392 q 694 400 694 397 q 694 408 694 404 q 667 525 694 472 q 588 610 640 578 q 457 642 535 642 q 319 608 378 642 q 226 514 259 575 q 192 369 192 453 q 225 222 192 284 q 317 127 257 160 q 458 94 376 94 q 560 106 517 94 q 631 139 603 118 q 674 183 659 159 q 691 232 688 208 l 809 232 q 781 144 806 188 q 713 64 757 100 q 603 7 668 28 q 455 -15 539 -15 q 259 34 344 -15 q 126 169 174 83 q 78 367 78 255 q 126 566 78 480 q 260 700 175 651 q 456 749 346 749 q 649 700 567 749 q 776 567 731 651 q 820 375 820 483 q 819 346 820 364 q 817 322 819 328 l 144 322 z "},"é":{"ha":898,"x_min":78,"x_max":820,"o":"m 144 322 l 144 427 l 715 427 l 694 392 q 694 400 694 397 q 694 408 694 404 q 667 525 694 472 q 588 610 640 578 q 457 642 535 642 q 319 608 378 642 q 226 514 259 575 q 192 369 192 453 q 225 222 192 284 q 317 127 257 160 q 458 94 376 94 q 560 106 517 94 q 631 139 603 118 q 674 183 659 159 q 691 232 688 208 l 809 232 q 781 144 806 188 q 713 64 757 100 q 603 7 668 28 q 455 -15 539 -15 q 259 34 344 -15 q 126 169 174 83 q 78 367 78 255 q 126 566 78 480 q 260 700 175 651 q 456 749 346 749 q 649 700 567 749 q 776 567 731 651 q 820 375 820 483 q 819 346 820 364 q 817 322 819 328 l 144 322 m 373 856 l 539 1024 l 648 1024 l 469 856 l 373 856 z "},"ĕ":{"ha":898,"x_min":78,"x_max":820,"o":"m 144 322 l 144 427 l 715 427 l 694 392 q 694 400 694 397 q 694 408 694 404 q 667 525 694 472 q 588 610 640 578 q 457 642 535 642 q 319 608 378 642 q 226 514 259 575 q 192 369 192 453 q 225 222 192 284 q 317 127 257 160 q 458 94 376 94 q 560 106 517 94 q 631 139 603 118 q 674 183 659 159 q 691 232 688 208 l 809 232 q 781 144 806 188 q 713 64 757 100 q 603 7 668 28 q 455 -15 539 -15 q 259 34 344 -15 q 126 169 174 83 q 78 367 78 255 q 126 566 78 480 q 260 700 175 651 q 456 749 346 749 q 649 700 567 749 q 776 567 731 651 q 820 375 820 483 q 819 346 820 364 q 817 322 819 328 l 144 322 m 288 1038 l 362 1038 q 387 966 362 995 q 455 938 413 938 q 523 966 498 938 q 548 1038 548 995 l 622 1038 q 574 927 622 968 q 455 887 526 887 q 336 927 384 887 q 288 1038 288 968 z "},"ě":{"ha":898,"x_min":78,"x_max":820,"o":"m 144 322 l 144 427 l 715 427 l 694 392 q 694 400 694 397 q 694 408 694 404 q 667 525 694 472 q 588 610 640 578 q 457 642 535 642 q 319 608 378 642 q 226 514 259 575 q 192 369 192 453 q 225 222 192 284 q 317 127 257 160 q 458 94 376 94 q 560 106 517 94 q 631 139 603 118 q 674 183 659 159 q 691 232 688 208 l 809 232 q 781 144 806 188 q 713 64 757 100 q 603 7 668 28 q 455 -15 539 -15 q 259 34 344 -15 q 126 169 174 83 q 78 367 78 255 q 126 566 78 480 q 260 700 175 651 q 456 749 346 749 q 649 700 567 749 q 776 567 731 651 q 820 375 820 483 q 819 346 820 364 q 817 322 819 328 l 144 322 m 265 1024 l 349 1024 l 472 879 l 437 879 l 559 1024 l 645 1024 l 498 856 l 411 856 l 265 1024 z "},"ȩ":{"ha":898,"x_min":78,"x_max":820,"o":"m 517 -69 q 562 -81 540 -69 q 597 -114 583 -92 q 611 -172 611 -137 q 588 -241 611 -214 q 528 -282 565 -268 q 449 -295 492 -295 q 377 -286 410 -295 q 332 -269 344 -277 l 358 -219 q 393 -235 367 -226 q 454 -245 419 -245 q 525 -226 496 -245 q 553 -170 553 -206 q 538 -127 553 -140 q 498 -113 522 -113 q 462 -120 481 -113 q 433 -140 443 -128 l 380 -124 l 428 0 l 490 0 l 447 -112 l 427 -108 q 461 -82 433 -94 q 517 -69 489 -69 m 144 322 l 144 427 l 715 427 l 694 392 q 694 400 694 397 q 694 408 694 404 q 667 525 694 472 q 588 610 640 578 q 457 642 535 642 q 319 608 378 642 q 226 514 259 575 q 192 369 192 453 q 225 222 192 284 q 317 127 257 160 q 458 94 376 94 q 560 106 517 94 q 631 139 603 118 q 674 183 659 159 q 691 232 688 208 l 809 232 q 781 144 806 188 q 713 64 757 100 q 603 7 668 28 q 455 -15 539 -15 q 259 34 344 -15 q 126 169 174 83 q 78 367 78 255 q 126 566 78 480 q 260 700 175 651 q 456 749 346 749 q 649 700 567 749 q 776 567 731 651 q 820 375 820 483 q 819 346 820 364 q 817 322 819 328 l 144 322 z "},"ḝ":{"ha":898,"x_min":78,"x_max":820,"o":"m 517 -69 q 562 -81 540 -69 q 597 -114 583 -92 q 611 -172 611 -137 q 588 -241 611 -214 q 528 -282 565 -268 q 449 -295 492 -295 q 377 -286 410 -295 q 332 -269 344 -277 l 358 -219 q 393 -235 367 -226 q 454 -245 419 -245 q 525 -226 496 -245 q 553 -170 553 -206 q 538 -127 553 -140 q 498 -113 522 -113 q 462 -120 481 -113 q 433 -140 443 -128 l 380 -124 l 428 0 l 490 0 l 447 -112 l 427 -108 q 461 -82 433 -94 q 517 -69 489 -69 m 144 322 l 144 427 l 715 427 l 694 392 q 694 400 694 397 q 694 408 694 404 q 667 525 694 472 q 588 610 640 578 q 457 642 535 642 q 319 608 378 642 q 226 514 259 575 q 192 369 192 453 q 225 222 192 284 q 317 127 257 160 q 458 94 376 94 q 560 106 517 94 q 631 139 603 118 q 674 183 659 159 q 691 232 688 208 l 809 232 q 781 144 806 188 q 713 64 757 100 q 603 7 668 28 q 455 -15 539 -15 q 259 34 344 -15 q 126 169 174 83 q 78 367 78 255 q 126 566 78 480 q 260 700 175 651 q 456 749 346 749 q 649 700 567 749 q 776 567 731 651 q 820 375 820 483 q 819 346 820 364 q 817 322 819 328 l 144 322 m 288 1038 l 362 1038 q 387 966 362 995 q 455 938 413 938 q 523 966 498 938 q 548 1038 548 995 l 622 1038 q 574 927 622 968 q 455 887 526 887 q 336 927 384 887 q 288 1038 288 968 z "},"ê":{"ha":898,"x_min":78,"x_max":820,"o":"m 144 322 l 144 427 l 715 427 l 694 392 q 694 400 694 397 q 694 408 694 404 q 667 525 694 472 q 588 610 640 578 q 457 642 535 642 q 319 608 378 642 q 226 514 259 575 q 192 369 192 453 q 225 222 192 284 q 317 127 257 160 q 458 94 376 94 q 560 106 517 94 q 631 139 603 118 q 674 183 659 159 q 691 232 688 208 l 809 232 q 781 144 806 188 q 713 64 757 100 q 603 7 668 28 q 455 -15 539 -15 q 259 34 344 -15 q 126 169 174 83 q 78 367 78 255 q 126 566 78 480 q 260 700 175 651 q 456 749 346 749 q 649 700 567 749 q 776 567 731 651 q 820 375 820 483 q 819 346 820 364 q 817 322 819 328 l 144 322 m 265 856 l 411 1024 l 498 1024 l 645 856 l 559 856 l 437 1001 l 472 1001 l 349 856 l 265 856 z "},"ế":{"ha":898,"x_min":78,"x_max":820,"o":"m 144 322 l 144 427 l 715 427 l 694 392 q 694 400 694 397 q 694 408 694 404 q 667 525 694 472 q 588 610 640 578 q 457 642 535 642 q 319 608 378 642 q 226 514 259 575 q 192 369 192 453 q 225 222 192 284 q 317 127 257 160 q 458 94 376 94 q 560 106 517 94 q 631 139 603 118 q 674 183 659 159 q 691 232 688 208 l 809 232 q 781 144 806 188 q 713 64 757 100 q 603 7 668 28 q 455 -15 539 -15 q 259 34 344 -15 q 126 169 174 83 q 78 367 78 255 q 126 566 78 480 q 260 700 175 651 q 456 749 346 749 q 649 700 567 749 q 776 567 731 651 q 820 375 820 483 q 819 346 820 364 q 817 322 819 328 l 144 322 m 265 856 l 411 1024 l 498 1024 l 645 856 l 559 856 l 437 1001 l 472 1001 l 349 856 l 265 856 m 546 997 l 677 1165 l 768 1165 l 623 997 l 546 997 z "},"ệ":{"ha":898,"x_min":78,"x_max":820,"o":"m 144 322 l 144 427 l 715 427 l 694 392 q 694 400 694 397 q 694 408 694 404 q 667 525 694 472 q 588 610 640 578 q 457 642 535 642 q 319 608 378 642 q 226 514 259 575 q 192 369 192 453 q 225 222 192 284 q 317 127 257 160 q 458 94 376 94 q 560 106 517 94 q 631 139 603 118 q 674 183 659 159 q 691 232 688 208 l 809 232 q 781 144 806 188 q 713 64 757 100 q 603 7 668 28 q 455 -15 539 -15 q 259 34 344 -15 q 126 169 174 83 q 78 367 78 255 q 126 566 78 480 q 260 700 175 651 q 456 749 346 749 q 649 700 567 749 q 776 567 731 651 q 820 375 820 483 q 819 346 820 364 q 817 322 819 328 l 144 322 m 458 -237 q 402 -218 426 -237 q 378 -169 378 -200 q 402 -119 378 -137 q 458 -101 426 -101 q 514 -119 490 -101 q 538 -169 538 -137 q 514 -219 538 -201 q 458 -237 490 -237 m 265 856 l 411 1024 l 498 1024 l 645 856 l 559 856 l 437 1001 l 472 1001 l 349 856 l 265 856 z "},"ề":{"ha":898,"x_min":78,"x_max":820,"o":"m 144 322 l 144 427 l 715 427 l 694 392 q 694 400 694 397 q 694 408 694 404 q 667 525 694 472 q 588 610 640 578 q 457 642 535 642 q 319 608 378 642 q 226 514 259 575 q 192 369 192 453 q 225 222 192 284 q 317 127 257 160 q 458 94 376 94 q 560 106 517 94 q 631 139 603 118 q 674 183 659 159 q 691 232 688 208 l 809 232 q 781 144 806 188 q 713 64 757 100 q 603 7 668 28 q 455 -15 539 -15 q 259 34 344 -15 q 126 169 174 83 q 78 367 78 255 q 126 566 78 480 q 260 700 175 651 q 456 749 346 749 q 649 700 567 749 q 776 567 731 651 q 820 375 820 483 q 819 346 820 364 q 817 322 819 328 l 144 322 m 265 856 l 412 1024 l 499 1024 l 646 856 l 560 856 l 438 1001 l 473 1001 l 350 856 l 265 856 m 681 997 l 603 997 l 458 1165 l 549 1165 l 681 997 z "},"ể":{"ha":898,"x_min":78,"x_max":820,"o":"m 144 322 l 144 427 l 715 427 l 694 392 q 694 400 694 397 q 694 408 694 404 q 667 525 694 472 q 588 610 640 578 q 457 642 535 642 q 319 608 378 642 q 226 514 259 575 q 192 369 192 453 q 225 222 192 284 q 317 127 257 160 q 458 94 376 94 q 560 106 517 94 q 631 139 603 118 q 674 183 659 159 q 691 232 688 208 l 809 232 q 781 144 806 188 q 713 64 757 100 q 603 7 668 28 q 455 -15 539 -15 q 259 34 344 -15 q 126 169 174 83 q 78 367 78 255 q 126 566 78 480 q 260 700 175 651 q 456 749 346 749 q 649 700 567 749 q 776 567 731 651 q 820 375 820 483 q 819 346 820 364 q 817 322 819 328 l 144 322 m 265 856 l 411 1024 l 498 1024 l 645 856 l 559 856 l 437 1001 l 472 1001 l 349 856 l 265 856 m 592 999 l 577 1035 q 626 1040 601 1036 q 669 1052 651 1044 q 687 1077 687 1061 q 638 1110 687 1103 q 508 1117 589 1117 l 508 1158 q 633 1153 578 1158 q 717 1132 687 1148 q 747 1081 747 1115 q 725 1034 747 1052 q 667 1008 703 1016 q 592 999 632 999 z "},"ễ":{"ha":898,"x_min":78,"x_max":820,"o":"m 144 322 l 144 427 l 715 427 l 694 392 q 694 400 694 397 q 694 408 694 404 q 667 525 694 472 q 588 610 640 578 q 457 642 535 642 q 319 608 378 642 q 226 514 259 575 q 192 369 192 453 q 225 222 192 284 q 317 127 257 160 q 458 94 376 94 q 560 106 517 94 q 631 139 603 118 q 674 183 659 159 q 691 232 688 208 l 809 232 q 781 144 806 188 q 713 64 757 100 q 603 7 668 28 q 455 -15 539 -15 q 259 34 344 -15 q 126 169 174 83 q 78 367 78 255 q 126 566 78 480 q 260 700 175 651 q 456 749 346 749 q 649 700 567 749 q 776 567 731 651 q 820 375 820 483 q 819 346 820 364 q 817 322 819 328 l 144 322 m 265 856 l 411 1024 l 498 1024 l 645 856 l 559 856 l 437 1001 l 472 1001 l 349 856 l 265 856 m 542 1064 q 486 1075 508 1064 q 447 1101 464 1087 q 417 1123 433 1113 q 379 1133 401 1133 q 338 1117 351 1133 q 324 1083 326 1100 l 255 1083 q 270 1132 256 1106 q 310 1177 283 1158 q 375 1197 336 1197 q 429 1184 407 1197 q 467 1160 451 1172 q 501 1137 483 1147 q 538 1126 518 1126 q 575 1142 566 1126 q 585 1176 584 1158 l 654 1176 q 642 1129 653 1155 q 606 1083 631 1103 q 542 1064 582 1064 z "},"ȅ":{"ha":898,"x_min":78,"x_max":820,"o":"m 144 322 l 144 427 l 715 427 l 694 392 q 694 400 694 397 q 694 408 694 404 q 667 525 694 472 q 588 610 640 578 q 457 642 535 642 q 319 608 378 642 q 226 514 259 575 q 192 369 192 453 q 225 222 192 284 q 317 127 257 160 q 458 94 376 94 q 560 106 517 94 q 631 139 603 118 q 674 183 659 159 q 691 232 688 208 l 809 232 q 781 144 806 188 q 713 64 757 100 q 603 7 668 28 q 455 -15 539 -15 q 259 34 344 -15 q 126 169 174 83 q 78 367 78 255 q 126 566 78 480 q 260 700 175 651 q 456 749 346 749 q 649 700 567 749 q 776 567 731 651 q 820 375 820 483 q 819 346 820 364 q 817 322 819 328 l 144 322 m 611 856 l 539 856 l 410 1024 l 501 1024 l 611 856 m 399 856 l 326 856 l 189 1024 l 281 1024 l 399 856 z "},"ë":{"ha":898,"x_min":78,"x_max":820,"o":"m 144 322 l 144 427 l 715 427 l 694 392 q 694 400 694 397 q 694 408 694 404 q 667 525 694 472 q 588 610 640 578 q 457 642 535 642 q 319 608 378 642 q 226 514 259 575 q 192 369 192 453 q 225 222 192 284 q 317 127 257 160 q 458 94 376 94 q 560 106 517 94 q 631 139 603 118 q 674 183 659 159 q 691 232 688 208 l 809 232 q 781 144 806 188 q 713 64 757 100 q 603 7 668 28 q 455 -15 539 -15 q 259 34 344 -15 q 126 169 174 83 q 78 367 78 255 q 126 566 78 480 q 260 700 175 651 q 456 749 346 749 q 649 700 567 749 q 776 567 731 651 q 820 375 820 483 q 819 346 820 364 q 817 322 819 328 l 144 322 m 319 906 q 267 923 290 906 q 244 970 244 940 q 267 1017 244 999 q 319 1034 290 1034 q 372 1017 350 1034 q 394 970 394 999 q 372 923 394 940 q 319 906 350 906 m 590 906 q 538 923 560 906 q 515 970 515 940 q 538 1017 515 999 q 590 1034 560 1034 q 642 1017 620 1034 q 665 970 665 999 q 642 923 665 940 q 590 906 620 906 z "},"ė":{"ha":898,"x_min":78,"x_max":820,"o":"m 144 322 l 144 427 l 715 427 l 694 392 q 694 400 694 397 q 694 408 694 404 q 667 525 694 472 q 588 610 640 578 q 457 642 535 642 q 319 608 378 642 q 226 514 259 575 q 192 369 192 453 q 225 222 192 284 q 317 127 257 160 q 458 94 376 94 q 560 106 517 94 q 631 139 603 118 q 674 183 659 159 q 691 232 688 208 l 809 232 q 781 144 806 188 q 713 64 757 100 q 603 7 668 28 q 455 -15 539 -15 q 259 34 344 -15 q 126 169 174 83 q 78 367 78 255 q 126 566 78 480 q 260 700 175 651 q 456 749 346 749 q 649 700 567 749 q 776 567 731 651 q 820 375 820 483 q 819 346 820 364 q 817 322 819 328 l 144 322 m 456 906 q 400 925 424 906 q 376 974 376 943 q 400 1024 376 1006 q 456 1042 424 1042 q 512 1024 488 1042 q 535 974 535 1006 q 512 924 535 942 q 456 906 488 906 z "},"ẹ":{"ha":898,"x_min":78,"x_max":820,"o":"m 144 322 l 144 427 l 715 427 l 694 392 q 694 400 694 397 q 694 408 694 404 q 667 525 694 472 q 588 610 640 578 q 457 642 535 642 q 319 608 378 642 q 226 514 259 575 q 192 369 192 453 q 225 222 192 284 q 317 127 257 160 q 458 94 376 94 q 560 106 517 94 q 631 139 603 118 q 674 183 659 159 q 691 232 688 208 l 809 232 q 781 144 806 188 q 713 64 757 100 q 603 7 668 28 q 455 -15 539 -15 q 259 34 344 -15 q 126 169 174 83 q 78 367 78 255 q 126 566 78 480 q 260 700 175 651 q 456 749 346 749 q 649 700 567 749 q 776 567 731 651 q 820 375 820 483 q 819 346 820 364 q 817 322 819 328 l 144 322 m 458 -237 q 402 -218 426 -237 q 378 -169 378 -200 q 402 -119 378 -137 q 458 -101 426 -101 q 514 -119 490 -101 q 538 -169 538 -137 q 514 -219 538 -201 q 458 -237 490 -237 z "},"è":{"ha":898,"x_min":78,"x_max":820,"o":"m 144 322 l 144 427 l 715 427 l 694 392 q 694 400 694 397 q 694 408 694 404 q 667 525 694 472 q 588 610 640 578 q 457 642 535 642 q 319 608 378 642 q 226 514 259 575 q 192 369 192 453 q 225 222 192 284 q 317 127 257 160 q 458 94 376 94 q 560 106 517 94 q 631 139 603 118 q 674 183 659 159 q 691 232 688 208 l 809 232 q 781 144 806 188 q 713 64 757 100 q 603 7 668 28 q 455 -15 539 -15 q 259 34 344 -15 q 126 169 174 83 q 78 367 78 255 q 126 566 78 480 q 260 700 175 651 q 456 749 346 749 q 649 700 567 749 q 776 567 731 651 q 820 375 820 483 q 819 346 820 364 q 817 322 819 328 l 144 322 m 532 856 l 435 856 l 256 1024 l 365 1024 l 532 856 z "},"ẻ":{"ha":898,"x_min":78,"x_max":820,"o":"m 144 322 l 144 427 l 715 427 l 694 392 q 694 400 694 397 q 694 408 694 404 q 667 525 694 472 q 588 610 640 578 q 457 642 535 642 q 319 608 378 642 q 226 514 259 575 q 192 369 192 453 q 225 222 192 284 q 317 127 257 160 q 458 94 376 94 q 560 106 517 94 q 631 139 603 118 q 674 183 659 159 q 691 232 688 208 l 809 232 q 781 144 806 188 q 713 64 757 100 q 603 7 668 28 q 455 -15 539 -15 q 259 34 344 -15 q 126 169 174 83 q 78 367 78 255 q 126 566 78 480 q 260 700 175 651 q 456 749 346 749 q 649 700 567 749 q 776 567 731 651 q 820 375 820 483 q 819 346 820 364 q 817 322 819 328 l 144 322 m 322 1040 q 454 1035 397 1040 q 543 1012 511 1029 q 575 959 575 994 q 552 909 575 928 q 491 881 528 890 q 411 872 453 872 l 396 910 q 448 915 421 911 q 493 928 474 919 q 511 955 511 938 q 460 990 511 983 q 322 997 408 997 l 322 1040 z "},"ȇ":{"ha":898,"x_min":78,"x_max":820,"o":"m 144 322 l 144 427 l 715 427 l 694 392 q 694 400 694 397 q 694 408 694 404 q 667 525 694 472 q 588 610 640 578 q 457 642 535 642 q 319 608 378 642 q 226 514 259 575 q 192 369 192 453 q 225 222 192 284 q 317 127 257 160 q 458 94 376 94 q 560 106 517 94 q 631 139 603 118 q 674 183 659 159 q 691 232 688 208 l 809 232 q 781 144 806 188 q 713 64 757 100 q 603 7 668 28 q 455 -15 539 -15 q 259 34 344 -15 q 126 169 174 83 q 78 367 78 255 q 126 566 78 480 q 260 700 175 651 q 456 749 346 749 q 649 700 567 749 q 776 567 731 651 q 820 375 820 483 q 819 346 820 364 q 817 322 819 328 l 144 322 m 288 892 q 335 997 288 962 q 455 1033 383 1033 q 574 997 526 1033 q 622 892 622 962 l 548 892 q 523 958 548 935 q 455 981 497 981 q 387 958 413 981 q 362 892 362 935 l 288 892 z "},"ē":{"ha":898,"x_min":78,"x_max":820,"o":"m 144 322 l 144 427 l 715 427 l 694 392 q 694 400 694 397 q 694 408 694 404 q 667 525 694 472 q 588 610 640 578 q 457 642 535 642 q 319 608 378 642 q 226 514 259 575 q 192 369 192 453 q 225 222 192 284 q 317 127 257 160 q 458 94 376 94 q 560 106 517 94 q 631 139 603 118 q 674 183 659 159 q 691 232 688 208 l 809 232 q 781 144 806 188 q 713 64 757 100 q 603 7 668 28 q 455 -15 539 -15 q 259 34 344 -15 q 126 169 174 83 q 78 367 78 255 q 126 566 78 480 q 260 700 175 651 q 456 749 346 749 q 649 700 567 749 q 776 567 731 651 q 820 375 820 483 q 819 346 820 364 q 817 322 819 328 l 144 322 m 275 915 l 275 969 l 635 969 l 635 915 l 275 915 z "},"ḗ":{"ha":898,"x_min":78,"x_max":820,"o":"m 144 322 l 144 427 l 715 427 l 694 392 q 694 400 694 397 q 694 408 694 404 q 667 525 694 472 q 588 610 640 578 q 457 642 535 642 q 319 608 378 642 q 226 514 259 575 q 192 369 192 453 q 225 222 192 284 q 317 127 257 160 q 458 94 376 94 q 560 106 517 94 q 631 139 603 118 q 674 183 659 159 q 691 232 688 208 l 809 232 q 781 144 806 188 q 713 64 757 100 q 603 7 668 28 q 455 -15 539 -15 q 259 34 344 -15 q 126 169 174 83 q 78 367 78 255 q 126 566 78 480 q 260 700 175 651 q 456 749 346 749 q 649 700 567 749 q 776 567 731 651 q 820 375 820 483 q 819 346 820 364 q 817 322 819 328 l 144 322 m 275 915 l 275 969 l 635 969 l 635 915 l 275 915 m 373 1087 l 539 1256 l 648 1256 l 469 1087 l 373 1087 z "},"ḕ":{"ha":898,"x_min":78,"x_max":820,"o":"m 144 322 l 144 427 l 715 427 l 694 392 q 694 400 694 397 q 694 408 694 404 q 667 525 694 472 q 588 610 640 578 q 457 642 535 642 q 319 608 378 642 q 226 514 259 575 q 192 369 192 453 q 225 222 192 284 q 317 127 257 160 q 458 94 376 94 q 560 106 517 94 q 631 139 603 118 q 674 183 659 159 q 691 232 688 208 l 809 232 q 781 144 806 188 q 713 64 757 100 q 603 7 668 28 q 455 -15 539 -15 q 259 34 344 -15 q 126 169 174 83 q 78 367 78 255 q 126 566 78 480 q 260 700 175 651 q 456 749 346 749 q 649 700 567 749 q 776 567 731 651 q 820 375 820 483 q 819 346 820 364 q 817 322 819 328 l 144 322 m 275 915 l 275 969 l 635 969 l 635 915 l 275 915 m 532 1087 l 435 1087 l 256 1256 l 365 1256 l 532 1087 z "},"ę":{"ha":898,"x_min":78,"x_max":820,"o":"m 610 -219 l 610 -282 q 579 -285 597 -284 q 545 -287 562 -287 q 478 -276 508 -287 q 429 -242 447 -265 q 411 -182 411 -219 q 432 -110 411 -147 q 483 -41 452 -74 q 542 13 513 -8 l 610 13 q 555 -41 585 -9 q 503 -107 525 -74 q 482 -167 482 -140 q 501 -211 482 -197 q 553 -225 521 -225 q 582 -223 567 -225 q 610 -219 598 -222 m 144 322 l 144 427 l 715 427 l 694 392 q 694 400 694 397 q 694 408 694 404 q 667 525 694 472 q 588 610 640 578 q 457 642 535 642 q 319 608 378 642 q 226 514 259 575 q 192 369 192 453 q 225 222 192 284 q 317 127 257 160 q 458 94 376 94 q 560 106 517 94 q 631 139 603 118 q 674 183 659 159 q 691 232 688 208 l 809 232 q 781 144 806 188 q 713 64 757 100 q 603 7 668 28 q 455 -15 539 -15 q 259 34 344 -15 q 126 169 174 83 q 78 367 78 255 q 126 566 78 480 q 260 700 175 651 q 456 749 346 749 q 649 700 567 749 q 776 567 731 651 q 820 375 820 483 q 819 346 820 364 q 817 322 819 328 l 144 322 z "},"ẽ":{"ha":898,"x_min":78,"x_max":820,"o":"m 144 322 l 144 427 l 715 427 l 694 392 q 694 400 694 397 q 694 408 694 404 q 667 525 694 472 q 588 610 640 578 q 457 642 535 642 q 319 608 378 642 q 226 514 259 575 q 192 369 192 453 q 225 222 192 284 q 317 127 257 160 q 458 94 376 94 q 560 106 517 94 q 631 139 603 118 q 674 183 659 159 q 691 232 688 208 l 809 232 q 781 144 806 188 q 713 64 757 100 q 603 7 668 28 q 455 -15 539 -15 q 259 34 344 -15 q 126 169 174 83 q 78 367 78 255 q 126 566 78 480 q 260 700 175 651 q 456 749 346 749 q 649 700 567 749 q 776 567 731 651 q 820 375 820 483 q 819 346 820 364 q 817 322 819 328 l 144 322 m 654 1008 q 642 961 653 987 q 606 915 631 935 q 542 896 582 896 q 488 909 510 896 q 447 935 465 922 q 414 956 431 946 q 375 965 397 965 q 336 949 347 965 q 324 915 326 932 l 255 915 q 270 964 256 938 q 310 1009 283 990 q 375 1028 336 1028 q 429 1016 407 1028 q 467 992 451 1004 q 501 969 483 979 q 538 958 518 958 q 575 974 566 958 q 585 1008 584 990 l 654 1008 z "},"ə":{"ha":898,"x_min":78,"x_max":820,"o":"m 442 -15 q 249 34 331 -15 q 122 167 167 83 q 78 359 78 251 q 78 388 78 370 q 79 413 78 406 l 753 413 l 753 307 l 183 307 l 204 342 q 204 334 204 338 q 204 326 204 330 q 230 210 204 263 q 307 124 255 156 q 441 92 360 92 q 582 124 523 92 q 674 217 642 156 q 706 365 706 278 q 675 515 706 453 q 585 608 644 576 q 440 640 526 640 q 335 628 378 640 q 265 595 292 616 q 224 551 238 575 q 207 502 210 526 l 89 502 q 117 590 92 547 q 185 670 141 634 q 294 727 230 706 q 443 749 359 749 q 639 700 554 749 q 772 566 724 651 q 820 367 820 480 q 772 169 820 255 q 638 34 723 83 q 442 -15 553 -15 z "},"ʒ":{"ha":794,"x_min":94,"x_max":690,"o":"m 397 -301 q 256 -277 314 -301 q 163 -211 199 -254 q 110 -108 127 -168 q 94 25 94 -49 q 94 26 94 26 q 94 28 94 27 l 213 28 q 213 26 213 27 q 213 25 213 26 q 261 -148 213 -100 q 398 -197 310 -197 q 524 -147 478 -197 q 570 11 570 -98 q 547 116 570 80 q 473 166 523 153 q 344 180 423 180 l 288 180 l 547 633 l 112 633 l 112 738 l 685 738 l 685 641 l 467 281 q 597 247 549 281 q 668 151 646 212 q 690 15 690 91 q 658 -151 690 -81 q 561 -261 626 -222 q 397 -301 497 -301 z "}}}
